<?xml version="1.0" encoding="UTF-8" standalone="no"?>
<!-- Created with Inkscape (http://www.inkscape.org/) -->

<svg
   width="99.997658mm"
   height="99.644173mm"
   viewBox="0 0 99.997659 99.644173"
   version="1.1"
   id="svg844"
   xmlns="http://www.w3.org/2000/svg"
   xmlns:svg="http://www.w3.org/2000/svg">
  <defs
     id="defs841">
    <filter
       style="color-interpolation-filters:sRGB"
       id="filter2128"
       x="-0.30004778"
       y="-0.29995224"
       width="1.6000956"
       height="1.5999045">
      <feGaussianBlur
         stdDeviation="19.15979"
         id="feGaussianBlur2130" />
    </filter>
    <filter
       style="color-interpolation-filters:sRGB"
       id="filter3334"
       x="-1.2"
       y="-1.2"
       width="3.4000001"
       height="3.4000001">
      <feGaussianBlur
         stdDeviation="6.8791666"
         id="feGaussianBlur3336" />
    </filter>
    <filter
       style="color-interpolation-filters:sRGB"
       id="filter5318"
       x="-0.29996968"
       y="-0.30003033"
       width="1.5999394"
       height="1.6000607">
      <feGaussianBlur
         stdDeviation="25.363404"
         id="feGaussianBlur5320" />
    </filter>
  </defs>
  <rect
     style="display:none;fill:#009485;fill-opacity:1;fill-rule:evenodd;stroke:#000f96;stroke-width:6.2;stroke-dasharray:none;stroke-opacity:1"
     id="rect2088"
     width="1859.2787"
     height="1568.9149"
     x="-230.00208"
     y="-581.20776" />
  <g
     id="layer2"
     style="display:inline;stroke:#000f96;stroke-opacity:1"
     transform="translate(-73.88041,-89.021674)">
    <path
       style="fill:none;fill-opacity:1;fill-rule:evenodd;stroke:#000f96;stroke-width:4;stroke-miterlimit:4;stroke-dasharray:24,4;stroke-dashoffset:0;stroke-opacity:1"
       d="M 74.233963,188.31229 103.33813,159.20813"
       id="path5002" />
    <path
       id="rect4407"
       style="display:inline;fill:none;fill-rule:evenodd;stroke:#000f96;stroke-width:5.30800009;stroke-dasharray:31.84799957,5.30800009;stroke-dashoffset:0;stroke-opacity:1"
       d="m 104.35518,89.331666 v 69.522894 h 69.52289" />
    <path
       id="path4894"
       style="display:inline;fill:none;fill-rule:evenodd;stroke:#000f96;stroke-width:5.30800009;stroke-opacity:1;stroke-dasharray:none"
       d="M 172.86104,159.20811 V 89.685219 h -69.52289" />
  </g>
  <g
     id="layer1"
     transform="matrix(0.71249018,0,0,0.71249018,-37.086957,-47.674782)"
     style="display:inline;fill:#870096;fill-opacity:1">
    <circle
       style="opacity:1;fill:#870096;fill-opacity:1;fill-rule:evenodd;stroke:#8b0b18;stroke-width:0;stroke-opacity:1"
       id="circle1937"
       cx="123.45357"
       cy="139.30032"
       r="39.237827" />
    <path
       id="rect1763"
       style="display:inline;fill:#77008f;fill-opacity:1;fill-rule:evenodd;stroke:#ff0000;stroke-width:0;filter:url(#filter5318)"
       d="m 491.95117,490.34961 c -32.08117,77.92572 -95.05455,128.82076 -169.59375,169.5957 14.7953,15.79914 33.58845,27.30232 54.38867,33.29102 L 525.28516,544.69727 c -6.00754,-20.7902 -17.52541,-39.5689 -33.33399,-54.34766 z"
       transform="matrix(0.32698187,0,0,0.32698187,-10.609024,-49.695208)" />
    <path
       id="path1422"
       style="display:inline;mix-blend-mode:normal;fill:#590082;fill-opacity:1;fill-rule:evenodd;stroke:#ff0000;stroke-width:0;filter:url(#filter2128)"
       d="m 525.28516,544.69727 c -13.25996,40.49213 -21.12168,86.68713 -45.30666,112.22924 -24.18209,25.53906 -64.68593,30.4273 -103.23241,36.30982 10.80644,3.13925 22.00074,4.74285 33.25391,4.76367 66.27417,0 120,-53.72583 120,-120 -3.7e-4,-11.26721 -1.58757,-22.47822 -4.71484,-33.30273 z"
       transform="matrix(0.32698187,0,0,0.32698187,-10.609024,-49.695208)" />
    <circle
       style="display:inline;mix-blend-mode:normal;fill:#ffffff;fill-opacity:1;fill-rule:evenodd;stroke:#ff0000;stroke-width:0;filter:url(#filter3334)"
       id="path3230"
       cx="97.366669"
       cy="141.02292"
       r="6.8791666"
       transform="matrix(1.2358371,0,0,1.2358371,-10.609024,-49.695208)" />
  </g>
  <g
     id="layer3"
     transform="translate(-73.88041,-89.021674)"
     style="stroke:#000f96;stroke-opacity:1">
    <path
       style="fill:none;fill-opacity:1;fill-rule:evenodd;stroke:#000f96;stroke-width:4;stroke-miterlimit:4;stroke-dasharray:none;stroke-opacity:1"
       d="M 74.233962,118.78938 103.33813,89.685219"
       id="path4522" />
    <path
       style="fill:none;fill-opacity:1;fill-rule:evenodd;stroke:#000f96;stroke-width:4;stroke-miterlimit:4;stroke-dasharray:none;stroke-opacity:1"
       d="m 143.75687,188.31229 29.10417,-29.10416"
       id="path4524" />
    <path
       style="fill:none;fill-opacity:1;fill-rule:evenodd;stroke:#000f96;stroke-width:4;stroke-miterlimit:4;stroke-dasharray:none;stroke-opacity:1"
       d="M 143.75687,118.78938 172.86104,89.685219"
       id="path4526" />
    <rect
       style="display:inline;fill:none;fill-opacity:1;fill-rule:evenodd;stroke:#000f96;stroke-width:5.3083601;stroke-miterlimit:4;stroke-dasharray:none;stroke-opacity:1"
       id="rect3872"
       width="69.522911"
       height="69.522911"
       x="74.233963"
       y="118.78938" />
  </g>
</svg>
