<?xml version="1.0" encoding="UTF-8" standalone="no"?>
<svg
   width="423.35361pt"
   height="560.1333pt"
   version="1.1"
   viewBox="0 0 423.35361 560.1333"
   id="svg145"
   sodipodi:docname="logo.svg"
   inkscape:version="1.1.1 (3bf5ae0d25, 2021-09-20)"
   inkscape:export-filename="D:\QC supplements\Vaults\C Nhóm hỗ trợ người tự học\Obsidian, quản lý dự án và công cụ nghĩ\Thiết lập\Ảnh\logo.png"
   inkscape:export-xdpi="286.26999"
   inkscape:export-ydpi="286.26999"
   xmlns:inkscape="http://www.inkscape.org/namespaces/inkscape"
   xmlns:sodipodi="http://sodipodi.sourceforge.net/DTD/sodipodi-0.dtd"
   xmlns="http://www.w3.org/2000/svg"
   xmlns:svg="http://www.w3.org/2000/svg">
  <sodipodi:namedview
     id="namedview147"
     pagecolor="#ffffff"
     bordercolor="#666666"
     borderopacity="1.0"
     inkscape:pageshadow="2"
     inkscape:pageopacity="0.0"
     inkscape:pagecheckerboard="0"
     inkscape:document-units="pt"
     showgrid="false"
     inkscape:zoom="0.71277961"
     inkscape:cx="159.23576"
     inkscape:cy="324.78482"
     inkscape:window-width="1366"
     inkscape:window-height="697"
     inkscape:window-x="2152"
     inkscape:window-y="-8"
     inkscape:window-maximized="1"
     inkscape:current-layer="layer1"
     inkscape:snap-smooth-nodes="true"
     inkscape:object-paths="true"
     inkscape:snap-intersection-paths="true"
     inkscape:snap-nodes="true"
     inkscape:snap-center="true"
     inkscape:snap-page="true" />
  <defs
     id="defs65">
    <inkscape:path-effect
       effect="perspective-envelope"
       up_left_point="377.06483,331.30751"
       up_right_point="526.20388,245.02874"
       down_left_point="377.14083,503.67267"
       down_right_point="526.20388,417.57591"
       id="path-effect14503"
       is_visible="true"
       lpeversion="1"
       deform_type="perspective"
       horizontal_mirror="false"
       vertical_mirror="false"
       overflow_perspective="false" />
    <inkscape:path-effect
       effect="perspective-envelope"
       up_left_point="543.85807,411.12765"
       up_right_point="692.99712,497.40642"
       down_left_point="543.85807,583.67482"
       down_right_point="692.92112,669.77158"
       id="path-effect14271"
       is_visible="true"
       lpeversion="1"
       deform_type="perspective"
       horizontal_mirror="false"
       vertical_mirror="false"
       overflow_perspective="false" />
    <inkscape:path-effect
       effect="perspective-envelope"
       up_left_point="681.95048,441.99582"
       up_right_point="811.09056,367.57689"
       down_left_point="811.09056,516.41475"
       down_right_point="940.23064,441.99582"
       id="path-effect5138"
       is_visible="true"
       lpeversion="1"
       deform_type="perspective"
       horizontal_mirror="false"
       vertical_mirror="false"
       overflow_perspective="false" />
    <inkscape:path-effect
       effect="perspective-envelope"
       up_left_point="936.12785,428.74527"
       up_right_point="1088.2346,428.74527"
       down_left_point="936.12785,547.02656"
       down_right_point="1088.2346,547.02656"
       id="path-effect9897"
       is_visible="true"
       lpeversion="1"
       deform_type="perspective"
       horizontal_mirror="false"
       vertical_mirror="true"
       overflow_perspective="false" />
    <inkscape:path-effect
       effect="perspective-envelope"
       up_left_point="681.95048,441.99582"
       up_right_point="811.09056,367.57689"
       down_left_point="811.09056,516.41475"
       down_right_point="940.23064,441.99582"
       id="path-effect9755"
       is_visible="true"
       lpeversion="1"
       deform_type="perspective"
       horizontal_mirror="false"
       vertical_mirror="false"
       overflow_perspective="false" />
    <symbol
       id="u"
       overflow="visible">
      <path
         d="m 18.766,-1.125 c -0.96875,0.5 -1.9805,0.875 -3.0312,1.125 -1.043,0.25781 -2.1367,0.39062 -3.2812,0.39062 -3.3984,0 -6.0898,-0.94531 -8.0781,-2.8438 -1.9922,-1.9062 -2.9844,-4.4844 -2.9844,-7.7344 0,-3.2578 0.99219,-5.8359 2.9844,-7.7344 1.9883,-1.9062 4.6797,-2.8594 8.0781,-2.8594 1.1445,0 2.2383,0.13281 3.2812,0.39062 1.0508,0.25 2.0625,0.625 3.0312,1.125 v 4.2188 c -0.98047,-0.65625 -1.9453,-1.1406 -2.8906,-1.4531 -0.94922,-0.3125 -1.9492,-0.46875 -3,-0.46875 -1.875,0 -3.3516,0.60547 -4.4219,1.8125 -1.0742,1.1992 -1.6094,2.8555 -1.6094,4.9688 0,2.1055 0.53516,3.7617 1.6094,4.9688 1.0703,1.1992 2.5469,1.7969 4.4219,1.7969 1.0508,0 2.0508,-0.14844 3,-0.45312 0.94531,-0.3125 1.9102,-0.80078 2.8906,-1.4688 z"
         id="path2" />
    </symbol>
    <symbol
       id="c"
       overflow="visible">
      <path
         d="m 13.734,-11.141 c -0.4375,-0.19531 -0.87109,-0.34375 -1.2969,-0.4375 -0.41797,-0.10156 -0.83984,-0.15625 -1.2656,-0.15625 -1.2617,0 -2.2305,0.40625 -2.9062,1.2188 -0.67969,0.80469 -1.0156,1.9531 -1.0156,3.4531 v 7.0625 H 2.3591 v -15.312 h 4.8906 v 2.5156 c 0.625,-1 1.3438,-1.7266 2.1562,-2.1875 0.82031,-0.46875 1.8008,-0.70312 2.9375,-0.70312 0.16406,0 0.34375,0.01172 0.53125,0.03125 0.19531,0.01172 0.47656,0.03906 0.84375,0.07813 z"
         id="path5" />
    </symbol>
    <symbol
       id="a"
       overflow="visible">
      <path
         d="m 17.641,-7.7031 v 1.4062 H 6.188 c 0.125,1.1484 0.53906,2.0078 1.25,2.5781 0.70703,0.57422 1.7031,0.85938 2.9844,0.85938 1.0312,0 2.082,-0.14844 3.1562,-0.45312 1.082,-0.3125 2.1914,-0.77344 3.3281,-1.3906 v 3.7656 c -1.1562,0.4375 -2.3125,0.76562 -3.4688,0.98438 -1.1562,0.22656 -2.3125,0.34375 -3.4688,0.34375 -2.7734,0 -4.9297,-0.70312 -6.4688,-2.1094 -1.5312,-1.4062 -2.2969,-3.3789 -2.2969,-5.9219 0,-2.5 0.75391,-4.4609 2.2656,-5.8906 1.5078,-1.4375 3.582,-2.1562 6.2188,-2.1562 2.4062,0 4.332,0.73047 5.7812,2.1875 1.4453,1.4492 2.1719,3.3828 2.1719,5.7969 z m -5.0312,-1.625 c 0,-0.92578 -0.27344,-1.6719 -0.8125,-2.2344 -0.54297,-0.57031 -1.25,-0.85938 -2.125,-0.85938 -0.94922,0 -1.7188,0.26562 -2.3125,0.79688 -0.5937,0.53126 -0.96484,1.2969 -1.1094,2.2969 z"
         id="path8" />
    </symbol>
    <symbol
       id="i"
       overflow="visible">
      <path
         d="m 9.2188,-6.8906 c -1.0234,0 -1.793,0.17188 -2.3125,0.51562 -0.51172,0.34375 -0.76562,0.85547 -0.76562,1.5312 0,0.625 0.20703,1.1172 0.625,1.4688 0.41406,0.34375 0.98828,0.51562 1.7188,0.51562 0.92578,0 1.7031,-0.32812 2.3281,-0.98438 0.63281,-0.66406 0.95312,-1.4922 0.95312,-2.4844 v -0.5625 z m 7.4688,-1.8438 V 0 h -4.9219 v -2.2656 c -0.65625,0.92969 -1.3984,1.6055 -2.2188,2.0312 -0.82422,0.41406 -1.8242,0.625 -3,0.625 -1.5859,0 -2.8711,-0.45703 -3.8594,-1.375 -0.99219,-0.92578 -1.4844,-2.1289 -1.4844,-3.6094 0,-1.7891 0.61328,-3.1016 1.8438,-3.9375 1.2383,-0.84375 3.1797,-1.2656 5.8281,-1.2656 h 2.8906 v -0.39062 c 0,-0.76953 -0.30859,-1.332 -0.92188,-1.6875 -0.61719,-0.36328 -1.5703,-0.54688 -2.8594,-0.54688 -1.0547,0 -2.0312,0.10547 -2.9375,0.3125 -0.89844,0.21094 -1.7305,0.52344 -2.5,0.9375 v -3.7344 c 1.0391,-0.25 2.0859,-0.44141 3.1406,-0.57812 1.0625,-0.13281 2.125,-0.20312 3.1875,-0.20312 2.7578,0 4.75,0.54688 5.9688,1.6406 1.2266,1.0859 1.8438,2.8555 1.8438,5.3125 z"
         id="path11" />
    </symbol>
    <symbol
       id="b"
       overflow="visible">
      <path
         d="m 7.7031,-19.656 v 4.3438 H 12.75 v 3.5 H 7.7031 v 6.5 c 0,0.71094 0.14062,1.1875 0.42188,1.4375 0.28126,0.25 0.83594,0.375 1.6719,0.375 h 2.5156 v 3.5 h -4.1875 c -1.9375,0 -3.3125,-0.39844 -4.125,-1.2031 -0.80469,-0.8125 -1.2031,-2.1797 -1.2031,-4.1094 v -6.5 h -2.4219 v -3.5 h 2.4219 v -4.3438 z"
         id="path14" />
    </symbol>
    <symbol
       id="h"
       overflow="visible">
      <path
         d="m 12.766,-13.078 v -8.2031 h 4.9219 V -10e-5 H 12.766 v -2.2188 c -0.66797,0.90625 -1.4062,1.5703 -2.2188,1.9844 -0.8126,0.4141 -1.7578,0.625 -2.8281,0.625 -1.8867,0 -3.4336,-0.75 -4.6406,-2.25 -1.2109,-1.5 -1.8125,-3.4258 -1.8125,-5.7812 0,-2.3633 0.60156,-4.2969 1.8125,-5.7969 1.207,-1.5 2.7539,-2.25 4.6406,-2.25 1.0625,0 2,0.21484 2.8125,0.64062 0.82031,0.42969 1.5664,1.0859 2.2344,1.9688 z m -3.2188,9.9219 c 1.0391,0 1.8359,-0.37891 2.3906,-1.1406 0.55078,-0.76953 0.82812,-1.8828 0.82812,-3.3438 0,-1.457 -0.27734,-2.5664 -0.82812,-3.3281 -0.55469,-0.76953 -1.3516,-1.1562 -2.3906,-1.1562 -1.043,0 -1.8398,0.38672 -2.3906,1.1562 -0.55469,0.76172 -0.82812,1.8711 -0.82812,3.3281 0,1.4609 0.27344,2.5742 0.82812,3.3438 0.55078,0.76172 1.3477,1.1406 2.3906,1.1406 z"
         id="path17" />
    </symbol>
    <symbol
       id="g"
       overflow="visible">
      <path
         d="m 10.5,-3.1562 c 1.0508,0 1.8516,-0.37891 2.4062,-1.1406 0.55078,-0.76953 0.82812,-1.8828 0.82812,-3.3438 0,-1.457 -0.27734,-2.5664 -0.82812,-3.3281 -0.55469,-0.76953 -1.3555,-1.1562 -2.4062,-1.1562 -1.0547,0 -1.8594,0.38672 -2.4219,1.1562 -0.55469,0.77344 -0.82812,1.8828 -0.82812,3.3281 0,1.4492 0.27344,2.5586 0.82812,3.3281 0.5625,0.77344 1.3672,1.1562 2.4219,1.1562 z m -3.25,-9.9219 c 0.67578,-0.88281 1.4219,-1.5391 2.2344,-1.9688 0.82031,-0.42578 1.7656,-0.64062 2.8281,-0.64062 1.8945,0 3.4453,0.75 4.6562,2.25 1.207,1.5 1.8125,3.4336 1.8125,5.7969 0,2.3555 -0.60547,4.2812 -1.8125,5.7812 -1.2109,1.5 -2.7617,2.25 -4.6562,2.25 -1.0625,0 -2.0078,-0.21094 -2.8281,-0.625 C 8.6719,-0.6602 7.9258,-1.32032 7.25,-2.21882 V -2e-5 H 2.3594 v -21.281 H 7.25 Z"
         id="path20" />
    </symbol>
    <symbol
       id="f"
       overflow="visible">
      <path
         d="m 0.34375,-15.312 h 4.8906 l 4.125,10.391 3.5,-10.391 h 4.8906 l -6.4375,16.766 c -0.64844,1.6953 -1.4023,2.8828 -2.2656,3.5625 -0.86719,0.6875 -2,1.0312 -3.4062,1.0312 H 2.79685 V 2.8289 h 1.5312 c 0.83203,0 1.4375,-0.13672 1.8125,-0.40625 C 6.52336,2.16093 6.82024,1.69218 7.03117,1.01645 L 7.17179,0.59457 Z"
         id="path23" />
    </symbol>
    <symbol
       id="e"
       overflow="visible">
      <path
         d="m 2.5781,-20.406 h 5.875 l 7.4219,14 v -14 h 4.9844 V 0 h -5.875 L 7.5625,-14 V 0 H 2.5781 Z"
         id="path26" />
    </symbol>
    <symbol
       id="t"
       overflow="visible">
      <path
         d="M 2.8594,-5.2969 H 7.7813 V 0 H 2.8594 Z"
         id="path29" />
    </symbol>
    <symbol
       id="s"
       overflow="visible">
      <path
         d="m 16.781,-19.766 v 4.3125 c -1.125,-0.5 -2.2266,-0.875 -3.2969,-1.125 -1.0625,-0.25781 -2.0703,-0.39062 -3.0156,-0.39062 -1.25,0 -2.1797,0.17969 -2.7812,0.53125 -0.60547,0.34375 -0.90625,0.88281 -0.90625,1.6094 0,0.54297 0.20312,0.96875 0.60938,1.2812 0.40625,0.30469 1.1406,0.5625 2.2031,0.78125 l 2.25,0.45312 c 2.2695,0.44922 3.8789,1.1406 4.8281,2.0781 0.95703,0.92969 1.4375,2.2461 1.4375,3.9531 0,2.25 -0.66797,3.9297 -2,5.0312 -1.3359,1.0938 -3.3711,1.6406 -6.1094,1.6406 -1.3047,0 -2.6055,-0.125 -3.9062,-0.375 -1.3047,-0.23828 -2.6055,-0.59766 -3.9062,-1.0781 v -4.4531 c 1.3008,0.69922 2.5625,1.2266 3.7812,1.5781 1.2188,0.34375 2.3906,0.51562 3.5156,0.51562 1.1562,0 2.0352,-0.1875 2.6406,-0.5625 0.61328,-0.38281 0.92188,-0.9375 0.92188,-1.6562 0,-0.63281 -0.21094,-1.125 -0.625,-1.4688 -0.41797,-0.34375 -1.2461,-0.65625 -2.4844,-0.9375 l -2.0312,-0.4375 c -2.043,-0.4375 -3.5391,-1.1328 -4.4844,-2.0938 -0.9375,-0.95703 -1.4062,-2.25 -1.4062,-3.875 0,-2.0312 0.65625,-3.5938 1.9688,-4.6875 1.31255,-1.0937 3.1953,-1.6406 5.6562,-1.6406 1.125,0 2.2734,0.08594 3.4531,0.25 1.1875,0.16797 2.4141,0.42188 3.6875,0.76562 z"
         id="path32" />
    </symbol>
    <symbol
       id="r"
       overflow="visible">
      <path
         d="M 2.3594,-21.281 H 7.25 V 0 H 2.3594 Z"
         id="path35" />
    </symbol>
    <symbol
       id="q"
       overflow="visible">
      <path
         d="m 12.422,-21.281 v 3.2188 H 9.7189 c -0.6875,0 -1.1719,0.125 -1.4531,0.375 -0.27344,0.25 -0.40625,0.6875 -0.40625,1.3125 v 1.0625 h 4.1875 v 3.5 H 7.85955 V -2e-4 h -4.8906 v -11.812 h -2.4375 v -3.5 h 2.4375 v -1.0625 c 0,-1.6641 0.46094,-2.8984 1.3906,-3.7031 0.92578,-0.80078 2.3672,-1.2031 4.3281,-1.2031 z"
         id="path38" />
    </symbol>
    <symbol
       id="d"
       overflow="visible">
      <path
         d="m 9.6406,-12.188 c -1.0859,0 -1.9141,0.39062 -2.4844,1.1719 -0.57422,0.78125 -0.85938,1.9062 -0.85938,3.375 0,1.4688 0.28516,2.5938 0.85938,3.375 0.57031,0.77344 1.3984,1.1562 2.4844,1.1562 1.0625,0 1.875,-0.38281 2.4375,-1.1562 0.57031,-0.78125 0.85938,-1.9062 0.85938,-3.375 0,-1.4688 -0.28906,-2.5938 -0.85938,-3.375 -0.5625,-0.78125 -1.375,-1.1719 -2.4375,-1.1719 z m 0,-3.5 c 2.6328,0 4.6914,0.71484 6.1719,2.1406 1.4766,1.418 2.2188,3.3867 2.2188,5.9062 0,2.5117 -0.74219,4.4805 -2.2188,5.9062 C 14.332,-0.317 12.2734,0.39 9.6406,0.39 6.9922,0.39 4.9258,-0.31703 3.4375,-1.735 1.9453,-3.1608 1.2031,-5.1295 1.2031,-7.6412 c 0,-2.5195 0.74219,-4.4883 2.2344,-5.9062 1.4883,-1.4258 3.5547,-2.1406 6.2031,-2.1406 z"
         id="path41" />
    </symbol>
    <symbol
       id="p"
       overflow="visible">
      <path
         d="m 16.547,-12.766 c 0.61328,-0.94531 1.3477,-1.6719 2.2031,-2.1719 0.85156,-0.5 1.7891,-0.75 2.8125,-0.75 1.7578,0 3.0977,0.54688 4.0156,1.6406 0.92578,1.0859 1.3906,2.6562 1.3906,4.7188 V -4e-4 h -4.9219 v -7.9844 -0.35938 c 0.0078,-0.13281 0.01563,-0.32031 0.01563,-0.5625 0,-1.082 -0.16406,-1.8633 -0.48438,-2.3438 -0.3125,-0.48828 -0.82422,-0.73438 -1.5312,-0.73438 -0.92969,0 -1.6484,0.38672 -2.1562,1.1562 -0.51172,0.76172 -0.77344,1.8672 -0.78125,3.3125 v 7.5156 h -4.9219 v -7.9844 c 0,-1.6953 -0.14844,-2.7852 -0.4375,-3.2656 -0.29297,-0.48828 -0.8125,-0.73438 -1.5625,-0.73438 -0.9375,0 -1.6641,0.38672 -2.1719,1.1562 -0.51172,0.76172 -0.76562,1.8594 -0.76562,3.2969 v 7.5312 h -4.9219 v -15.312 h 4.9219 v 2.2344 c 0.60156,-0.86328 1.2891,-1.5156 2.0625,-1.9531 0.78125,-0.4375 1.6406,-0.65625 2.5781,-0.65625 1.0625,0 2,0.25781 2.8125,0.76562 0.8125,0.51172 1.4258,1.2305 1.8438,2.1562 z"
         id="path44" />
    </symbol>
    <symbol
       id="o"
       overflow="visible">
      <path
         d="M 17.75,-9.3281 V 0 h -4.9219 v -7.1094 c 0,-1.3438 -0.03125,-2.2656 -0.09375,-2.7656 -0.0625,-0.5 -0.16797,-0.86719 -0.3125,-1.1094 -0.1875,-0.3125 -0.44922,-0.55469 -0.78125,-0.73438 -0.32422,-0.17578 -0.69531,-0.26562 -1.1094,-0.26562 -1.0234,0 -1.8242,0.39844 -2.4062,1.1875 -0.58594,0.78125 -0.875,1.8711 -0.875,3.2656 V -1e-4 H 2.3594 v -21.281 H 7.25 v 8.2031 c 0.73828,-0.88281 1.5195,-1.5391 2.3438,-1.9688 0.83203,-0.42578 1.75,-0.64062 2.75,-0.64062 1.7695,0 3.1133,0.54688 4.0312,1.6406 0.91406,1.0859 1.375,2.6562 1.375,4.7188 z"
         id="path47" />
    </symbol>
    <symbol
       id="n"
       overflow="visible">
      <path
         d="m 2.1875,-5.9688 v -9.3438 h 4.9219 v 1.5312 c 0,0.83594 -0.00781,1.875 -0.015625,3.125 -0.011719,1.25 -0.015625,2.0859 -0.015625,2.5 0,1.2422 0.03125,2.1328 0.09375,2.6719 0.070313,0.54297 0.17969,0.93359 0.32812,1.1719 0.20703,0.32422 0.47266,0.57422 0.79688,0.75 0.32031,0.16797 0.69141,0.25 1.1094,0.25 1.0195,0 1.8203,-0.39062 2.4062,-1.1719 0.58203,-0.78125 0.875,-1.8672 0.875,-3.2656 v -7.5625 h 4.8906 V -6e-4 H 12.6875 V -2.2194 C 11.94531,-1.32096 11.1641,-0.6608 10.3437,-0.235 9.51948,0.17906 8.6093,0.39 7.6093,0.39 5.8476,0.39 4.5038,-0.14906 3.5781,-1.235 2.64841,-2.317 2.1875,-3.8952 2.1875,-5.9694 Z"
         id="path50" />
    </symbol>
    <symbol
       id="m"
       overflow="visible">
      <path
         d="M 17.75,-9.3281 V 0 h -4.9219 v -7.1406 c 0,-1.3203 -0.03125,-2.2344 -0.09375,-2.7344 -0.0625,-0.5 -0.16797,-0.86719 -0.3125,-1.1094 -0.1875,-0.3125 -0.44922,-0.55469 -0.78125,-0.73438 -0.32422,-0.17578 -0.69531,-0.26562 -1.1094,-0.26562 -1.0234,0 -1.8242,0.39844 -2.4062,1.1875 -0.58594,0.78125 -0.875,1.8711 -0.875,3.2656 V -1e-4 H 2.3594 v -15.312 H 7.25 v 2.2344 c 0.73828,-0.88281 1.5195,-1.5391 2.3438,-1.9688 0.83203,-0.42578 1.75,-0.64062 2.75,-0.64062 1.7695,0 3.1133,0.54688 4.0312,1.6406 0.91406,1.0859 1.375,2.6562 1.375,4.7188 z"
         id="path53" />
    </symbol>
    <symbol
       id="l"
       overflow="visible">
      <path
         d="m 2.5781,-20.406 h 8.7344 c 2.5938,0 4.582,0.57812 5.9688,1.7344 1.3945,1.1484 2.0938,2.7891 2.0938,4.9219 0,2.1367 -0.69922,3.7812 -2.0938,4.9375 -1.3867,1.1562 -3.375,1.7344 -5.9688,1.7344 H 7.8281 V 3e-4 h -5.25 z m 5.25,3.8125 v 5.7031 H 10.75 c 1.0195,0 1.8047,-0.25 2.3594,-0.75 0.5625,-0.5 0.84375,-1.2031 0.84375,-2.1094 0,-0.91406 -0.28125,-1.6172 -0.84375,-2.1094 -0.55469,-0.48828 -1.3398,-0.73438 -2.3594,-0.73438 z"
         id="path56" />
    </symbol>
    <symbol
       id="k"
       overflow="visible">
      <path
         d="M 2.3594,-15.312 H 7.25 v 15.031 c 0,2.0508 -0.49609,3.6172 -1.4844,4.7031 -0.98047,1.082 -2.4062,1.625 -4.2812,1.625 H -0.9375 V 2.8283 h 0.85938 c 0.92578,0 1.5625,-0.21094 1.9062,-0.625 0.35156,-0.41797 0.53125,-1.2461 0.53125,-2.4844 z m 0,-5.9688 H 7.25 v 4 H 2.3594 Z"
         id="path59" />
    </symbol>
    <symbol
       id="j"
       overflow="visible">
      <path
         d="m 14.719,-14.828 v 3.9844 c -0.65625,-0.45703 -1.3242,-0.79688 -2,-1.0156 -0.66797,-0.21875 -1.3594,-0.32812 -2.0781,-0.32812 -1.3672,0 -2.4336,0.40234 -3.2031,1.2031 -0.76172,0.79297 -1.1406,1.9062 -1.1406,3.3438 0,1.4297 0.37891,2.543 1.1406,3.3438 0.76953,0.79297 1.8359,1.1875 3.2031,1.1875 0.75781,0 1.4844,-0.10938 2.1719,-0.32812 0.6875,-0.22656 1.3203,-0.56641 1.9062,-1.0156 v 4 c -0.76172,0.28125 -1.5391,0.48828 -2.3281,0.625 -0.78125,0.14453 -1.5742,0.21875 -2.375,0.21875 -2.7617,0 -4.9219,-0.70703 -6.4844,-2.125 -1.5547,-1.4141 -2.3281,-3.3828 -2.3281,-5.9062 0,-2.5312 0.77344,-4.5039 2.3281,-5.9219 1.5625,-1.4141 3.7227,-2.125 6.4844,-2.125 0.80078,0 1.5938,0.07422 2.375,0.21875 0.78125,0.13672 1.5547,0.35156 2.3281,0.64062 z"
         id="path62" />
    </symbol>
  </defs>
  <rect
     style="fill:#ffffff;fill-rule:evenodd;stroke-width:0.999997"
     id="rect947"
     width="423.35364"
     height="560.1333"
     x="-3.0517578e-05"
     y="0"
     inkscape:label="Hình nền" />
  <g
     id="g143"
     transform="translate(-138.32,0.133275)"
     style="display:inline">
    <path
       id="path71"
       style="display:inline;fill:none;stroke-width:1.33333"
       d="m 282.24,640.07623 c 0,0 0,0 0,0 v -0.005 0 c 0,0 0,0 0,0"
       transform="matrix(0.75,0,0,0.75,138.32,-0.133275)" />
  </g>
  <g
     inkscape:groupmode="layer"
     id="layer2"
     inkscape:label="Mặt trái"
     transform="translate(-138.32,0.133275)"
     style="display:inline">
    <path
       id="path1759"
       style="display:inline;fill:#12ed81;fill-opacity:1;stroke-width:1.33333"
       d="M 282.24,746.84437 0,584.07103 V 265.24437 c 0,-5.974 5.2292,-11.19787 11.197867,-11.19787 5.974,0 11.197866,5.2292 11.197866,11.19787 V 571.3777 l 259.839997,150.08 0.004,-0.002"
       transform="matrix(0.75,0,0,0.75,138.32,-0.133275)" />
    <path
       d="m 173.78971,245.02875 v 172.54717 l 149.06305,86.09676 0.076,-172.36516 z"
       id="path6814"
       style="display:none;fill:#fffafa;stroke:#ff0000;stroke-width:0.792596"
       sodipodi:nodetypes="ccccc"
       inkscape:label="Ô canh" />
    <g
       aria-label="Project Management"
       id="text8951"
       style="font-size:50px;line-height:1;font-family:'Roboto Slab';-inkscape-font-specification:'Roboto Slab';fill:#12ed81;fill-rule:evenodd;stroke-width:0.999997"
       inkscape:label="PM"
       inkscape:path-effect="#path-effect14271"
       transform="translate(-370.06836,-166.0989)">
      <path
         d="m 543.85807,477.69328 v -5.3755 l 1.91216,-0.089 2.7e-4,-48.9415 -1.91243,-2.30117 v -5.41997 l 1.91247,1.10634 5.93663,3.43427 c 1.22013,0.70584 2.26034,2.08996 3.12061,4.15236 0.86026,2.0339 1.51714,4.576 1.97064,7.62628 0.4535,3.05022 0.68016,6.43856 0.68001,10.165 -1.5e-4,3.75481 -0.22707,6.89482 -0.68075,9.42006 -0.45369,2.5252 -1.11067,4.30703 -1.97095,5.3455 -0.86029,1.03848 -1.90042,1.20497 -3.12042,0.49946 l -3.62489,-2.09623 -2.3e-4,18.34577 1.91205,2.30006 -10e-5,5.37526 z m 4.22343,-29.04489 3.62496,2.0964 c 1.15746,0.66939 2.02166,0.0456 2.59263,-1.87138 0.57879,-1.94091 0.86824,-4.63233 0.86836,-8.0743 1.1e-4,-3.44203 -0.28916,-6.48256 -0.86783,-9.12159 -0.57087,-2.63455 -1.43506,-4.28663 -2.5926,-4.95621 l -3.62522,-2.09702 z"
         style="stroke-width:1"
         id="path14100"
         inkscape:original-d="m 544.78876,492.98154 v -3.07618 l 3.97949,-0.68359 v -28.00293 l -3.97949,-0.68359 v -3.10059 h 3.97949 12.35352 q 3.80859,0 6.49414,1.34278 2.68554,1.31835 4.10156,3.71093 1.41601,2.39258 1.41601,5.59082 0,3.22266 -1.41601,5.61524 -1.41602,2.39258 -4.10156,3.71093 -2.68555,1.31836 -6.49414,1.31836 h -7.54395 v 10.49805 l 3.97949,0.68359 v 3.07618 z m 8.78906,-18.01758 h 7.54395 q 3.61328,0 5.3955,-1.92871 1.80664,-1.95313 1.80664,-4.90723 0,-2.9541 -1.80664,-4.93164 -1.78222,-1.97754 -5.3955,-1.97754 h -7.54395 z" />
      <path
         d="m 558.96628,486.42817 2.4e-4,-5.37492 1.9119,-0.089 0.002,-32.97816 -1.91198,-2.30054 2.4e-4,-5.41888 3.9766,2.30008 0.19908,6.00338 0.0234,0.82422 c 0.35985,-2.15282 0.80179,-3.74616 1.3258,-4.78002 0.53184,-1.02933 1.13793,-1.34724 1.81825,-0.95374 0.24242,0.14022 0.48874,0.36802 0.73896,0.68342 0.25804,0.29148 0.44179,0.53999 0.55126,0.74554 l -0.30551,7.6314 -1.60691,-1.2707 c -0.60993,-0.49499 -1.12215,-0.27924 -1.53667,0.64724 -0.41452,0.89803 -0.73522,2.24854 -0.96211,4.05152 l -0.001,26.15119 1.91169,2.29975 -3.4e-4,5.37469 z"
         style="stroke-width:1"
         id="path14102"
         inkscape:original-d="m 576.23407,492.98154 v -3.07618 l 3.97949,-0.68359 V 470.3497 l -3.97949,-0.68359 v -3.10059 h 8.27637 l 0.41504,3.36914 0.0488,0.46387 q 1.12305,-2.02637 2.75879,-3.17383 1.66016,-1.14746 3.78418,-1.14746 0.75684,0 1.53809,0.14648 0.80566,0.12207 1.14746,0.24414 l -0.63477,4.46778 -3.34472,-0.19531 q -1.9043,-0.12207 -3.19824,0.8789 -1.29395,0.97656 -2.00196,2.63672 v 14.96582 l 3.97949,0.68359 v 3.07618 z" />
      <path
         d="m 574.50586,496.3082 c -1.17271,-0.67801 -2.18508,-2.2586 -3.0371,-4.7418 -0.84423,-2.50718 -1.49686,-5.65724 -1.95789,-9.45021 -0.46104,-3.82151 -0.6914,-8.00743 -0.69106,-12.55777 l 7e-5,-0.93853 c 3.3e-4,-4.55049 0.2313,-8.45575 0.6929,-11.71574 0.46161,-3.28846 1.11474,-5.69822 1.95939,-7.22924 0.85248,-1.52649 1.85734,-1.95506 3.01458,-1.28571 1.17286,0.67839 2.18141,2.27151 3.02565,4.77933 0.85204,2.51228 1.50853,5.66514 1.96945,9.45854 0.46091,3.7933 0.69111,7.97924 0.69062,12.55781 l -10e-5,0.93845 c -4.9e-4,4.57841 -0.23156,8.51149 -0.69319,11.7993 -0.46162,3.25931 -1.11469,5.64009 -1.95922,7.14237 -0.84452,1.50227 -1.84922,1.91667 -3.0141,1.2432 z m 6e-4,-6.56859 c 0.7349,0.42491 1.34869,0.0546 1.84137,-1.11082 0.5005,-1.18936 0.87596,-2.97714 1.12639,-5.36334 0.25826,-2.41015 0.38755,-5.23617 0.38787,-8.4781 l 1e-4,-0.93846 c 3.2e-4,-3.242 -0.12839,-6.20318 -0.38615,-8.88353 -0.24994,-2.7043 -0.62504,-4.92642 -1.1253,-6.66632 -0.50026,-1.76836 -1.12179,-2.86736 -1.86459,-3.29697 -0.73499,-0.4251 -1.35276,-0.0429 -1.85331,1.14669 -0.50054,1.16111 -0.87603,2.94918 -1.12645,5.36418 -0.25041,2.38655 -0.37575,5.20092 -0.37601,8.44307 l -7e-5,0.93851 c -2.7e-4,3.24208 0.1246,6.21517 0.37459,8.91929 0.24999,2.67563 0.62511,4.89746 1.12536,6.6655 0.50807,1.7441 1.13347,2.83086 1.8762,3.2603 z"
         style="stroke-width:1"
         id="path14104"
         inkscape:original-d="m 608.5827,493.49423 q -3.66211,0 -6.32324,-1.70898 -2.63672,-1.7334 -4.07715,-4.76074 -1.44043,-3.05176 -1.44043,-6.95801 v -0.53711 q 0,-3.90625 1.44043,-6.9336 1.44043,-3.05175 4.07715,-4.78515 2.66113,-1.7334 6.27441,-1.7334 3.66211,0 6.29883,1.7334 2.66114,1.7334 4.10157,4.76074 1.44042,3.02734 1.44042,6.95801 v 0.53711 q 0,3.93066 -1.44042,6.98242 -1.44043,3.02734 -4.07715,4.73633 -2.63672,1.70898 -6.27442,1.70898 z m 0,-3.75976 q 2.29492,0 3.83301,-1.24512 1.5625,-1.26953 2.34375,-3.44238 0.80566,-2.19727 0.80566,-4.98047 v -0.53711 q 0,-2.7832 -0.80566,-4.95606 -0.78125,-2.19726 -2.34375,-3.44238 -1.5625,-1.26953 -3.88184,-1.26953 -2.29492,0 -3.85742,1.26953 -1.5625,1.24512 -2.34375,3.44238 -0.78125,2.17286 -0.78125,4.95606 v 0.53711 q 0,2.7832 0.78125,4.98047 0.78125,2.17285 2.34375,3.44238 1.58692,1.24512 3.90625,1.24512 z" />
      <path
         d="m 581.73918,518.23285 c -0.25014,-0.1446 -0.47683,-0.34672 -0.68006,-0.60636 -0.20323,-0.23114 -0.41427,-0.53795 -0.63313,-0.92041 l 0.15314,-6.30895 c 0.10942,0.20543 0.29311,0.43957 0.55107,0.70243 0.26577,0.26743 0.46901,0.44181 0.60972,0.52315 0.46121,0.26663 0.82479,-0.26246 1.09074,-1.58725 0.27377,-1.29186 0.4108,-3.21724 0.4111,-5.77616 l 0.005,-43.33705 -1.91144,-2.30009 6e-4,-5.41802 4.22191,2.44197 -0.006,49.94858 c -5.8e-4,4.74811 -0.33716,8.2072 -1.00972,10.37734 -0.67256,2.19856 -1.60683,2.95217 -2.80282,2.26082 z m 1.39245,-75.3819 0.001,-9.00246 2.42772,1.40447 -0.001,9.0023 z"
         style="stroke-width:1"
         id="path14106"
         inkscape:original-d="m 623.64618,503.65048 q -0.78125,0 -1.41602,-0.12207 -0.63476,-0.0976 -1.31836,-0.31738 l 0.31739,-3.66211 q 0.34179,0.12207 1.14746,0.21973 0.83008,0.0977 1.26953,0.0977 1.44043,0 2.27051,-1.26953 0.85449,-1.24512 0.85449,-3.44238 V 470.3497 l -3.97949,-0.68359 v -3.10059 h 8.78906 v 28.58887 q 0,4.07715 -2.09961,6.27441 -2.09961,2.22168 -5.83496,2.22168 z m 2.88086,-43.60351 v -5.15137 h 5.05371 v 5.15137 z" />
      <path
         d="m 593.88865,507.51435 c -1.17247,-0.67786 -2.19239,-2.23427 -3.05977,-4.66928 -0.8674,-2.46349 -1.53928,-5.56752 -2.01566,-9.31213 -0.46857,-3.74018 -0.70256,-7.88512 -0.70196,-12.43483 l 2.4e-4,-1.87678 c 5.8e-4,-4.37926 0.24734,-8.147 0.74031,-11.30316 0.50079,-3.18012 1.16176,-5.52818 1.9829,-7.04414 0.82895,-1.53989 1.73203,-2.02722 2.70923,-1.462 1.14135,0.66016 2.09495,2.06496 2.86078,4.21437 0.77363,2.15389 1.35562,4.89369 1.74598,8.21936 0.39035,3.29717 0.58518,7.03573 0.5845,11.21568 l -8.5e-4,5.24611 -8.23114,-4.75981 -0.0352,0.19293 c 0.0152,2.96629 0.15556,5.67786 0.42103,8.13472 0.27328,2.43289 0.66387,4.45018 1.17177,6.05187 0.5079,1.60168 1.11751,2.60815 1.82882,3.01942 0.78165,0.45194 1.46565,0.44933 2.052,-0.008 0.59418,-0.48106 1.10632,-1.3081 1.53645,-2.48113 l 0.9019,5.98085 c -0.45359,1.33003 -1.05565,2.33253 -1.80618,3.00751 -0.74271,0.65106 -1.63776,0.67381 -2.68515,0.0683 z m -3.31418,-30.49464 5.8511,3.38371 1.7e-4,-1.10899 c 3.4e-4,-2.21797 -0.10879,-4.25757 -0.3274,-6.11878 -0.21079,-1.88514 -0.53108,-3.4497 -0.96087,-4.69367 -0.42198,-1.2679 -0.95348,-2.08723 -1.5945,-2.45798 -0.51595,-0.29841 -0.98507,-0.0152 -1.40738,0.84979 -0.42229,0.83648 -0.77038,2.11406 -1.04425,3.8327 -0.27388,1.71863 -0.45397,3.74743 -0.54029,6.08639 z"
         style="stroke-width:1"
         id="path14108"
         inkscape:original-d="m 648.93915,493.49423 q -3.66211,0 -6.37207,-1.66015 -2.70996,-1.68457 -4.19922,-4.66309 -1.46484,-2.97852 -1.46484,-6.88477 v -1.07421 q 0,-3.75977 1.53808,-6.71387 1.5625,-2.97852 4.12598,-4.6875 2.58789,-1.7334 5.63965,-1.7334 3.56445,0 5.95703,1.46484 2.41699,1.46485 3.63769,4.12598 1.22071,2.63672 1.22071,6.22559 v 3.00293 h -17.13868 l -0.0732,0.12207 q 0.0488,2.53906 0.87891,4.5166 0.85449,1.95312 2.4414,3.07617 1.58692,1.12305 3.8086,1.12305 2.4414,0 4.27246,-0.6836 1.85547,-0.70801 3.19824,-1.92871 l 1.87988,3.125 q -1.41601,1.36719 -3.75976,2.31934 -2.31934,0.92773 -5.59082,0.92773 z m -6.90918,-16.35742 h 12.18262 v -0.63477 q 0,-1.90429 -0.6836,-3.39355 -0.65918,-1.51367 -2.00195,-2.36816 -1.31836,-0.87891 -3.32031,-0.87891 -1.61133,0 -2.92969,0.95215 -1.31836,0.92773 -2.17285,2.53906 -0.8545,1.61133 -1.12305,3.66211 z" />
      <path
         d="m 606.7262,514.93639 c -1.14886,-0.66422 -2.14907,-2.20917 -3.00062,-4.63488 -0.85157,-2.45421 -1.51154,-5.55117 -1.9799,-9.2909 -0.46837,-3.73983 -0.70217,-7.88438 -0.7014,-12.43367 l 3e-4,-1.79132 c 7.4e-4,-4.37885 0.22808,-8.17176 0.68203,-11.37869 0.45396,-3.20696 1.10713,-5.57356 1.9595,-7.09977 0.85236,-1.5262 1.8687,-1.94796 3.04899,-1.26527 1.02395,0.59226 1.9188,1.72128 2.68455,3.38707 0.77356,1.67029 1.42195,3.72317 1.9452,6.15864 l 0.0564,11.12297 -1.80542,-1.0441 -0.39705,-8.29146 c -0.26555,-1.1489 -0.59759,-2.1372 -0.99609,-2.96488 -0.39851,-0.82768 -0.86743,-1.39749 -1.40675,-1.70942 -0.68783,-0.39782 -1.29373,-0.009 -1.8177,1.1669 -0.51615,1.18027 -0.91904,2.9237 -1.20869,5.23028 -0.28964,2.30654 -0.43472,4.98101 -0.43526,8.0234 l -3.1e-4,1.79129 c -5.9e-4,3.35506 0.13176,6.34619 0.39707,8.97342 0.27311,2.63169 0.65965,4.77446 1.15961,6.42835 0.50778,1.62994 1.10945,2.64599 1.80503,3.04817 0.78155,0.45188 1.43037,0.0451 1.94649,-1.22027 0.51611,-1.26538 0.83305,-3.22881 0.95081,-5.89033 l 2.07497,1.19982 0.0234,0.26941 c -0.0396,2.62137 -0.25502,4.97046 -0.64623,7.04728 -0.39121,2.0768 -0.95036,3.61579 -1.67744,4.61699 -0.71927,0.97729 -1.60643,1.16094 -2.66149,0.55096 z"
         style="stroke-width:1"
         id="path14110"
         inkscape:original-d="m 675.67255,493.49423 q -3.58887,0 -6.25,-1.66015 -2.66114,-1.68457 -4.12598,-4.66309 -1.46484,-2.97852 -1.46484,-6.88477 v -1.02539 q 0,-3.75976 1.41601,-6.73828 1.41602,-2.97851 4.07715,-4.71191 2.66113,-1.7334 6.34766,-1.7334 3.19824,0 5.59082,1.0498 2.41699,1.04981 4.05273,2.88086 l 0.12207,6.34766 h -3.75976 l -0.83008,-4.61426 q -0.83008,-0.85449 -2.0752,-1.36719 -1.24511,-0.51269 -2.92969,-0.51269 -2.14843,0 -3.78417,1.26953 -1.61133,1.26953 -2.51465,3.39356 -0.90332,2.12402 -0.90332,4.73632 v 1.02539 q 0,2.88086 0.83007,5.00489 0.8545,2.12402 2.417,3.2959 1.58691,1.14746 3.75976,1.14746 2.44141,0 4.05274,-1.34278 1.61132,-1.34277 1.97754,-3.68652 h 4.32128 l 0.0488,0.14648 q -0.12207,2.27051 -1.34277,4.24805 -1.2207,1.97754 -3.49121,3.19824 -2.2461,1.19629 -5.54199,1.19629 z" />
      <path
         d="m 617.97962,521.27199 c -0.93773,-0.54215 -1.6838,-1.96855 -2.23822,-4.27923 -0.5466,-2.33462 -0.81944,-5.70512 -0.81851,-10.11155 l 0.006,-28.01906 -2.00472,-1.15946 0.001,-6.22717 2.00476,1.15955 0.002,-11.13255 2.3096,1.33601 -0.002,11.13237 2.75493,1.59346 -0.001,6.22686 -2.75488,-1.59334 -0.006,28.0186 c -4.8e-4,2.21741 0.12029,3.92205 0.36232,5.11395 0.24202,1.19188 0.56621,1.90529 0.97256,2.14024 0.27351,0.15814 0.57829,0.24907 0.91435,0.27279 0.33606,-0.005 0.59788,-0.0239 0.78546,-0.0576 l 0.31523,5.68349 c -0.3361,0.17526 -0.75032,0.26272 -1.24268,0.26237 -0.48455,0.004 -0.93782,-0.11576 -1.35979,-0.35972 z"
         style="stroke-width:1"
         id="path14112"
         inkscape:original-d="m 699.11005,493.39658 q -2.92969,0 -4.66309,-1.70899 -1.70898,-1.7334 -1.70898,-5.51758 v -16.04004 h -4.17481 v -3.56445 h 4.17481 v -6.37207 h 4.80957 v 6.37207 h 5.7373 v 3.56445 h -5.7373 v 16.04004 q 0,1.9043 0.75683,2.80762 0.75684,0.90332 2.02637,0.90332 0.85449,0 1.9043,-0.14648 1.0498,-0.1709 1.63574,-0.29297 l 0.65918,3.14941 q -1.04981,0.31738 -2.58789,0.56153 -1.51367,0.24414 -2.83203,0.24414 z" />
      <path
         d="m 544.01053,565.13032 0,-5.37272 1.91167,-0.0895 2.9e-4,-48.91616 -1.91193,-2.29938 0,-5.41716 1.91197,1.10516 3.08489,1.78312 5.49945,50.30387 0.0704,0.0406 5.32617,-44.04643 5.14847,2.97591 -3.4e-4,5.41636 -1.91162,0.0893 -0.003,48.91021 1.91119,2.29795 -3.3e-4,5.37192 -6.13251,-3.54266 2.4e-4,-5.37215 2.01695,-0.0286 9.1e-4,-17.99349 0.001,-26.05561 -0.0586,-0.0765 -5.54893,45.23642 -1.53618,-0.88745 -5.73395,-51.67254 -0.0586,0.009 0.0818,26.02012 -2.2e-4,17.99513 2.06401,2.38633 -10e-5,5.37248 z"
         style="stroke-width:1"
         id="path14114"
         inkscape:original-d="m 545.10614,542.98154 v -3.07618 l 3.97949,-0.68359 v -28.00293 l -3.97949,-0.68359 v -3.10059 h 3.97949 6.4209 l 11.4502,26.97754 h 0.14648 l 11.08398,-26.97754 h 10.71778 v 3.10059 l -3.97949,0.68359 v 28.00293 l 3.97949,0.68359 v 3.07618 h -12.76856 v -3.07618 l 4.19922,-0.68359 v -10.30273 -14.917 l -0.12207,-0.0244 -11.54785,27.73438 h -3.19824 l -11.93848,-27.68555 -0.12207,0.0244 0.1709,14.86817 v 10.30273 l 4.29687,0.68359 v 3.07618 z" />
      <path
         d="m 571.12137,581.68717 c -1.32096,-0.76309 -2.32528,-2.5086 -3.01297,-5.23656 -0.6877,-2.75645 -1.03141,-6.26643 -1.03112,-10.52998 2e-4,-2.9277 0.21925,-5.34524 0.65716,-7.2526 0.44573,-1.93131 1.08685,-3.25225 1.92336,-3.96283 0.83652,-0.73899 1.83713,-0.77198 3.00184,-0.099 l 2.26294,1.3076 4.2e-4,-4.51962 c 2.6e-4,-2.78573 -0.23405,-5.08165 -0.70292,-6.88773 -0.46107,-1.80158 -1.11372,-2.94633 -1.95797,-3.43422 -0.53157,-0.3072 -0.99281,-0.3321 -1.38371,-0.0747 -0.3909,0.22895 -0.74664,0.66303 -1.06721,1.30222 l -0.24673,6.29645 -1.78233,-1.02993 7.4e-4,-10.57517 c 0.57081,-1.3475 1.23539,-2.22856 1.99376,-2.64318 0.75836,-0.44307 1.59876,-0.39804 2.52121,0.13508 1.53999,0.89002 2.74761,2.92414 3.62286,6.10231 0.87523,3.17809 1.3126,7.2544 1.3121,12.22887 l -0.002,22.21281 -1.7e-4,1.74791 c 0.008,0.57293 0.0194,1.14812 0.035,1.72556 l 1.23096,1.1801 -5.5e-4,5.37141 -3.31782,-1.91666 c -0.0702,-1.29114 -0.12484,-2.44536 -0.16383,-3.46266 -0.039,-1.01732 -0.0662,-2.02787 -0.0818,-3.03164 -0.4457,1.81737 -1.00471,3.22821 -1.67702,4.23251 -0.66449,0.98039 -1.37583,1.2516 -2.13401,0.81361 z m 0.34059,-6.83789 c 0.766,0.44254 1.46562,0.17877 2.09886,-0.79128 0.63324,-0.97006 1.08673,-2.314 1.36047,-4.03182 l 7.7e-4,-8.35641 -2.34498,-1.35493 c -1.06308,-0.61425 -1.86046,-0.15114 -2.39215,1.38933 -0.53169,1.54046 -0.79762,3.44765 -0.79779,5.72155 -1.5e-4,2.01806 0.1717,3.66646 0.51555,4.94522 0.34385,1.25033 0.8636,2.07644 1.55927,2.47834 z"
         style="stroke-width:1"
         id="path14116"
         inkscape:original-d="m 601.55145,543.49423 q -4.12597,0 -6.27441,-2.00195 -2.14844,-2.02637 -2.14844,-5.68848 0,-2.51465 1.36719,-4.37011 1.3916,-1.87989 4.0039,-2.90528 2.61231,-1.0498 6.25,-1.0498 h 4.71192 v -2.58789 q 0,-2.39258 -1.46484,-3.71094 -1.44043,-1.31836 -4.07715,-1.31836 -1.66016,0 -2.88086,0.41504 -1.22071,0.39062 -2.22168,1.09863 l -0.5127,3.68652 h -3.71094 v -6.05468 q 1.78223,-1.44043 4.1504,-2.17285 2.36816,-0.75684 5.24902,-0.75684 4.80957,0 7.54394,2.29492 2.73438,2.29492 2.73438,6.56738 v 12.71973 q 0,0.5127 0,1.00098 0.0244,0.48828 0.0732,0.97656 l 2.56348,0.26855 v 3.07618 h -6.90918 q -0.21973,-1.07422 -0.3418,-1.92871 -0.12207,-0.8545 -0.1709,-1.70899 -1.3916,1.78223 -3.49121,2.97852 -2.07519,1.17187 -4.44336,1.17187 z m 0.70801,-4.02832 q 2.39258,0 4.37012,-1.14746 1.97754,-1.14746 2.83203,-2.75879 v -4.78515 h -4.88281 q -3.32032,0 -4.98047,1.58691 -1.66016,1.58691 -1.66016,3.54004 0,1.7334 1.07422,2.66113 1.07422,0.90332 3.24707,0.90332 z" />
      <path
         d="m 580.28953,586.08819 5.8e-4,-5.37133 1.91104,-0.0897 0.004,-32.95615 -1.91097,-2.29831 5.8e-4,-5.41526 3.97466,2.29709 0.16332,6.95965 c 0.42236,-2.20065 0.95018,-3.78604 1.58345,-4.75617 0.6411,-0.99402 1.36808,-1.25613 2.18094,-0.78635 1.36778,0.7905 2.42662,2.86644 3.17652,6.22778 0.74988,3.33283 1.12437,8.04047 1.1235,14.12282 l -0.003,22.5511 1.91048,2.29735 -8e-4,5.3708 -6.13056,-3.54154 7e-4,-5.37103 1.91091,-0.0897 0.003,-22.38093 c 5.6e-4,-4.06441 -0.22179,-7.07807 -0.66705,-9.04093 -0.43745,-1.95836 -1.10949,-3.19952 -2.01613,-3.72347 -0.66435,-0.38393 -1.25453,-0.14224 -1.77053,0.72506 -0.50818,0.87181 -0.9148,2.2287 -1.21987,4.07067 l -0.003,27.07174 1.91068,2.29752 -6.8e-4,5.3711 z"
         style="stroke-width:1"
         id="path14118"
         inkscape:original-d="m 620.64325,542.98154 v -3.07618 l 3.97949,-0.68359 V 520.3497 l -3.97949,-0.68359 v -3.10059 h 8.27637 l 0.34179,3.93067 q 1.31836,-2.09961 3.2959,-3.24708 2.00196,-1.17187 4.54102,-1.17187 4.27246,0 6.61621,2.51465 2.34375,2.49023 2.34375,7.71484 v 12.91504 l 3.97949,0.68359 v 3.07618 h -12.76855 v -3.07618 l 3.97949,-0.68359 v -12.81738 q 0,-3.49121 -1.3916,-4.95606 -1.36719,-1.46484 -4.19922,-1.46484 -2.0752,0 -3.68653,1.00098 -1.58691,1.00097 -2.53906,2.73437 v 15.50293 l 3.97949,0.68359 v 3.07618 z" />
      <path
         d="m 600.13484,598.44771 c -1.32055,-0.76286 -2.32447,-2.50795 -3.01174,-5.23531 -0.68729,-2.75584 -1.0306,-6.26507 -1.02994,-10.52774 4.5e-4,-2.9271 0.21965,-5.34416 0.6576,-7.25116 0.44578,-1.93094 1.08685,-3.25165 1.9232,-3.96213 0.83636,-0.73889 1.83672,-0.77194 3.00107,-0.0991 l 2.26223,1.30719 8e-4,-4.51868 c 5e-4,-2.78517 -0.23355,-5.0806 -0.70214,-6.88627 -0.46079,-1.80119 -1.11318,-2.94567 -1.95717,-3.43341 -0.5314,-0.3071 -0.99251,-0.33196 -1.38333,-0.0746 -0.39082,0.22894 -0.7465,0.66295 -1.06704,1.30202 l -0.24721,6.29518 -1.78178,-1.02961 0.002,-10.573 c 0.57077,-1.34725 1.23525,-2.22818 1.99345,-2.64277 0.7582,-0.44301 1.59838,-0.39804 2.52054,0.13491 1.53952,0.88974 2.74665,2.92337 3.6214,6.10084 0.87472,3.17738 1.31162,7.25282 1.3107,12.22627 l -0.004,22.20824 -3.2e-4,1.74756 c 0.008,0.57281 0.0193,1.14789 0.0349,1.72523 l 1.23052,1.17978 -0.001,5.37031 -3.31679,-1.91607 c -0.0701,-1.29086 -0.12459,-2.44484 -0.16348,-3.46193 -0.0389,-1.01711 -0.0661,-2.02745 -0.0815,-3.03101 -0.44575,1.81702 -1.00473,3.2276 -1.67695,4.23174 -0.66441,0.98023 -1.37558,1.25142 -2.13352,0.81357 z m 0.34108,-6.83651 c 0.76577,0.4424 1.46522,0.17865 2.09838,-0.79125 0.63315,-0.9699 1.08664,-2.31359 1.36045,-4.03108 l 0.001,-8.35469 -2.34424,-1.3545 c -1.06275,-0.61406 -1.85997,-0.15099 -2.39165,1.38919 -0.53168,1.54017 -0.7977,3.44699 -0.79806,5.72042 -3.3e-4,2.01765 0.17133,3.6657 0.51498,4.94418 0.34365,1.25005 0.8632,2.07596 1.55865,2.47773 z"
         style="stroke-width:1"
         id="path14120"
         inkscape:original-d="m 661.97626,543.49423 q -4.12598,0 -6.27442,-2.00195 -2.14843,-2.02637 -2.14843,-5.68848 0,-2.51465 1.36718,-4.37011 1.3916,-1.87989 4.00391,-2.90528 2.6123,-1.0498 6.25,-1.0498 h 4.71191 v -2.58789 q 0,-2.39258 -1.46484,-3.71094 -1.44043,-1.31836 -4.07715,-1.31836 -1.66015,0 -2.88086,0.41504 -1.2207,0.39062 -2.22168,1.09863 l -0.51269,3.68652 h -3.71094 v -6.05468 q 1.78223,-1.44043 4.15039,-2.17285 2.36816,-0.75684 5.24902,-0.75684 4.80957,0 7.54395,2.29492 2.73437,2.29492 2.73437,6.56738 v 12.71973 q 0,0.5127 0,1.00098 0.0244,0.48828 0.0733,0.97656 l 2.56347,0.26855 v 3.07618 h -6.90918 q -0.21972,-1.07422 -0.34179,-1.92871 -0.12207,-0.8545 -0.1709,-1.70899 -1.3916,1.78223 -3.49121,2.97852 -2.0752,1.17187 -4.44336,1.17187 z m 0.70801,-4.02832 q 2.39257,0 4.37011,-1.14746 1.97754,-1.14746 2.83203,-2.75879 v -4.78515 h -4.88281 q -3.32031,0 -4.98047,1.58691 -1.66015,1.58691 -1.66015,3.54004 0,1.7334 1.07421,2.66113 1.07422,0.90332 3.24708,0.90332 z" />
      <path
         d="m 614.86298,624.68627 c -0.60936,-0.35195 -1.26943,-1.04574 -1.98023,-2.08138 -0.71081,-1.00722 -1.33564,-2.19211 -1.8745,-3.55466 l 0.59897,-6.1751 c 0.42953,1.07213 0.93721,2.04733 1.52304,2.9256 0.58583,0.87826 1.15609,1.47759 1.71077,1.79799 1.03122,0.59566 1.78533,-0.02 2.26234,-1.84714 0.48481,-1.82259 0.72765,-4.68005 0.7285,-8.57242 l 9.6e-4,-4.38968 c -0.41448,1.69284 -0.91089,2.86948 -1.48923,3.52992 -0.57834,0.66044 -1.24252,0.77403 -1.99253,0.34076 -1.03128,-0.59575 -1.92175,-2.03368 -2.67142,-4.31381 -0.74967,-2.30859 -1.32733,-5.24249 -1.73296,-8.80173 -0.39783,-3.5832 -0.59632,-7.57708 -0.59547,-11.98166 l 1.7e-4,-0.89514 c 9.6e-4,-4.94466 0.20105,-9.16332 0.60029,-12.65591 0.40705,-3.48814 0.98585,-6.0386 1.73639,-7.65133 0.75056,-1.64117 1.64937,-2.15919 2.69642,-1.55406 0.797,0.46062 1.4962,1.43318 2.0976,2.91768 0.6014,1.48448 1.10501,3.42403 1.51083,5.81865 l 0.21223,-5.67553 1.94553,1.12438 -0.0103,45.52108 c -9e-4,3.97754 -0.20869,7.2814 -0.62337,9.91164 -0.40687,2.63471 -1.00497,4.49124 -1.79432,5.56959 -0.78155,1.11126 -1.73479,1.34202 -2.85974,0.69226 z m 0.0638,-24.51344 c 0.69533,0.40171 1.2775,0.16971 1.7465,-0.696 0.46901,-0.89413 0.8561,-2.30448 1.16125,-4.23105 l 0.005,-21.22643 c -0.29647,-2.13238 -0.68289,-3.90466 -1.15926,-5.31681 -0.47637,-1.4406 -1.05053,-2.35507 -1.7225,-2.7434 -0.73448,-0.42446 -1.34801,-0.0116 -1.84058,1.23855 -0.48476,1.25467 -0.84853,3.1619 -1.09129,5.72166 -0.24276,2.53133 -0.36449,5.55886 -0.3652,9.08256 l -1.8e-4,0.89513 c -9.3e-4,4.63182 0.26788,8.50998 0.80642,11.63451 0.53852,3.12445 1.35859,5.00487 2.4602,5.64128 z m 4.87081,-30.52125 -0.9009,-7.38462 2.82449,1.63236 -0.001,5.37104 z"
         style="stroke-width:1"
         id="path14122"
         inkscape:original-d="m 692.66473,553.65048 q -1.90429,0 -4.12597,-0.53711 -2.22168,-0.51269 -3.90625,-1.41601 l 1.24511,-3.73535 q 1.34278,0.708 3.17383,1.17187 1.83106,0.46387 3.56446,0.46387 3.22265,0 4.71191,-1.80664 1.51367,-1.80664 1.51367,-5.15137 v -2.51465 q -1.29394,1.66016 -3.10058,2.51465 -1.80664,0.85449 -4.15039,0.85449 -3.22266,0 -5.56641,-1.58691 -2.34375,-1.61133 -3.61328,-4.46778 -1.24512,-2.88085 -1.24512,-6.66503 v -0.5127 q 0,-4.24805 1.24512,-7.44629 1.26953,-3.19824 3.61328,-4.95605 2.34375,-1.78223 5.61523,-1.78223 2.49024,0 4.37012,0.97656 1.87988,0.97656 3.14941,2.83203 l 0.43946,-3.32031 h 4.05273 v 26.07422 q 0,3.41797 -1.29394,5.88379 -1.26953,2.46582 -3.73535,3.78418 -2.44141,1.34277 -5.95704,1.34277 z m 0.12207,-14.0625 q 2.17286,0 3.6377,-0.97656 1.46484,-1.00098 2.41699,-2.80762 v -12.1582 q -0.92773,-1.68457 -2.41699,-2.66113 -1.48926,-1.00098 -3.58887,-1.00098 -2.29492,0 -3.83301,1.31836 -1.51367,1.31836 -2.2705,3.63769 -0.75684,2.29493 -0.75684,5.32227 v 0.5127 q 0,3.97949 1.68457,6.39648 1.68457,2.41699 5.12695,2.41699 z m 10.13184,-19.09179 -1.87988,-3.93067 h 5.88379 v 3.07617 z" />
      <path
         d="m 628.57684,614.87813 c -1.17173,-0.67689 -2.1909,-2.23172 -3.05754,-4.66453 -0.86664,-2.46127 -1.53783,-5.56268 -2.01355,-9.30424 -0.46792,-3.73716 -0.70135,-7.87885 -0.70029,-12.42509 l 4.4e-4,-1.87535 c 0.001,-4.37593 0.24803,-8.14089 0.74104,-11.29483 0.50084,-3.1779 1.16167,-5.52443 1.98249,-7.03956 0.82864,-1.53904 1.73126,-2.02636 2.70784,-1.46195 1.14063,0.65921 2.09354,2.06257 2.85871,4.21003 0.77297,2.15196 1.35435,4.88944 1.74414,8.21242 0.38978,3.2945 0.58412,7.03014 0.58301,11.2069 l -0.001,5.24212 -8.22594,-4.75295 -0.0352,0.1928 c 0.0149,2.96402 0.15489,5.67347 0.41996,8.12835 0.27287,2.43093 0.66303,4.44653 1.17048,6.04681 0.50744,1.60026 1.1166,2.60572 1.82746,3.01639 0.78115,0.45129 1.46476,0.44842 2.05083,-0.009 0.59388,-0.48092 1.10582,-1.30753 1.53582,-2.47984 l 0.90078,5.97594 c -0.45347,1.3292 -1.05529,2.33117 -1.80546,3.00593 -0.74235,0.65085 -1.63689,0.67394 -2.68362,0.0693 z m -3.30915,-30.47011 5.8474,3.37883 2.9e-4,-1.10815 c 5.7e-4,-2.21628 -0.10829,-4.25428 -0.32658,-6.11398 -0.21048,-1.88363 -0.53042,-3.44687 -0.95984,-4.68972 -0.42161,-1.26677 -0.95272,-2.08527 -1.59334,-2.45548 -0.51562,-0.29798 -0.98451,-0.0148 -1.40666,0.84969 -0.42214,0.83601 -0.77016,2.11275 -1.04405,3.83019 -0.2739,1.71743 -0.4541,3.74475 -0.54061,6.08196 z"
         style="stroke-width:1"
         id="path14124"
         inkscape:original-d="m 721.22919,543.49423 q -3.66211,0 -6.37207,-1.66015 -2.70996,-1.68457 -4.19922,-4.66309 -1.46485,-2.97852 -1.46485,-6.88477 v -1.07421 q 0,-3.75977 1.53809,-6.71387 1.5625,-2.97852 4.12598,-4.6875 2.58789,-1.7334 5.63965,-1.7334 3.56445,0 5.95703,1.46484 2.41699,1.46485 3.63769,4.12598 1.2207,2.63672 1.2207,6.22559 v 3.00293 h -17.13867 l -0.0732,0.12207 q 0.0488,2.53906 0.87891,4.5166 0.85449,1.95312 2.4414,3.07617 1.58692,1.12305 3.8086,1.12305 2.4414,0 4.27246,-0.6836 1.85547,-0.70801 3.19824,-1.92871 l 1.87988,3.125 q -1.41601,1.36719 -3.75976,2.31934 -2.31934,0.92773 -5.59082,0.92773 z m -6.90918,-16.35742 h 12.18261 v -0.63477 q 0,-1.90429 -0.68359,-3.39355 -0.65918,-1.51367 -2.00195,-2.36816 -1.31836,-0.87891 -3.32031,-0.87891 -1.61133,0 -2.92969,0.95215 -1.31836,0.92773 -2.17285,2.53906 -0.8545,1.61133 -1.12305,3.66211 z" />
      <path
         d="m 635.20879,617.81429 0.001,-5.36925 1.91011,-0.0898 0.009,-32.94334 -1.90966,-2.2972 0.001,-5.41315 3.98403,2.30251 0.15063,6.09771 c 0.40682,-1.95314 0.93067,-3.34134 1.57155,-4.16456 0.64089,-0.82323 1.38315,-0.99106 2.22678,-0.50349 0.84363,0.48756 1.56596,1.6155 2.16699,3.38379 0.60884,1.77279 1.06514,4.16785 1.3689,7.18514 0.39915,-2.38373 0.92702,-4.15317 1.5836,-5.30829 0.65659,-1.15513 1.42229,-1.47989 2.2971,-0.97431 1.29657,0.74934 2.31923,2.96018 3.06799,6.63246 0.74874,3.64378 1.12204,8.7044 1.11992,15.18175 l -0.007,21.00707 1.90899,2.2961 -0.002,5.36843 -6.13818,-3.54594 0.002,-5.36867 1.90985,-0.0899 0.007,-21.09265 c 0.001,-4.54556 -0.2123,-7.88006 -0.64127,-10.00342 -0.42897,-2.1518 -1.06522,-3.47146 -1.90877,-3.95895 -0.8045,-0.46492 -1.45311,0.19748 -1.94582,1.9872 -0.48489,1.76579 -0.76687,4.18874 -0.84593,7.26882 l -0.007,22.71284 1.90917,2.29625 -0.002,5.36872 -6.12697,-3.53947 0.002,-5.36895 1.90999,-0.0899 0.006,-21.09379 c 0.001,-4.31851 -0.22038,-7.60088 -0.66502,-9.84703 -0.43682,-2.2701 -1.07313,-3.64666 -1.90894,-4.12968 -0.70301,-0.40627 -1.28121,-0.21467 -1.73457,0.57482 -0.45336,0.78948 -0.80139,2.0661 -1.04408,3.82985 l -0.008,27.57265 1.90936,2.2964 -0.002,5.36902 z"
         style="stroke-width:1"
         id="path14126"
         inkscape:original-d="m 735.04755,542.98154 v -3.07618 l 3.97949,-0.68359 V 520.3497 l -3.97949,-0.68359 v -3.10059 h 8.30078 l 0.31738,3.44238 q 1.26953,-1.87988 3.27148,-2.90527 2.00196,-1.02539 4.63868,-1.02539 2.63672,0 4.5166,1.2207 1.9043,1.22071 2.85644,3.66211 1.24512,-2.24609 3.2959,-3.56445 2.05078,-1.31836 4.78516,-1.31836 4.05273,0 6.39648,2.7832 2.34375,2.75879 2.34375,8.3252 v 12.03613 l 3.97949,0.68359 v 3.07618 h -12.79296 v -3.07618 l 3.97949,-0.68359 v -12.08496 q 0,-3.90625 -1.34278,-5.51758 -1.34277,-1.63574 -3.97949,-1.63574 -2.51465,0 -4.05273,1.78223 -1.51367,1.75781 -1.75781,4.44336 v 13.01269 l 3.97949,0.68359 v 3.07618 h -12.76856 v -3.07618 l 3.9795,-0.68359 v -12.08496 q 0,-3.71094 -1.39161,-5.41992 -1.36718,-1.7334 -3.97949,-1.7334 -2.19726,0 -3.61328,0.90332 -1.41602,0.90332 -2.17285,2.53906 v 15.7959 l 3.97949,0.68359 v 3.07618 z" />
      <path
         d="m 663.9678,635.32282 c -1.17129,-0.67663 -2.18998,-2.23099 -3.05608,-4.66312 -0.86611,-2.4606 -1.53675,-5.56117 -2.01193,-9.30177 -0.46738,-3.73618 -0.7003,-7.87681 -0.69876,-12.42192 l 6.3e-4,-1.87488 c 0.001,-4.37483 0.24881,-8.13887 0.74199,-11.29206 0.501,-3.17714 1.16187,-5.52313 1.98259,-7.03794 0.82853,-1.53872 1.73091,-2.02598 2.70712,-1.46179 1.1402,0.65896 2.09265,2.06189 2.85736,4.20877 0.7725,2.15135 1.3534,4.88811 1.74272,8.21023 0.38932,3.29364 0.5832,7.02833 0.58166,11.20405 l -0.002,5.2408 -8.22282,-4.75114 -0.0352,0.19273 c 0.0146,2.96327 0.15425,5.67203 0.41897,8.12628 0.27253,2.4303 0.66235,4.44536 1.16948,6.04521 0.50711,1.59982 1.11596,2.60498 1.82655,3.0155 0.78087,0.45112 1.46426,0.44819 2.05018,-0.009 0.59375,-0.48084 1.10561,-1.30729 1.53559,-2.47933 l 0.89987,5.97438 c -0.45347,1.3289 -1.0552,2.33066 -1.8052,3.00531 -0.74218,0.65074 -1.63644,0.67389 -2.68277,0.0694 z m -3.30491,-30.46223 5.84518,3.37755 4e-4,-1.10786 c 8.1e-4,-2.21574 -0.1078,-4.25322 -0.32583,-6.11244 -0.21021,-1.88313 -0.5299,-3.44596 -0.95905,-4.68847 -0.42134,-1.26642 -0.95219,-2.08467 -1.59257,-2.45475 -0.51542,-0.29786 -0.98419,-0.0147 -1.4063,0.84959 -0.42209,0.83584 -0.77013,2.11228 -1.04412,3.82931 -0.27398,1.71702 -0.45434,3.74385 -0.54107,6.08048 z"
         style="stroke-width:1"
         id="path14128"
         inkscape:original-d="m 794.98407,543.49423 q -3.66211,0 -6.37207,-1.66015 -2.70996,-1.68457 -4.19922,-4.66309 -1.46484,-2.97852 -1.46484,-6.88477 v -1.07421 q 0,-3.75977 1.53808,-6.71387 1.5625,-2.97852 4.12598,-4.6875 2.58789,-1.7334 5.63965,-1.7334 3.56445,0 5.95703,1.46484 2.41699,1.46485 3.63769,4.12598 1.22071,2.63672 1.22071,6.22559 v 3.00293 h -17.13867 l -0.0733,0.12207 q 0.0488,2.53906 0.87891,4.5166 0.85449,1.95312 2.44141,3.07617 1.58691,1.12305 3.80859,1.12305 2.44141,0 4.27246,-0.6836 1.85547,-0.70801 3.19824,-1.92871 l 1.87989,3.125 q -1.41602,1.36719 -3.75977,2.31934 -2.31934,0.92773 -5.59082,0.92773 z m -6.90918,-16.35742 h 12.18262 v -0.63477 q 0,-1.90429 -0.6836,-3.39355 -0.65918,-1.51367 -2.00195,-2.36816 -1.31836,-0.87891 -3.32031,-0.87891 -1.61133,0 -2.92969,0.95215 -1.31836,0.92773 -2.17285,2.53906 -0.85449,1.61133 -1.12305,3.66211 z" />
      <path
         d="m 670.59731,638.25775 0.002,-5.3679 1.90951,-0.09 0.0125,-32.93509 -1.9088,-2.29648 0.002,-5.4118 3.9708,2.29487 0.16133,6.95517 c 0.42261,-2.19933 0.95042,-3.78381 1.58343,-4.75344 0.64083,-0.9935 1.36729,-1.25559 2.17937,-0.78626 1.36646,0.78973 2.42388,2.86414 3.17227,6.2232 0.74838,3.33055 1.12131,8.03511 1.11881,14.11357 l -0.009,22.53669 1.90832,2.29552 -0.002,5.36737 -6.12462,-3.53811 0.002,-5.3676 1.90938,-0.09 0.009,-22.36663 c 0.002,-4.06181 -0.21972,-7.0735 -0.6641,-9.03502 -0.43657,-1.95703 -1.10773,-3.19727 -2.01348,-3.7207 -0.66371,-0.38356 -1.25347,-0.14192 -1.76928,0.72493 -0.508,0.87135 -0.91466,2.22746 -1.21997,4.06831 l -0.0105,27.05443 1.90851,2.29569 -0.002,5.36767 z"
         style="stroke-width:1"
         id="path14130"
         inkscape:original-d="m 808.80243,542.98154 v -3.07618 l 3.97949,-0.68359 V 520.3497 l -3.97949,-0.68359 v -3.10059 h 8.27637 l 0.34179,3.93067 q 1.31836,-2.09961 3.2959,-3.24708 2.00195,-1.17187 4.54102,-1.17187 4.27246,0 6.61621,2.51465 2.34375,2.49023 2.34375,7.71484 v 12.91504 l 3.97949,0.68359 v 3.07618 h -12.76855 v -3.07618 l 3.97949,-0.68359 v -12.81738 q 0,-3.49121 -1.3916,-4.95606 -1.36719,-1.46484 -4.19922,-1.46484 -2.0752,0 -3.68653,1.00098 -1.58691,1.00097 -2.53906,2.73437 v 15.50293 l 3.97949,0.68359 v 3.07618 z" />
      <path
         d="m 690.32954,650.3811 c -0.93675,-0.54115 -1.68184,-1.96573 -2.23525,-4.27377 -0.54561,-2.33197 -0.81748,-5.69887 -0.81561,-10.10077 l 0.0119,-27.99025 -2.00264,-1.15732 0.003,-6.22077 2.00268,1.15742 0.005,-11.12111 2.3072,1.33355 -0.005,11.12092 2.75208,1.59052 -0.003,6.22046 -2.75204,-1.5904 -0.0121,27.98979 c -9.5e-4,2.21513 0.11934,3.91796 0.36089,5.10852 0.24155,1.19054 0.56529,1.90307 0.97123,2.13758 0.27322,0.15785 0.5777,0.24854 0.91345,0.27208 0.33576,-0.005 0.59734,-0.0242 0.78476,-0.0579 l 0.31373,5.67749 c -0.33583,0.17525 -0.7497,0.26281 -1.24161,0.26269 -0.48411,0.004 -0.93694,-0.1152 -1.35848,-0.35871 z"
         style="stroke-width:1"
         id="path14132"
         inkscape:original-d="m 849.94012,543.39658 q -2.92968,0 -4.66308,-1.70899 -1.70899,-1.7334 -1.70899,-5.51758 v -16.04004 h -4.1748 v -3.56445 h 4.1748 v -6.37207 h 4.80957 v 6.37207 h 5.73731 v 3.56445 h -5.73731 v 16.04004 q 0,1.9043 0.75684,2.80762 0.75684,0.90332 2.02637,0.90332 0.85449,0 1.90429,-0.14648 1.04981,-0.1709 1.63575,-0.29297 l 0.65918,3.14941 q -1.04981,0.31738 -2.58789,0.56153 -1.51368,0.24414 -2.83204,0.24414 z" />
    </g>
  </g>
  <g
     id="layer3"
     inkscape:label="Mặt phải"
     inkscape:groupmode="layer"
     transform="translate(-138.32,0.133275)">
    <path
       id="path69"
       style="display:inline;fill:#ed8112;fill-opacity:1;stroke-width:1.33333"
       d="M 282.2395,721.45551 542.07573,571.3777 V 265.24437 c 0,-5.974 5.2292,-11.19787 11.19787,-11.19787 5.974,0 11.19787,5.2292 11.19787,11.19787 V 584.07103 L 282.24,746.84437 v 0 0"
       transform="matrix(0.75,0,0,0.75,138.32,-0.133275)" />
    <path
       id="path1620"
       style="fill:#12ed81;fill-opacity:1;stroke-width:1.33333"
       d="m 282.24,640.07103 c -5.974,0 -11.19787,-5.2292 -11.19787,-11.19786 V 421.29983 c 0,-5.974 5.2292,-11.19786 11.19787,-11.19786"
       transform="matrix(0.75,0,0,0.75,138.32,-0.133275)" />
    <path
       id="path1622"
       style="fill:#ed8112;fill-opacity:1;stroke-width:1.33333"
       d="m 282.24,410.10197 c 0,0 0,0 0,0 5.974,0 11.19787,5.2292 11.19787,11.19786 v 207.57334 c 0,5.974 -5.224,11.20306 -11.19787,11.20306"
       transform="matrix(0.75,0,0,0.75,138.32,-0.133275)" />
    <path
       d="m 526.20388,245.02874 v 172.54717 l -149.06305,86.09676 -0.076,-172.36516 z"
       id="path7726"
       style="display:none;fill:#fffafa;stroke:#ff0000;stroke-width:0.792596"
       sodipodi:nodetypes="ccccc"
       inkscape:label="Ô canh" />
    <g
       aria-label="Tools for Thoughts"
       id="text12345"
       style="font-size:50px;line-height:1;font-family:'Roboto Slab';-inkscape-font-specification:'Roboto Slab';fill:#ed8112;fill-rule:evenodd;stroke-width:0.999997"
       inkscape:label="TFT"
       inkscape:path-effect="#path-effect14503">
      <path
         d="m 382.74286,395.0842 -0.002,-5.34228 2.67612,-2.73478 -0.0204,-48.89514 -5.41963,3.13499 -0.47254,8.84234 -2.43045,1.40578 -0.007,-14.886 19.87328,-11.49637 0.006,14.8881 -2.39805,1.38704 -0.49609,-8.28274 -5.42014,3.13528 0.0199,48.89626 2.67727,-0.36043 0.002,5.34262 z"
         style="stroke-width:1"
         id="path14452"
         inkscape:original-d="m 398.89246,442.55695 v -3.07618 l 3.97949,-0.68359 v -28.14941 h -8.05664 l -0.70801,4.93164 h -3.61328 v -8.56934 h 29.54101 v 8.56934 h -3.56445 l -0.73242,-4.93164 h -8.05664 v 28.14941 l 3.97949,0.68359 v 3.07618 z" />
      <path
         d="m 406.04671,382.50172 c -1.64244,0.94957 -3.06075,0.77992 -4.25495,-0.50894 -1.18326,-1.32345 -2.09854,-3.55117 -2.74586,-6.68318 -0.64734,-3.16031 -0.97187,-7.00219 -0.97358,-11.52571 l -3.5e-4,-0.93299 c -0.002,-4.52366 0.31978,-8.72533 0.96451,-12.60499 0.64473,-3.90803 1.55805,-7.20788 2.73996,-9.89953 1.1929,-2.69806 2.59973,-4.51583 4.22049,-5.45328 1.6427,-0.95014 3.05579,-0.76339 4.23925,0.56027 1.19442,1.31733 2.11529,3.54238 2.76262,6.67512 0.64732,3.13269 0.97173,6.9753 0.97324,11.52776 l 3.1e-4,0.93309 c 0.002,4.5523 -0.32021,8.78235 -0.96513,12.69015 -0.64492,3.87941 -1.55837,7.1505 -2.74034,9.81329 -1.18193,2.66271 -2.58865,4.46568 -4.22017,5.40894 z m -0.002,-6.5305 c 1.02929,-0.59512 1.88862,-1.81305 2.57798,-3.65379 0.70031,-1.87536 1.22525,-4.1725 1.5748,-6.89142 0.3605,-2.75359 0.5402,-5.74203 0.5391,-8.96534 l -3.1e-4,-0.93307 c -0.001,-3.2234 -0.18278,-5.9889 -0.54503,-8.29648 -0.35131,-2.34222 -0.87766,-4.03172 -1.57904,-5.0685 -0.70139,-1.06505 -1.57227,-1.29672 -2.61262,-0.69501 -1.02939,0.59536 -1.89424,1.83091 -2.59455,3.70661 -0.70031,1.8474 -1.2252,4.14481 -1.57468,6.8922 -0.34948,2.71907 -0.52362,5.6902 -0.52243,8.91338 l 3.4e-4,0.93301 c 0.001,3.22309 0.17745,6.00556 0.52878,8.34742 0.35131,2.31356 0.87762,4.00279 1.57894,5.06769 0.71224,1.03031 1.58848,1.24474 2.62872,0.6433 z"
         style="stroke-width:1"
         id="path14454"
         inkscape:original-d="m 433.53601,443.06964 q -3.66211,0 -6.32324,-1.70898 -2.63672,-1.7334 -4.07715,-4.76075 -1.44043,-3.05175 -1.44043,-6.958 v -0.53711 q 0,-3.90625 1.44043,-6.9336 1.44043,-3.05175 4.07715,-4.78515 2.66113,-1.7334 6.27441,-1.7334 3.66211,0 6.29883,1.7334 2.66113,1.7334 4.10156,4.76074 1.44043,3.02734 1.44043,6.95801 v 0.53711 q 0,3.93066 -1.44043,6.98242 -1.44043,3.02734 -4.07715,4.73633 -2.63671,1.70898 -6.27441,1.70898 z m 0,-3.75976 q 2.29492,0 3.83301,-1.24512 1.5625,-1.26953 2.34375,-3.44238 0.80566,-2.19727 0.80566,-4.98047 v -0.53711 q 0,-2.78321 -0.80566,-4.95606 -0.78125,-2.19726 -2.34375,-3.44238 -1.5625,-1.26953 -3.88184,-1.26953 -2.29492,0 -3.85742,1.26953 -1.5625,1.24512 -2.34375,3.44238 -0.78125,2.17285 -0.78125,4.95606 v 0.53711 q 0,2.7832 0.78125,4.98047 0.78125,2.17285 2.34375,3.44238 1.58691,1.24512 3.90625,1.24512 z" />
      <path
         d="m 425.08467,371.49497 c -1.64277,0.94976 -3.06131,0.78015 -4.25564,-0.50883 -1.18339,-1.32359 -2.09871,-3.55157 -2.74596,-6.68398 -0.64727,-3.1607 -0.97164,-7.00309 -0.9731,-11.52722 l -3e-4,-0.93312 c -0.001,-4.52427 0.32033,-8.72652 0.96538,-12.60673 0.64507,-3.90857 1.55873,-7.20891 2.741,-9.90097 1.19325,-2.69847 2.60042,-4.51654 4.22152,-5.45419 1.64303,-0.95033 3.05636,-0.76361 4.23995,0.56018 1.19454,1.31746 2.11545,3.54278 2.76271,6.67591 0.64726,3.13309 0.97151,6.9762 0.97276,11.52927 l 2.6e-4,0.93322 c 0.001,4.55291 -0.32076,8.78354 -0.96601,12.6919 -0.64525,3.87996 -1.55904,7.15153 -2.74136,9.81472 -1.18229,2.66312 -2.58936,4.46639 -4.22121,5.40984 z m -0.002,-6.53138 c 1.02951,-0.59524 1.88905,-1.81336 2.57863,-3.65438 0.70054,-1.87565 1.2257,-4.17312 1.57546,-6.89242 0.36072,-2.75397 0.54062,-5.74282 0.5397,-8.96656 l -2.6e-4,-0.9332 c -9.2e-4,-3.22383 -0.18247,-5.9897 -0.54465,-8.29758 -0.35125,-2.34252 -0.87759,-4.03223 -1.57903,-5.06912 -0.70145,-1.06516 -1.57247,-1.29683 -2.61303,-0.695 -1.0296,0.59549 -1.89467,1.83123 -2.59521,3.70721 -0.70053,1.84768 -1.22564,4.14542 -1.57534,6.8932 -0.34969,2.71945 -0.52403,5.69099 -0.52302,8.9146 l 2.9e-4,0.93314 c 0.001,3.22353 0.17715,6.00636 0.5284,8.34852 0.35124,2.31386 0.87755,4.00329 1.57892,5.06831 0.71232,1.03042 1.58869,1.24485 2.62914,0.64328 z"
         style="stroke-width:1"
         id="path14456"
         inkscape:original-d="m 461.83191,443.06964 q -3.66211,0 -6.32324,-1.70898 -2.63672,-1.7334 -4.07715,-4.76075 -1.44043,-3.05175 -1.44043,-6.958 v -0.53711 q 0,-3.90625 1.44043,-6.9336 1.44043,-3.05175 4.07715,-4.78515 2.66113,-1.7334 6.27441,-1.7334 3.66211,0 6.29883,1.7334 2.66113,1.7334 4.10156,4.76074 1.44043,3.02734 1.44043,6.95801 v 0.53711 q 0,3.93066 -1.44043,6.98242 -1.44043,3.02734 -4.07715,4.73633 -2.63672,1.70898 -6.27441,1.70898 z m 0,-3.75976 q 2.29492,0 3.83301,-1.24512 1.5625,-1.26953 2.34375,-3.44238 0.80566,-2.19727 0.80566,-4.98047 v -0.53711 q 0,-2.78321 -0.80566,-4.95606 -0.78125,-2.19726 -2.34375,-3.44238 -1.5625,-1.26953 -3.88184,-1.26953 -2.29492,0 -3.85742,1.26953 -1.5625,1.24512 -2.34375,3.44238 -0.78125,2.17285 -0.78125,4.95606 v 0.53711 q 0,2.7832 0.78125,4.98047 0.78125,2.17285 2.34375,3.44238 1.58691,1.24512 3.90625,1.24512 z" />
      <path
         d="m 435.02383,364.85785 -0.001,-5.34426 2.67781,-2.73609 -0.0139,-53.07132 -2.67887,0.36144 -0.001,-5.38859 5.91603,-3.42247 0.015,59.64943 2.67859,-0.36086 0.001,5.34459 z"
         style="stroke-width:1"
         id="path14458"
         inkscape:original-d="m 476.60242,442.55695 v -3.07618 l 3.97949,-0.68359 v -30.54199 l -3.97949,-0.6836 v -3.10058 h 8.78906 v 34.32617 l 3.97949,0.68359 v 3.07618 z" />
      <path
         d="m 453.11485,355.2894 c -1.19411,0.69037 -2.31159,1.02533 -3.35245,1.00488 -1.04084,-0.0205 -2.14749,-0.34224 -3.31994,-0.96536 l -0.0354,-10.88285 2.44845,-1.41576 0.60951,6.22369 c 0.61363,0.29573 1.20532,0.43445 1.77506,0.41616 0.58068,-0.0529 1.20517,-0.27255 1.87345,-0.65893 1.31466,-0.76012 2.25671,-1.95534 2.82613,-3.58567 0.56944,-1.63035 0.85396,-3.40712 0.85357,-5.33031 -3.7e-4,-1.81009 -0.29103,-3.16948 -0.87196,-4.07816 -0.56998,-0.9433 -1.61104,-1.4162 -3.12314,-1.4187 -2.14761,-0.031 -3.73107,-0.81251 -4.75042,-2.34454 -1.0084,-1.56662 -1.51302,-4.13179 -1.51386,-7.69553 -5.9e-4,-2.489 0.27826,-4.87091 0.83655,-7.14573 0.5583,-2.30316 1.33582,-4.32294 2.33257,-6.05934 0.99677,-1.73643 2.15803,-2.98807 3.48379,-3.75489 1.34769,-0.77951 2.49826,-1.04893 3.45169,-0.80824 0.9644,0.23437 1.80284,0.81035 2.51533,1.72794 l 0.16644,10.3853 -2.43243,1.40673 -0.52719,-5.80564 c -0.38364,-0.51367 -0.83846,-0.81642 -1.36447,-0.90826 -0.52601,-0.0918 -1.12867,0.0587 -1.80798,0.45159 -1.00799,0.58299 -1.82959,1.6664 -2.46478,3.25021 -0.62423,1.57747 -0.93613,3.28545 -0.93572,5.12396 2.5e-4,1.0748 0.0881,1.9575 0.26357,2.64809 0.18643,0.68424 0.53718,1.20274 1.05226,1.55549 0.51507,0.32445 1.27117,0.50952 2.26831,0.55521 2.47643,0.0671 4.20247,0.97844 5.17807,2.73387 0.98655,1.74909 1.48016,4.32066 1.48083,7.71466 7.5e-4,3.87475 -0.55738,7.45028 -1.67437,10.72659 -1.10601,3.24159 -2.85317,5.55275 -5.24144,6.93353 z"
         style="stroke-width:1"
         id="path14460"
         inkscape:original-d="m 503.4823,443.06964 q -2.66113,0 -4.98047,-0.53711 -2.31933,-0.53711 -4.93164,-1.66015 l -0.0488,-6.27442 h 3.6377 l 0.90332,3.78418 q 1.36719,0.56152 2.63672,0.83008 1.29394,0.24414 2.7832,0.24414 2.92969,0 4.19922,-1.12305 1.26953,-1.12304 1.26953,-2.7832 0,-1.5625 -1.29395,-2.63672 -1.26953,-1.09863 -4.63867,-1.85547 -4.78515,-1.09863 -7.05566,-2.92969 -2.2461,-1.85546 -2.2461,-4.93164 0,-2.14843 1.24512,-3.833 1.24512,-1.70899 3.4668,-2.70996 2.22168,-1.00098 5.17578,-1.00098 3.00293,0 5.12695,0.68359 2.14844,0.6836 3.73535,1.83106 l 0.24415,6.03027 h -3.61329 l -0.78125,-3.51562 q -0.85449,-0.63477 -2.02636,-0.97657 -1.17188,-0.34179 -2.68555,-0.34179 -2.24609,0 -3.66211,1.0498 -1.3916,1.04981 -1.3916,2.63672 0,0.92773 0.39062,1.61133 0.41504,0.68359 1.5625,1.24512 1.14747,0.5371 3.36914,1.07421 5.51758,1.29395 7.69043,3.2959 2.19727,2.00196 2.19727,4.93164 0,3.34473 -2.49023,5.61524 -2.46582,2.24609 -7.78809,2.24609 z" />
      <path
         d="m 471.01177,344.05135 -8.7e-4,-5.34563 2.67897,-2.73699 -0.005,-33.18138 -2.77806,1.60673 -0.001,-6.19558 2.77811,-1.60686 -9e-4,-5.81399 c -7.6e-4,-4.89465 0.49183,-8.95713 1.4778,-12.1874 0.99696,-3.26499 2.38323,-5.41111 4.15882,-6.43831 0.37265,-0.21558 0.77273,-0.36213 1.20021,-0.43964 0.43845,-0.11215 0.88787,-0.15991 1.34825,-0.14326 l -0.39374,6.59484 c -0.19731,8.9e-4 -0.46585,0.0572 -0.80564,0.16891 -0.32882,0.10538 -0.6412,0.24366 -0.93713,0.41484 -0.95354,0.55161 -1.66037,1.69621 -2.12048,3.4338 -0.46011,1.70927 -0.68996,3.95029 -0.68955,6.72302 l 8.4e-4,5.81413 3.87976,-2.24405 8.3e-4,6.19602 -3.87968,2.24387 0.005,33.18215 3.05756,-0.57975 7.3e-4,5.34597 z"
         style="stroke-width:1"
         id="path14462"
         inkscape:original-d="m 530.06921,442.55695 v -3.07618 l 3.9795,-0.68359 v -19.0918 h -4.12598 v -3.56445 h 4.12598 v -3.34473 q 0,-4.22363 2.19726,-6.51855 2.22168,-2.31934 6.17676,-2.31934 0.83008,0 1.78223,0.14649 0.97656,0.12207 2.00195,0.36621 l -0.58594,3.66211 q -0.43945,-0.0977 -1.19629,-0.1709 -0.73242,-0.0732 -1.3916,-0.0732 -2.12402,0 -3.14941,1.26953 -1.02539,1.24512 -1.02539,3.63769 v 3.34473 H 544.62 v 3.56445 h -5.76172 v 19.0918 l 4.54101,0.68359 v 3.07618 z" />
      <path
         d="m 490.8687,333.46211 c -1.64393,0.95044 -3.06329,0.78094 -4.25808,-0.50847 -1.18383,-1.32404 -2.09926,-3.55293 -2.74628,-6.68671 -0.64704,-3.16209 -0.97086,-7.00622 -0.97144,-11.53245 l -1.2e-4,-0.93356 c -5.8e-4,-4.52638 0.32222,-8.73063 0.96842,-12.61273 0.6462,-3.91049 1.56105,-7.21249 2.74455,-9.90598 1.19448,-2.69988 2.60284,-4.519 4.22509,-5.45731 1.64419,-0.95101 3.05832,-0.76439 4.24236,0.55985 1.19499,1.31791 2.11602,3.54413 2.76305,6.67863 0.64703,3.13446 0.97073,6.97932 0.97109,11.53451 l 8e-5,0.93366 c 3.7e-4,4.55503 -0.32265,8.78767 -0.96906,12.69794 -0.64638,3.88186 -1.56135,7.15508 -2.74488,9.81968 -1.18352,2.66452 -2.59177,4.46882 -4.22478,5.41294 z m -6.8e-4,-6.53442 c 1.03023,-0.59566 1.89052,-1.81447 2.58088,-3.65644 0.70131,-1.87662 1.22723,-4.17523 1.57773,-6.89585 0.36147,-2.75531 0.54206,-5.74557 0.54177,-8.97082 l -9e-5,-0.93363 c -2.9e-4,-3.22533 -0.18141,-5.99247 -0.54336,-8.30137 -0.35099,-2.34356 -0.87732,-4.03398 -1.57898,-5.07126 -0.70166,-1.06556 -1.57314,-1.29721 -2.61444,-0.69496 -1.03033,0.59591 -1.89615,1.83235 -2.59747,3.70931 -0.70131,1.84863 -1.22718,4.14751 -1.57762,6.89662 -0.35043,2.72077 -0.52545,5.69371 -0.52507,8.91883 l 1.1e-4,0.93357 c 3.9e-4,3.22503 0.17608,6.00913 0.52709,8.35234 0.351,2.31489 0.87729,4.00503 1.57887,5.07045 0.71254,1.0308 1.5894,1.2452 2.63058,0.64321 z"
         style="stroke-width:1"
         id="path14464"
         inkscape:original-d="m 559.5614,443.06964 q -3.66211,0 -6.32324,-1.70898 -2.63672,-1.7334 -4.07715,-4.76075 -1.44043,-3.05175 -1.44043,-6.958 v -0.53711 q 0,-3.90625 1.44043,-6.9336 1.44043,-3.05175 4.07715,-4.78515 2.66113,-1.7334 6.27441,-1.7334 3.66211,0 6.29883,1.7334 2.66113,1.7334 4.10156,4.76074 1.44043,3.02734 1.44043,6.95801 v 0.53711 q 0,3.93066 -1.44043,6.98242 -1.44043,3.02734 -4.07714,4.73633 -2.63672,1.70898 -6.27442,1.70898 z m 0,-3.75976 q 2.29492,0 3.83301,-1.24512 1.5625,-1.26953 2.34375,-3.44238 0.80566,-2.19727 0.80566,-4.98047 v -0.53711 q 0,-2.78321 -0.80566,-4.95606 -0.78125,-2.19726 -2.34375,-3.44238 -1.5625,-1.26953 -3.88184,-1.26953 -2.29492,0 -3.85742,1.26953 -1.5625,1.24512 -2.34375,3.44238 -0.78125,2.17285 -0.78125,4.95606 v 0.53711 q 0,2.7832 0.78125,4.98047 0.78125,2.17285 2.34375,3.44238 1.58692,1.24512 3.90625,1.24512 z" />
      <path
         d="m 501.27541,326.55436 -3.9e-4,-5.34677 2.67995,-2.73775 -0.002,-32.80648 -2.68039,0.36176 -3.9e-4,-5.39049 5.57455,-3.22431 0.27988,5.69591 0.0329,0.78746 c 0.50416,-2.64034 1.12348,-4.83795 1.85795,-6.59281 0.74543,-1.76123 1.59507,-2.9177 2.54891,-3.4694 0.33987,-0.19658 0.68523,-0.31144 1.03607,-0.34458 0.36181,-0.0678 0.61947,-0.0753 0.77297,-0.0226 l -0.42729,8.01531 -2.25299,0.96345 c -0.85514,0.35308 -1.5732,1.27775 -2.15418,2.77398 -0.58097,1.46791 -1.03037,3.25587 -1.34817,5.36387 l 0.001,26.01608 2.68026,-0.3614 2.6e-4,5.3471 z"
         style="stroke-width:1"
         id="path14466"
         inkscape:original-d="m 575.0155,442.55695 v -3.07618 l 3.9795,-0.68359 v -18.87207 l -3.9795,-0.68359 v -3.10059 h 8.27637 l 0.41504,3.36914 0.0488,0.46387 q 1.12304,-2.02637 2.75879,-3.17383 1.66015,-1.14746 3.78418,-1.14746 0.75683,0 1.53808,0.14648 0.80567,0.12207 1.14746,0.24414 l -0.63476,4.46778 -3.34473,-0.19532 q -1.9043,-0.12207 -3.19824,0.87891 -1.29395,0.97656 -2.00195,2.63672 v 14.96582 l 3.97949,0.68359 v 3.07618 z" />
      <path
         d="m 382.77968,481.89368 -0.002,-5.33955 2.67543,-2.73252 -0.0203,-48.87004 -5.41825,3.13166 -0.47242,8.83765 -2.42982,1.40429 -0.007,-14.87836 19.86818,-11.48416 0.006,14.88046 -2.39744,1.38556 -0.49596,-8.27863 -5.41875,3.13194 0.0199,48.87116 2.67658,-0.35939 0.002,5.33987 z"
         style="stroke-width:1"
         id="path14468"
         inkscape:original-d="m 398.89246,492.55695 v -3.07618 l 3.97949,-0.68359 v -28.14941 h -8.05664 l -0.70801,4.93164 h -3.61328 v -8.56934 h 29.54101 v 8.56934 h -3.56445 l -0.73242,-4.93164 h -8.05664 v 28.14941 l 3.97949,0.68359 v 3.07618 z" />
      <path
         d="m 399.44366,472.26714 -0.002,-5.34018 2.67597,-2.73293 -0.0195,-53.0307 -2.67728,0.36011 -0.002,-5.38447 5.91225,-3.41752 0.009,26.3707 c 0.61232,-2.55879 1.36167,-4.70211 2.24807,-6.42996 0.88641,-1.72786 1.87159,-2.90503 2.95553,-3.53147 1.90513,-1.10105 3.38377,-0.48555 4.43587,1.8465 1.0521,2.33204 1.57914,6.55056 1.58112,12.65539 l 0.007,22.21295 2.67728,-0.35962 0.002,5.34092 -8.58866,4.96155 -0.002,-5.3406 2.67634,-2.73322 -0.007,-22.29723 c -0.001,-3.78714 -0.31972,-6.40167 -0.95536,-7.84354 -0.6247,-1.44819 -1.56112,-1.81164 -2.80927,-1.09033 -0.88683,0.5125 -1.69683,1.53183 -2.42998,3.05798 -0.7222,1.49152 -1.31835,3.30594 -1.78845,5.44324 l 0.01,27.34051 2.677,-0.35953 0.002,5.3405 z"
         style="stroke-width:1"
         id="path14470"
         inkscape:original-d="m 423.67273,492.55695 v -3.07618 l 3.97949,-0.68359 v -30.54199 l -3.97949,-0.6836 v -3.10058 h 8.78906 v 15.18555 q 1.36719,-1.9043 3.34473,-2.95411 1.97754,-1.0498 4.39453,-1.0498 4.24805,0 6.5918,2.53906 2.34375,2.53906 2.34375,7.8125 v 12.79297 l 3.97949,0.68359 v 3.07618 h -12.76856 v -3.07618 l 3.9795,-0.68359 v -12.8418 q 0,-3.27148 -1.41602,-4.83398 -1.3916,-1.5625 -4.1748,-1.5625 -1.97754,0 -3.61329,0.95215 -1.61132,0.92773 -2.66113,2.53906 v 15.74707 l 3.97949,0.68359 v 3.07618 z" />
      <path
         d="m 429.23307,455.94856 c -1.64243,0.9488 -3.06066,0.77883 -4.25471,-0.5099 -1.18311,-1.32332 -2.0982,-3.5505 -2.74527,-6.68159 -0.64709,-3.15937 -0.97134,-7 -0.97275,-11.52194 l -2.9e-4,-0.93266 c -0.001,-4.52208 0.32037,-8.7222 0.96533,-12.60033 0.64497,-3.90648 1.55847,-7.20494 2.74052,-9.89533 1.19302,-2.69679 2.59991,-4.51355 4.22066,-5.45024 1.64268,-0.94937 3.05569,-0.7623 4.23901,0.56122 1.19427,1.31719 2.11494,3.54171 2.76203,6.67353 0.64707,3.13177 0.9712,6.97312 0.9724,11.52398 l 2.4e-4,0.93277 c 0.001,4.55071 -0.32079,8.77919 -0.96595,12.68545 -0.64516,3.87789 -1.55878,7.14759 -2.74088,9.80913 -1.18206,2.66146 -2.58884,4.46342 -4.22034,5.40591 z m -0.002,-6.52822 c 1.02928,-0.59463 1.88865,-1.8119 2.57811,-3.65181 0.7004,-1.87452 1.22547,-4.17072 1.5752,-6.8886 0.36067,-2.75252 0.54057,-5.73987 0.53969,-8.96205 l -2.6e-4,-0.93275 c -8.8e-4,-3.22227 -0.18235,-5.98685 -0.54443,-8.29373 -0.35113,-2.34149 -0.87734,-4.03054 -1.57862,-5.06714 -0.70128,-1.06487 -1.5721,-1.29669 -2.61245,-0.69547 -1.02938,0.59488 -1.89427,1.82975 -2.59468,3.70461 -0.7004,1.84657 -1.22543,4.14303 -1.57507,6.88937 -0.34965,2.71803 -0.52399,5.68807 -0.52302,8.91012 l 2.8e-4,0.93269 c 9.7e-4,3.22196 0.17703,6.0035 0.52818,8.34464 0.35114,2.31285 0.87731,4.00162 1.57851,5.06634 0.71215,1.03014 1.58833,1.24474 2.62856,0.64378 z"
         style="stroke-width:1"
         id="path14472"
         inkscape:original-d="m 467.95984,493.06964 q -3.66211,0 -6.32324,-1.70898 -2.63672,-1.7334 -4.07715,-4.76075 -1.44043,-3.05175 -1.44043,-6.958 v -0.53711 q 0,-3.90625 1.44043,-6.9336 1.44043,-3.05175 4.07715,-4.78515 2.66113,-1.7334 6.27441,-1.7334 3.66211,0 6.29883,1.7334 2.66113,1.7334 4.10156,4.76074 1.44043,3.02734 1.44043,6.95801 v 0.53711 q 0,3.93066 -1.44043,6.98242 -1.44043,3.02734 -4.07715,4.73633 -2.63672,1.70898 -6.27441,1.70898 z m 0,-3.75976 q 2.29492,0 3.83301,-1.24512 1.5625,-1.26953 2.34375,-3.44238 0.80566,-2.19727 0.80566,-4.98047 v -0.53711 q 0,-2.78321 -0.80566,-4.95606 -0.78125,-2.19726 -2.34375,-3.44238 -1.5625,-1.26953 -3.88184,-1.26953 -2.29492,0 -3.85742,1.26953 -1.5625,1.24512 -2.34375,3.44238 -0.78125,2.17285 -0.78125,4.95606 v 0.53711 q 0,2.7832 0.78125,4.98047 0.78125,2.17285 2.34375,3.44238 1.58691,1.24512 3.90625,1.24512 z" />
      <path
         d="m 447.48235,445.4063 c -1.92748,1.11347 -3.43369,0.38647 -4.51866,-2.18098 -1.08498,-2.56747 -1.62832,-7.22881 -1.63001,-13.98423 l -0.005,-20.47988 -2.03741,-0.01 -0.001,-5.38536 2.03715,-1.17733 3.23653,-1.8705 0.007,27.13805 c 0.001,4.89004 0.28126,8.09228 0.84025,9.60683 0.55898,1.51452 1.42987,1.93012 2.61268,1.24679 1.14997,-0.66435 2.0972,-1.80524 2.84169,-3.42267 0.75546,-1.65204 1.32461,-3.6912 1.70748,-6.1175 l -0.006,-26.50252 -2.38266,0.18939 -0.001,-5.38578 2.38243,-1.37688 3.23692,-1.87072 0.008,39.35188 2.03751,0.0102 0.001,5.34238 -4.94514,2.85674 -0.21505,-6.66036 c -0.55804,2.78183 -1.28048,5.09321 -2.16732,6.93415 -0.87586,1.83458 -1.88877,3.08402 -3.03871,3.74832 z"
         style="stroke-width:1"
         id="path14474"
         inkscape:original-d="m 495.08386,493.06964 q -4.29687,0 -6.71386,-2.75879 -2.417,-2.75879 -2.417,-8.59375 v -11.79199 l -3.02734,-0.68359 v -3.10059 h 3.02734 4.80957 v 15.625 q 0,4.22363 1.24512,5.81055 1.24512,1.58691 3.88184,1.58691 2.56347,0 4.22363,-1.02539 1.68457,-1.0498 2.53906,-2.9541 v -15.25879 l -3.54004,-0.68359 v -3.10059 h 3.54004 4.80957 v 22.65625 l 3.02735,0.68359 v 3.07618 h -7.34864 l -0.31738,-3.90625 q -1.24512,2.12402 -3.22266,3.27148 -1.95312,1.14746 -4.5166,1.14746 z" />
      <path
         d="m 467.92358,451.2378 c -0.85437,0.49348 -1.77999,0.71716 -2.77686,0.67105 -0.99685,-0.0178 -1.87325,-0.33138 -2.62921,-0.94063 l 0.83671,-6.97086 c 0.60259,0.47172 1.31468,0.73884 2.13629,0.80137 0.82161,0.0625 1.62128,-0.13083 2.399,-0.58006 1.44591,-0.83519 2.5028,-2.49165 3.17066,-4.96939 0.67883,-2.48411 1.01794,-5.66256 1.01732,-9.53538 l -7e-4,-4.36762 c -0.58029,2.25775 -1.27567,4.11547 -2.08614,5.57317 -0.81046,1.45768 -1.74148,2.49025 -2.79308,3.09774 -1.44592,0.83528 -2.69483,0.63797 -3.74672,-0.59193 -1.05191,-1.25818 -1.86297,-3.37641 -2.43319,-6.35471 -0.55929,-3.01293 -0.83936,-6.71027 -0.84022,-11.09208 l -1.7e-4,-0.8905 c -9.6e-4,-4.91909 0.27753,-9.39189 0.83549,-13.41839 0.56893,-4.03293 1.37904,-7.37117 2.43033,-10.01469 1.05132,-2.67187 2.311,-4.43203 3.77904,-5.28047 1.11748,-0.64583 2.09811,-0.647 2.9419,-0.003 0.8438,0.6435 1.55073,1.87511 2.12078,3.69483 l 0.2949,-5.93929 2.72813,-1.57667 0.007,45.29404 c 6e-4,3.95771 -0.28919,7.53178 -0.86935,10.72223 -0.5692,3.18405 -1.40687,5.85878 -2.513,8.02421 -1.09515,2.18732 -2.43139,3.73649 -4.00872,4.64753 z m 0.0779,-24.47016 c 0.97495,-0.56324 1.79096,-1.60011 2.44805,-3.11062 0.6571,-1.53881 1.19911,-3.47764 1.62601,-5.81652 l -0.003,-21.11974 c -0.41663,-1.71037 -0.95919,-2.93796 -1.62768,-3.68275 -0.66849,-0.77307 -1.47382,-0.88736 -2.416,-0.34288 -1.02981,0.59513 -1.88966,1.85552 -2.57956,3.78117 -0.67894,1.91928 -1.18796,4.32001 -1.52706,7.20216 -0.33911,2.85383 -0.50833,6.03357 -0.50768,9.53918 l 1.6e-4,0.89052 c 8.6e-4,4.60808 0.37946,8.09306 1.13581,10.45503 0.75634,2.36195 1.90677,3.09677 3.45133,2.20445 z m 6.8143,-37.10413 -1.26649,-6.09743 3.96079,-2.28907 7.7e-4,5.34439 z"
         style="stroke-width:1"
         id="path14476"
         inkscape:original-d="m 525.45496,503.22589 q -1.9043,0 -4.12598,-0.53711 -2.22168,-0.51269 -3.90625,-1.41601 l 1.24512,-3.73536 q 1.34277,0.70801 3.17382,1.17188 1.83106,0.46387 3.56446,0.46387 3.22265,0 4.71191,-1.80664 1.51367,-1.80664 1.51367,-5.15137 v -2.51465 q -1.29394,1.66016 -3.10058,2.51465 -1.80664,0.85449 -4.15039,0.85449 -3.22266,0 -5.56641,-1.58691 -2.34375,-1.61133 -3.61328,-4.46778 -1.24512,-2.88086 -1.24512,-6.66504 v -0.51269 q 0,-4.24805 1.24512,-7.44629 1.26953,-3.19824 3.61328,-4.95605 2.34375,-1.78223 5.61524,-1.78223 2.49023,0 4.37011,0.97656 1.87989,0.97656 3.14942,2.83203 l 0.43945,-3.32031 h 4.05273 v 26.07422 q 0,3.41797 -1.29394,5.88379 -1.26953,2.46582 -3.73535,3.78418 -2.44141,1.34277 -5.95703,1.34277 z m 0.12207,-14.0625 q 2.17285,0 3.63769,-0.97656 1.46485,-1.00098 2.41699,-2.80762 v -12.1582 q -0.92773,-1.68457 -2.41699,-2.66113 -1.48926,-1.00098 -3.58887,-1.00098 -2.29492,0 -3.833,1.31836 -1.51368,1.31836 -2.27051,3.63769 -0.75684,2.29493 -0.75684,5.32227 v 0.51269 q 0,3.9795 1.68457,6.39649 1.68457,2.41699 5.12696,2.41699 z m 10.13183,-19.0918 -1.87988,-3.93066 h 5.88379 v 3.07617 z" />
      <path
         d="m 478.71635,426.47244 -7.5e-4,-5.34318 2.67853,-2.73492 -0.007,-53.06046 -2.67928,0.36076 -7.6e-4,-5.38749 5.91728,-3.42043 0.003,26.3855 c 0.61335,-2.56033 1.36374,-4.70498 2.25117,-6.43394 0.88746,-1.72898 1.87362,-2.90698 2.95848,-3.53396 1.90676,-1.10198 3.38631,-0.48638 4.43862,1.8468 1.0523,2.33317 1.57873,6.55397 1.57927,12.66223 l 0.002,22.22542 2.67928,-0.36027 4.4e-4,5.34392 -8.59597,4.96577 -5.8e-4,-5.3436 2.67889,-2.7352 -0.002,-22.30974 c -3.8e-4,-3.78927 -0.31844,-6.40522 -0.9542,-7.84779 -0.6248,-1.4489 -1.56182,-1.81239 -2.81103,-1.09047 -0.88759,0.51294 -1.6984,1.53297 -2.43243,3.0601 -0.72307,1.49249 -1.32007,3.30802 -1.79101,5.44659 l 0.003,27.35587 2.679,-0.36018 6.1e-4,5.34349 z"
         style="stroke-width:1"
         id="path14478"
         inkscape:original-d="m 541.495,492.55695 v -3.07618 l 3.97949,-0.68359 v -30.54199 l -3.97949,-0.6836 v -3.10058 h 8.78906 v 15.18555 q 1.36719,-1.9043 3.34472,-2.95411 1.97754,-1.0498 4.39454,-1.0498 4.24804,0 6.59179,2.53906 2.34375,2.53906 2.34375,7.8125 v 12.79297 l 3.97949,0.68359 v 3.07618 H 558.1698 v -3.07618 l 3.97949,-0.68359 v -12.8418 q 0,-3.27148 -1.41601,-4.83398 -1.39161,-1.5625 -4.17481,-1.5625 -1.97754,0 -3.61328,0.95215 -1.61133,0.92773 -2.66113,2.53906 v 15.74707 l 3.97949,0.68359 v 3.07618 z" />
      <path
         d="m 506.36108,411.22352 c -1.31504,0.75967 -2.36163,0.3746 -3.13982,-1.1552 -0.76722,-1.56443 -1.15099,-4.53803 -1.1513,-8.92089 l -0.002,-27.86916 -2.81107,1.62451 -4.9e-4,-6.19364 2.81112,-1.62464 -7.9e-4,-11.07299 3.23874,-1.87197 6.9e-4,11.07325 3.8635,-2.23284 3.1e-4,6.19408 -3.86343,2.23267 0.002,27.8698 c 1.4e-4,2.20564 0.1701,3.73343 0.50989,4.58341 0.33979,0.84997 0.79461,1.11035 1.36447,0.78113 0.38357,-0.22159 0.81097,-0.55333 1.2822,-0.99524 0.47123,-0.47018 0.83836,-0.85195 1.10137,-1.14529 l 0.44412,5.21519 c -0.47123,0.63982 -1.05204,1.30053 -1.74244,1.98214 -0.67943,0.67526 -1.31503,1.18382 -1.9068,1.52568 z"
         style="stroke-width:1"
         id="path14480"
         inkscape:original-d="m 582.55945,492.97198 q -2.92969,0 -4.66309,-1.70898 -1.70898,-1.7334 -1.70898,-5.51758 v -16.04004 h -4.17481 v -3.56445 h 4.17481 v -6.37207 h 4.80957 v 6.37207 h 5.7373 v 3.56445 h -5.7373 v 16.04004 q 0,1.9043 0.75683,2.80762 0.75684,0.90332 2.02637,0.90332 0.85449,0 1.9043,-0.14648 1.0498,-0.1709 1.63574,-0.29297 l 0.65918,3.14941 q -1.0498,0.31738 -2.58789,0.56152 -1.51367,0.24414 -2.83203,0.24414 z" />
      <path
         d="m 519.28225,403.92887 c -1.19466,0.69013 -2.31258,1.02487 -3.35379,1.00424 -1.0412,-0.0206 -2.14816,-0.34261 -3.32088,-0.96591 l -0.0333,-10.88235 2.44957,-1.41527 0.60849,6.22351 c 0.61379,0.29583 1.20565,0.43465 1.77558,0.41647 0.5809,-0.0528 1.20564,-0.27233 1.87422,-0.65858 1.31525,-0.75984 2.25786,-1.95484 2.8278,-3.585 0.56995,-1.63017 0.85491,-3.40681 0.8549,-5.32992 -2e-5,-1.81 -0.2905,-3.16938 -0.87145,-4.07812 -0.57,-0.94336 -1.61132,-1.41642 -3.12394,-1.41919 -2.14833,-0.0314 -3.73218,-0.81314 -4.75157,-2.34528 -1.00844,-1.56674 -1.51273,-4.13187 -1.51287,-7.69546 -10e-5,-2.48888 0.27931,-4.87063 0.83823,-7.14525 0.55894,-2.30295 1.33712,-4.3225 2.33455,-6.05864 0.99745,-1.73618 2.15935,-2.98755 3.48571,-3.75411 1.34831,-0.77923 2.49932,-1.04843 3.45303,-0.80758 0.96467,0.23453 1.80329,0.81063 2.51585,1.72831 l 0.16445,10.38485 -2.43352,1.40623 -0.52623,-5.80547 c -0.38368,-0.51371 -0.8386,-0.81653 -1.36476,-0.90846 -0.52617,-0.0919 -1.12907,0.0585 -1.80869,0.45125 -1.00845,0.58279 -1.83054,1.666 -2.46626,3.24963 -0.62475,1.57728 -0.93709,3.28513 -0.93703,5.12355 3e-5,1.07476 0.0877,1.95743 0.26314,2.64802 0.18636,0.68425 0.53713,1.20278 1.05231,1.55561 0.51518,0.32453 1.2715,0.50972 2.26897,0.55558 2.47727,0.0676 4.20371,0.97915 5.1793,2.73467 0.98655,1.74919 1.47982,4.32073 1.47982,7.71458 0,3.87457 -0.55902,7.44984 -1.67703,10.7258 -1.10703,3.24125 -2.85523,5.55199 -5.24458,6.93228 z"
         style="stroke-width:1"
         id="path14482"
         inkscape:original-d="m 601.7489,493.06964 q -2.66113,0 -4.98047,-0.53711 -2.31933,-0.53711 -4.93164,-1.66015 l -0.0488,-6.27442 h 3.6377 l 0.90332,3.78418 q 1.36719,0.56152 2.63672,0.83008 1.29394,0.24414 2.7832,0.24414 2.92969,0 4.19922,-1.12305 1.26953,-1.12304 1.26953,-2.7832 0,-1.5625 -1.29394,-2.63672 -1.26954,-1.09863 -4.63868,-1.85547 -4.78515,-1.09863 -7.05566,-2.92969 -2.24609,-1.85546 -2.24609,-4.93164 0,-2.14843 1.24511,-3.833 1.24512,-1.70899 3.4668,-2.70996 2.22168,-1.00098 5.17578,-1.00098 3.00293,0 5.12695,0.68359 2.14844,0.6836 3.73536,1.83106 l 0.24414,6.03027 h -3.61328 l -0.78125,-3.51562 q -0.8545,-0.63477 -2.02637,-0.97657 -1.17188,-0.34179 -2.68555,-0.34179 -2.24609,0 -3.66211,1.0498 -1.3916,1.04981 -1.3916,2.63672 0,0.92773 0.39063,1.61133 0.41503,0.68359 1.5625,1.24512 1.14746,0.5371 3.36914,1.07421 5.51757,1.29395 7.69043,3.2959 2.19726,2.00196 2.19726,4.93164 0,3.34473 -2.49023,5.61524 -2.46582,2.24609 -7.78809,2.24609 z" />
    </g>
  </g>
  <g
     inkscape:groupmode="layer"
     id="layer1"
     inkscape:label="Mặt trên"
     transform="translate(-138.32,0.133275)">
    <path
       d="m 350,324.24 c -1.6797,0 -2.8008,-0.55859 -3.9219,-1.1211 l -203.28,-117.6 c -2.8008,-1.6797 -3.9219,-3.9219 -3.9219,-7.2812 0,-2.8008 1.6797,-5.6016 3.9219,-7.2812 l 52.078,-30.238 c 3.9219,-2.2383 8.9609,-1.1211 11.199,2.8008 2.2381,3.9219 1.1211,8.9609 -2.8008,11.199 l -39.762,22.961 186.48,108.64 186.48,-107.52 -39.762,-22.961 c -3.9219,-2.2383 -5.0391,-7.2812 -2.8008,-11.199 2.2383,-3.9219 7.2812,-5.0391 11.199,-2.8008 l 52.078,30.238 c 2.8008,1.6797 3.9219,3.9219 3.9219,7.2812 0,2.8008 -1.6797,5.6016 -3.9219,7.2812 l -203.27,116.48 c -1.1211,0.55859 -2.2422,1.1172 -3.9219,1.1172 z"
       id="path67"
       style="display:inline;fill:#7b69d0;fill-opacity:1" />
    <path
       d="m 350,226.24 c -1.6797,0 -2.8008,-0.55859 -3.9219,-1.1211 l -182,-104.72 c -2.8008,-1.6797 -3.9219,-3.9219 -3.9219,-7.2812 0,-2.8008 1.6797,-5.6016 3.9219,-7.2812 l 182,-104.71 c 2.8008,-1.6797 5.6016,-1.6797 8.3984,0 l 182,104.72 c 2.8008,1.6797 3.9219,3.9219 3.9219,7.2812 0,2.8008 -1.6797,5.6016 -3.9219,7.2812 l -182.55,104.72 c -1.1211,1.1172 -2.2422,1.1172 -3.9219,1.1172 z M 184.8,113.12 350,208.319 515.2,113.12 350,17.921 Z"
       id="path73"
       style="display:inline;fill:#7b69d0;fill-opacity:1" />
    <path
       d="M 220.85992,113.12 350,187.53893 479.14008,113.12 350,38.701075 Z"
       id="path4616"
       style="display:none;fill:#fffafa;stroke:#ff0000;stroke-width:0.78172" />
    <g
       aria-label="Obsi dian"
       id="text9286"
       style="font-size:50px;line-height:1;font-family:'Roboto Slab';-inkscape-font-specification:'Roboto Slab';fill:#7b69d0;fill-opacity:1;fill-rule:evenodd;stroke-width:2.83465"
       inkscape:path-effect="#path-effect9755"
       transform="translate(-461.09056,-328.87582)"
       inkscape:label="Obsidian">
      <path
         d="m 756.76943,463.72256 c -2.88342,1.66161 -6.11085,2.78323 -9.6823,3.36484 -3.57146,0.58162 -7.32741,0.66803 -11.26787,0.25923 -3.94372,-0.43425 -7.94638,-1.32671 -12.00798,-2.67737 -4.04113,-1.36244 -7.99518,-3.15787 -11.86215,-5.38626 l -0.7473,-0.43065 c -3.84324,-2.21472 -6.94699,-4.48646 -9.31126,-6.81523 -2.36754,-2.35423 -3.9281,-4.66766 -4.68166,-6.94029 -0.73312,-2.28442 -0.59503,-4.45568 0.41426,-6.51379 1.00928,-2.0581 2.95564,-3.91795 5.83906,-5.57957 3.047,-1.75588 6.36646,-2.93052 9.95836,-3.52393 3.5919,-0.5934 7.33927,-0.66119 11.24209,-0.20337 3.92328,0.44604 7.8969,1.3689 11.92087,2.76859 4.00025,1.38601 7.92199,3.18638 11.76522,5.4011 l 0.74731,0.43065 c 3.86696,2.22839 7.00303,4.49519 9.40819,6.80039 2.40516,2.30521 3.99475,4.58823 4.76877,6.84908 0.77075,2.23539 0.64125,4.38803 -0.38849,6.45792 -1.02974,2.06989 -3.06811,3.98277 -6.11512,5.73866 z m -5.83604,-3.36311 c 2.9652,-1.70874 4.50377,-3.57969 4.6157,-5.61283 0.13236,-2.04492 -0.90219,-4.19665 -3.10367,-6.45518 -2.2252,-2.2722 -5.36617,-4.57718 -9.42292,-6.91494 l -0.81846,-0.47165 c -4.03305,-2.3241 -8.00755,-4.10774 -11.92352,-5.35092 -3.91925,-1.26863 -7.65316,-1.8648 -11.20175,-1.78852 -3.5723,0.0626 -6.82061,0.93649 -9.74492,2.62167 -2.67893,1.54377 -4.08293,3.35085 -4.21202,5.42123 -0.12911,2.07038 0.85596,4.26429 2.95519,6.58175 2.0755,2.30377 5.1179,4.61087 9.12721,6.9213 l 0.81847,0.47165 c 4.03303,2.3241 8.07216,4.09784 12.11738,5.32122 4.02149,1.20971 7.82862,1.77736 11.42138,1.70297 3.56903,-0.0881 6.69301,-0.90398 9.37193,-2.44775 z"
         id="path9288"
         inkscape:original-d="m 779.4325,430.84827 q -3.44239,0 -6.17676,-1.31836 -2.73438,-1.31836 -4.66309,-3.71094 -1.9043,-2.41699 -2.92969,-5.71289 -1.00097,-3.2959 -1.00097,-7.27539 v -0.5127 q 0,-3.95507 1.00097,-7.25097 1.02539,-3.32032 2.92969,-5.73731 1.92871,-2.41699 4.66309,-3.73535 2.73437,-1.31836 6.17676,-1.31836 3.63769,0 6.39648,1.31836 2.75879,1.31836 4.61426,3.73535 1.87988,2.41699 2.83203,5.73731 0.95215,3.2959 0.95215,7.25097 v 0.5127 q 0,3.97949 -0.95215,7.27539 -0.95215,3.2959 -2.83203,5.71289 -1.85547,2.39258 -4.61426,3.71094 -2.75879,1.31836 -6.39648,1.31836 z m 0,-4.00391 q 3.54003,0 5.71289,-1.75781 2.19726,-1.75781 3.22265,-4.90723 1.02539,-3.17383 1.02539,-7.34863 v -0.56152 q 0,-4.1504 -1.0498,-7.2754 -1.02539,-3.14941 -3.22266,-4.90722 -2.19726,-1.78223 -5.68847,-1.78223 -3.19825,0 -5.41993,1.78223 -2.22168,1.78222 -3.36914,4.93164 -1.14746,3.125 -1.14746,7.25098 v 0.56152 q 0,4.15039 1.14746,7.32422 1.14746,3.14941 3.36914,4.93164 2.22168,1.75781 5.41993,1.75781 z"
         style="fill:#7b69d0;fill-opacity:1" />
      <path
         d="m 797.41328,440.30092 c -2.16767,1.24916 -4.52353,2.0599 -7.06757,2.43224 -2.56774,0.35868 -5.3204,0.30441 -8.25796,-0.16282 l 4.39425,3.16861 -5.21468,3.00504 -49.99774,-28.81196 -5.99635,2.30711 -4.51937,-2.60435 11.04285,-6.36362 21.56487,12.42709 c -0.66517,-1.58534 -0.68165,-3.07967 -0.0494,-4.48301 0.65268,-1.41512 2.01173,-2.7178 4.07715,-3.90804 2.74026,-1.57911 5.93745,-2.42354 9.59157,-2.53329 3.65082,-0.1352 7.54139,0.39805 11.67169,1.59974 4.15074,1.18992 8.29007,2.97427 12.41799,5.35304 l 0.7473,0.43065 c 3.7009,2.1327 6.41772,4.29931 8.15047,6.49984 1.75318,2.18875 2.44129,4.29404 2.06434,6.31586 -0.38024,1.99637 -1.92003,3.77233 -4.61939,5.32787 z m -7.22743,-2.39723 c 2.84251,-1.63805 3.77451,-3.52857 2.79598,-5.67158 -0.95806,-2.15479 -3.37057,-4.34638 -7.23753,-6.57478 l -0.74731,-0.43064 c -2.96545,-1.70889 -5.86994,-3.02911 -8.71346,-3.96067 -2.86726,-0.94522 -5.55328,-1.4207 -8.05807,-1.42642 -2.52852,-0.0194 -4.75391,0.52479 -6.67618,1.63252 -1.86093,1.07239 -2.91364,2.28056 -3.15813,3.62452 -0.22404,1.33217 0.1634,2.72209 1.16231,4.16978 l 17.00991,9.80222 c 2.53592,0.58931 4.96998,0.81353 7.30216,0.67263 2.35263,-0.15267 4.4594,-0.7652 6.32032,-1.83758 z"
         id="path9290"
         inkscape:original-d="m 811.78113,430.84827 q -2.58789,0 -4.49219,-0.97657 -1.9043,-1.00097 -3.17383,-2.92968 l -0.43945,3.39355 h -4.15039 v -34.30176 l -3.97949,-0.68359 v -3.10059 h 8.78906 v 14.79493 q 1.24512,-1.75782 3.07617,-2.68555 1.85547,-0.92774 4.32129,-0.92774 3.27148,0 5.56641,1.78223 2.31933,1.75781 3.54004,4.95606 1.24511,3.19824 1.24511,7.44628 v 0.5127 q 0,3.80859 -1.24511,6.66504 -1.22071,2.85644 -3.54004,4.46777 -2.29493,1.58692 -5.51758,1.58692 z m -1.22071,-3.90625 q 3.39356,0 5.0293,-2.417 1.66016,-2.41699 1.66016,-6.39648 v -0.5127 q 0,-3.05175 -0.73242,-5.34667 -0.73243,-2.31934 -2.22168,-3.61329 -1.48926,-1.31836 -3.78418,-1.31836 -2.22168,0 -3.75977,1.07422 -1.51367,1.07422 -2.41699,2.88086 v 11.66992 q 0.90332,1.83106 2.44141,2.90528 1.5625,1.07422 3.78417,1.07422 z"
         style="fill:#7b69d0;fill-opacity:1" />
      <path
         d="m 828.33327,422.48281 c -2.22902,1.2845 -4.57585,2.33614 -7.0405,3.1549 -2.46464,0.81875 -5.33668,1.54417 -8.6161,2.17623 l -9.2068,-5.23489 4.57051,-2.63383 6.65073,2.52451 c 1.69083,-0.3455 3.19841,-0.74945 4.52275,-1.21186 1.32109,-0.48787 2.60535,-1.09122 3.85277,-1.81007 2.45397,-1.41414 3.667,-2.74204 3.6391,-3.98371 -0.0279,-1.24166 -0.84847,-2.32732 -2.46168,-3.25695 -1.51832,-0.87495 -3.34131,-1.30091 -5.46899,-1.27787 -2.13096,-0.002 -4.97519,0.59761 -8.53268,1.80006 -5.07571,1.69456 -9.45413,2.57715 -13.13524,2.64777 -3.68438,0.0452 -7.02116,-0.79354 -10.01034,-2.51611 -2.08769,-1.20306 -3.42854,-2.57675 -4.02254,-4.12107 -0.61772,-1.55798 -0.48246,-3.15343 0.40579,-4.78633 0.88825,-1.63291 2.56959,-3.16232 5.044,-4.58824 2.51532,-1.44949 4.99468,-2.49547 7.43808,-3.13792 2.46383,-0.65424 4.91788,-1.04309 7.36213,-1.16654 l 9.09639,4.8884 -4.53984,2.61616 -6.10592,-2.38732 c -1.33255,0.057 -2.65569,0.27264 -3.96941,0.6469 -1.31372,0.37425 -2.60453,0.9267 -3.87242,1.65734 -1.88137,1.08417 -2.90504,2.26194 -3.071,3.5333 -0.14552,1.25957 0.55275,2.33367 2.09479,3.2223 0.9015,0.5195 1.84798,0.87637 2.83944,1.07061 1.01192,0.18246 2.27127,0.15397 3.77804,-0.0855 1.48306,-0.2531 3.41602,-0.76546 5.79887,-1.53708 5.87899,-1.93873 10.70118,-2.87198 14.46655,-2.79976 3.78582,0.0604 7.10215,0.91092 9.949,2.55146 3.25015,1.87295 4.93544,4.04614 5.05587,6.51957 0.11716,2.44798 -2.05328,4.95648 -6.51132,7.52549 z"
         id="path9292"
         inkscape:original-d="m 836.3905,430.84827 q -2.66113,0 -4.98047,-0.53711 -2.31933,-0.53711 -4.93164,-1.66016 l -0.0488,-6.27441 h 3.63769 l 0.90332,3.78418 q 1.36719,0.56152 2.63672,0.83007 1.29395,0.24415 2.7832,0.24415 2.92969,0 4.19922,-1.12305 1.26953,-1.12305 1.26953,-2.7832 0,-1.5625 -1.29394,-2.63672 -1.26953,-1.09864 -4.63867,-1.85547 -4.78516,-1.09863 -7.05567,-2.92969 -2.24609,-1.85547 -2.24609,-4.93164 0,-2.14844 1.24512,-3.83301 1.24511,-1.70898 3.46679,-2.70996 2.22168,-1.00098 5.17578,-1.00098 3.00293,0 5.12696,0.6836 2.14843,0.68359 3.73535,1.83105 l 0.24414,6.03028 h -3.61328 l -0.78125,-3.51563 q -0.85449,-0.63476 -2.02637,-0.97656 -1.17187,-0.3418 -2.68555,-0.3418 -2.24609,0 -3.66211,1.04981 -1.3916,1.0498 -1.3916,2.63672 0,0.92773 0.39063,1.61132 0.41504,0.6836 1.5625,1.24512 1.14746,0.53711 3.36914,1.07422 5.51758,1.29394 7.69043,3.2959 2.19726,2.00195 2.19726,4.93164 0,3.34473 -2.49023,5.61523 -2.46582,2.2461 -7.78809,2.2461 z"
         style="fill:#7b69d0;fill-opacity:1" />
      <path
         d="m 845.28522,411.8527 -4.48378,-2.58385 4.00357,-3.45548 -27.50765,-15.85171 -5.99637,2.30711 -4.51936,-2.60435 11.04286,-6.36361 33.02342,19.03025 5.99634,-2.30712 4.48378,2.58385 z m -43.31173,-30.36811 -7.50856,-4.32693 6.34964,-3.65907 7.50856,4.32692 z"
         id="path9294"
         inkscape:original-d="m 850.47742,430.33557 v -3.07617 l 3.97949,-0.68359 v -18.87207 l -3.97949,-0.6836 v -3.10058 h 8.78906 v 22.65625 l 3.97949,0.68359 v 3.07617 z m 3.73535,-32.93457 v -5.15137 h 5.05371 v 5.15137 z"
         style="fill:#7b69d0;fill-opacity:1" />
      <path
         d="m 824.24996,508.83145 c -2.69937,1.55555 -5.79143,2.44877 -9.2762,2.67966 -3.48804,0.20545 -7.13114,-0.19698 -10.92931,-1.20728 -3.79816,-1.0103 -7.54769,-2.5818 -11.24859,-4.7145 l -0.7473,-0.43065 c -4.12792,-2.37877 -7.23454,-4.75823 -9.31986,-7.13837 -2.08533,-2.38016 -3.01068,-4.62215 -2.77607,-6.726 0.2109,-2.11752 1.67625,-3.95995 4.39607,-5.52728 1.96317,-1.13131 4.1182,-1.88102 6.46508,-2.24912 2.34362,-0.39356 4.84187,-0.43876 7.49475,-0.13558 l -15.69325,-9.04347 -5.99636,2.30712 -4.51938,-2.60436 4.99997,-2.88131 6.0429,-3.48231 50.03334,28.83247 5.99634,-2.30711 4.48378,2.58384 -10.24532,5.90403 -5.08132,-2.36255 c 0.67172,1.63625 0.67101,3.16782 -0.002,4.59473 -0.65268,1.41512 -2.01173,2.7178 -4.07715,3.90804 z M 820.09,504.66654 c 1.79957,-1.03704 2.83838,-2.18252 3.1164,-3.43643 0.27804,-1.25392 -0.0501,-2.60967 -0.98436,-4.06725 l -17.86396,-10.29438 c -2.39031,-0.48183 -4.68366,-0.63674 -6.88004,-0.46473 -2.19639,0.172 -4.16369,0.75884 -5.90193,1.76052 -1.92227,1.10774 -2.86658,2.39016 -2.83294,3.84725 0.01,1.44343 0.83503,2.99129 2.47529,4.64359 1.61654,1.63862 3.90754,3.31237 6.87299,5.02126 l 0.74731,0.43065 c 3.86696,2.22839 7.65983,3.62454 11.37861,4.18842 3.71879,0.56389 7.00966,0.0209 9.87263,-1.6289 z"
         id="path9296"
         inkscape:original-d="m 775.13562,480.84827 q -3.22266,0 -5.54199,-1.58692 -2.29492,-1.61133 -3.51563,-4.46777 -1.2207,-2.85645 -1.2207,-6.66504 v -0.5127 q 0,-4.24804 1.2207,-7.44628 1.22071,-3.19825 3.54004,-4.95606 2.31934,-1.78223 5.56641,-1.78223 2.34375,0 4.12597,0.87891 1.80665,0.85449 3.07618,2.49024 v -10.76661 l -3.9795,-0.68359 v -3.10059 h 3.9795 4.80957 v 34.32618 l 3.97949,0.68359 v 3.07617 h -8.1543 l -0.39062,-3.14941 q -1.29395,1.80664 -3.17383,2.73437 -1.85547,0.92774 -4.32129,0.92774 z m 1.2207,-3.90625 q 2.14844,0 3.61328,-0.97657 1.46485,-0.97656 2.417,-2.75878 v -12.25586 q -0.92774,-1.66016 -2.417,-2.63672 -1.48925,-0.97657 -3.56445,-0.97657 -2.29492,0 -3.78418,1.31836 -1.48926,1.29395 -2.22168,3.61329 -0.73242,2.29492 -0.73242,5.34667 v 0.5127 q 0,3.97949 1.63574,6.39648 1.63574,2.417 5.05371,2.417 z"
         style="fill:#7b69d0;fill-opacity:1" />
      <path
         d="m 847.61289,494.50691 -4.48378,-2.58385 4.00358,-3.45549 -27.50765,-15.8517 -5.99638,2.30711 -4.51936,-2.60435 11.04287,-6.36362 33.02342,19.03025 5.99635,-2.30712 4.48378,2.58385 z m -43.31173,-30.36811 -7.50856,-4.32692 6.34965,-3.65909 7.50856,4.32692 z"
         id="path9298"
         inkscape:original-d="m 794.32507,480.33557 v -3.07617 l 3.9795,-0.68359 v -18.87207 l -3.9795,-0.6836 v -3.10058 h 8.78907 v 22.65625 l 3.97949,0.68359 v 3.07617 z m 3.73535,-32.93457 v -5.15137 h 5.05372 v 5.15137 z"
         style="fill:#7b69d0;fill-opacity:1" />
      <path
         d="m 879.31087,477.10176 c -3.456,1.99157 -7.05646,2.94536 -10.80139,2.86135 -3.76864,-0.0977 -7.43224,-1.17183 -10.9908,-3.22251 -2.44355,-1.40813 -3.99423,-2.96166 -4.65204,-4.6606 -0.66109,-1.72439 -0.39578,-3.50415 0.79595,-5.33928 1.168,-1.8488 3.2755,-3.65114 6.32251,-5.40703 l 5.9202,-3.41161 -3.77207,-2.17371 c -2.32492,-1.33977 -4.74142,-2.02524 -7.24949,-2.05642 -2.48761,-0.043 -4.8357,0.57192 -7.04427,1.84464 -1.39059,0.80135 -2.39547,1.61284 -3.01465,2.43447 -0.64291,0.80797 -1.03959,1.65177 -1.19003,2.53139 l 4.72924,3.46773 -4.66254,2.68686 -8.82523,-5.08567 c 0.0931,-1.66687 0.77566,-3.27692 2.04758,-4.83015 1.24819,-1.5669 3.07881,-3.04563 5.49188,-4.4362 4.0286,-2.32154 8.3031,-3.49969 12.8235,-3.53446 4.52041,-0.0348 8.85643,1.14406 13.00808,3.53652 l 18.54009,10.68401 1.459,0.84077 c 0.49491,0.26164 1.00004,0.5174 1.51539,0.76726 l 3.61229,-1.63047 4.48378,2.58384 -8.68091,5.00251 c -1.2279,-0.49547 -2.30813,-0.95299 -3.24071,-1.37256 -0.93258,-0.41956 -1.83448,-0.85681 -2.70571,-1.31172 0.56619,1.6697 0.55118,3.34623 -0.045,5.02958 -0.59948,1.6579 -1.89104,3.05839 -3.87467,4.20149 z m -4.98205,-3.89624 c 2.00408,-1.15488 3.27682,-2.53086 3.81824,-4.12794 0.5414,-1.5971 0.3871,-3.05302 -0.46292,-4.36776 l -6.97478,-4.01933 -6.13492,3.53534 c -2.78117,1.6027 -4.09602,3.24902 -3.94456,4.93899 0.15146,1.68997 1.17614,3.0818 3.07403,4.17549 1.68438,0.97066 3.42723,1.45648 5.22852,1.45747 1.77757,-0.0127 3.57636,-0.54344 5.39639,-1.59226 z"
         id="path9300"
         inkscape:original-d="m 818.95886,480.84827 q -4.12597,0 -6.27441,-2.00196 -2.14844,-2.02636 -2.14844,-5.68847 0,-2.51465 1.36719,-4.37012 1.3916,-1.87988 4.0039,-2.90527 2.61231,-1.04981 6.25,-1.04981 h 4.71192 v -2.58789 q 0,-2.39258 -1.46485,-3.71094 -1.44042,-1.31836 -4.07714,-1.31836 -1.66016,0 -2.88086,0.41504 -1.22071,0.39063 -2.22168,1.09864 l -0.5127,3.68652 h -3.71094 v -6.05469 q 1.78223,-1.44043 4.1504,-2.17285 2.36816,-0.75684 5.24902,-0.75684 4.80957,0 7.54394,2.29493 2.73438,2.29492 2.73438,6.56738 v 12.71973 q 0,0.51269 0,1.00097 0.0244,0.48828 0.0732,0.97656 l 2.56348,0.26856 v 3.07617 h -6.90918 q -0.21973,-1.07422 -0.3418,-1.92871 -0.12207,-0.85449 -0.1709,-1.70898 -1.3916,1.78222 -3.49121,2.97851 -2.07519,1.17188 -4.44336,1.17188 z m 0.70801,-4.02832 q 2.39258,0 4.37012,-1.14746 1.97754,-1.14747 2.83203,-2.75879 v -4.78516 h -4.88281 q -3.32032,0 -4.98047,1.58691 -1.66016,1.58692 -1.66016,3.54004 0,1.7334 1.07422,2.66114 1.07422,0.90332 3.24707,0.90332 z"
         style="fill:#7b69d0;fill-opacity:1" />
      <path
         d="m 902.55111,462.84793 -4.48378,-2.58385 4.00357,-3.45549 -27.50765,-15.8517 -5.99637,2.30711 -4.51936,-2.60435 10.3987,-5.9924 6.15871,3.05411 c -0.93596,-1.81208 -1.13323,-3.51667 -0.59181,-5.11375 0.53813,-1.62255 1.87059,-3.04661 3.99737,-4.2722 3.5787,-2.06228 7.57141,-2.95502 11.97813,-2.67819 4.383,0.26315 9.11294,1.85754 14.18981,4.78316 l 18.82478,10.84806 5.99635,-2.30711 4.48378,2.58384 -16.04282,9.24492 -4.48378,-2.58385 4.00357,-3.45548 -18.68244,-10.76604 c -3.39249,-1.95498 -6.38326,-3.00674 -8.97232,-3.1553 -2.56861,-0.16034 -5.039,0.44299 -7.41117,1.80999 -1.73823,1.00168 -2.79585,2.17167 -3.17286,3.50997 -0.35656,1.3265 -0.0914,2.70488 0.79543,4.13513 l 22.59685,13.02177 5.99635,-2.30711 4.48378,2.58384 z"
         id="path9302"
         inkscape:original-d="m 838.05066,480.33557 v -3.07617 l 3.97949,-0.68359 v -18.87207 l -3.97949,-0.6836 v -3.10058 h 8.27637 l 0.34179,3.93066 q 1.31836,-2.09961 3.2959,-3.24707 2.00195,-1.17188 4.54102,-1.17188 4.27246,0 6.61621,2.51465 2.34375,2.49024 2.34375,7.71485 v 12.91504 l 3.97949,0.68359 v 3.07617 h -12.76855 v -3.07617 l 3.97949,-0.68359 v -12.81739 q 0,-3.49121 -1.3916,-4.95605 -1.36719,-1.46485 -4.19922,-1.46485 -2.0752,0 -3.68653,1.00098 -1.58691,1.00098 -2.53906,2.73438 v 15.50293 l 3.97949,0.68359 v 3.07617 z"
         style="fill:#7b69d0;fill-opacity:1" />
    </g>
  </g>
</svg>
