<?xml version="1.0" encoding="UTF-8" standalone="no"?>
<!-- Created with Inkscape (http://www.inkscape.org/) -->

<svg
   width="248.12015mm"
   height="196.84999mm"
   viewBox="30 30 278.47582 220.93314"
   version="1.1"
   id="svg21719"
   inkscape:version="1.2.2 (732a01da63, 2022-12-09)"
   sodipodi:docname="Nhu cầu của người làm kinh doanh cá nhân.svg"
   inkscape:export-filename="Thuê lập trình viên"
   inkscape:export-xdpi="286.27"
   inkscape:export-ydpi="286.27"
   xmlns:inkscape="http://www.inkscape.org/namespaces/inkscape"
   xmlns:sodipodi="http://sodipodi.sourceforge.net/DTD/sodipodi-0.dtd"
   xmlns="http://www.w3.org/2000/svg"
   xmlns:svg="http://www.w3.org/2000/svg">
  <sodipodi:namedview
     id="namedview21721"
     pagecolor="#ffffff"
     bordercolor="#666666"
     borderopacity="1.0"
     inkscape:showpageshadow="2"
     inkscape:pageopacity="0.0"
     inkscape:pagecheckerboard="false"
     inkscape:deskcolor="#d1d1d1"
     inkscape:document-units="mm"
     showgrid="false"
     inkscape:zoom="1"
     inkscape:cx="456.5"
     inkscape:cy="363"
     inkscape:window-width="1920"
     inkscape:window-height="1009"
     inkscape:window-x="-8"
     inkscape:window-y="-8"
     inkscape:window-maximized="1"
     inkscape:current-layer="svg21719"
     inkscape:lockguides="true">
    <inkscape:grid
       type="xygrid"
       id="grid3262"
       originx="49.517271"
       originy="39.96718" />
  </sodipodi:namedview>
  <defs
     id="defs21716">
    <inkscape:path-effect
       effect="powerstroke"
       id="path-effect2675"
       is_visible="true"
       lpeversion="1"
       offset_points="3.3724428,1.1962026"
       not_jump="true"
       sort_points="true"
       interpolator_type="CentripetalCatmullRom"
       interpolator_beta="0.75"
       start_linecap_type="round"
       linejoin_type="spiro"
       miter_limit="4"
       scale_width="1"
       end_linecap_type="round" />
    <inkscape:path-effect
       effect="simplify"
       id="path-effect2673"
       is_visible="true"
       lpeversion="1"
       steps="1"
       threshold="0.0032025118"
       smooth_angles="0"
       helper_size="0"
       simplify_individual_paths="false"
       simplify_just_coalesce="false"
       step="1" />
    <inkscape:path-effect
       effect="powerstroke"
       id="path-effect1707"
       is_visible="true"
       lpeversion="1"
       offset_points="2.7050406,1.1962026"
       not_jump="true"
       sort_points="true"
       interpolator_type="CentripetalCatmullRom"
       interpolator_beta="0.75"
       start_linecap_type="round"
       linejoin_type="spiro"
       miter_limit="4"
       scale_width="1"
       end_linecap_type="round" />
    <inkscape:path-effect
       effect="simplify"
       id="path-effect1705"
       is_visible="true"
       lpeversion="1"
       steps="1"
       threshold="0.0032025118"
       smooth_angles="0"
       helper_size="0"
       simplify_individual_paths="false"
       simplify_just_coalesce="false"
       step="1" />
    <inkscape:path-effect
       effect="powerstroke"
       id="path-effect639"
       is_visible="true"
       lpeversion="1"
       offset_points="2.4072607,0.93287268"
       not_jump="true"
       sort_points="true"
       interpolator_type="CentripetalCatmullRom"
       interpolator_beta="0.75"
       start_linecap_type="round"
       linejoin_type="spiro"
       miter_limit="4"
       scale_width="1"
       end_linecap_type="round" />
    <inkscape:path-effect
       effect="simplify"
       id="path-effect637"
       is_visible="true"
       lpeversion="1"
       steps="1"
       threshold="0.0032025118"
       smooth_angles="0"
       helper_size="0"
       simplify_individual_paths="false"
       simplify_just_coalesce="false"
       step="1" />
    <inkscape:path-effect
       effect="powerstroke"
       id="path-effect632"
       is_visible="true"
       lpeversion="1"
       offset_points="2.8313715,0.93287268"
       not_jump="true"
       sort_points="true"
       interpolator_type="CentripetalCatmullRom"
       interpolator_beta="0.75"
       start_linecap_type="round"
       linejoin_type="spiro"
       miter_limit="4"
       scale_width="1"
       end_linecap_type="round" />
    <inkscape:path-effect
       effect="simplify"
       id="path-effect630"
       is_visible="true"
       lpeversion="1"
       steps="1"
       threshold="0.0032025118"
       smooth_angles="0"
       helper_size="0"
       simplify_individual_paths="false"
       simplify_just_coalesce="false"
       step="1" />
    <inkscape:path-effect
       effect="powerstroke"
       id="path-effect8196"
       is_visible="true"
       lpeversion="1"
       offset_points="3.9573706,0.93287268"
       not_jump="true"
       sort_points="true"
       interpolator_type="CentripetalCatmullRom"
       interpolator_beta="0.75"
       start_linecap_type="round"
       linejoin_type="spiro"
       miter_limit="4"
       scale_width="1"
       end_linecap_type="round" />
    <inkscape:path-effect
       effect="simplify"
       id="path-effect8194"
       is_visible="true"
       lpeversion="1"
       steps="1"
       threshold="0.0032025118"
       smooth_angles="0"
       helper_size="0"
       simplify_individual_paths="false"
       simplify_just_coalesce="false"
       step="1" />
    <inkscape:path-effect
       effect="powerstroke"
       id="path-effect3359"
       is_visible="true"
       lpeversion="1"
       offset_points="4.5210561,0.93287268"
       not_jump="true"
       sort_points="true"
       interpolator_type="CentripetalCatmullRom"
       interpolator_beta="0.75"
       start_linecap_type="round"
       linejoin_type="spiro"
       miter_limit="4"
       scale_width="1"
       end_linecap_type="round" />
    <inkscape:path-effect
       effect="simplify"
       id="path-effect3357"
       is_visible="true"
       lpeversion="1"
       steps="1"
       threshold="0.0032025118"
       smooth_angles="0"
       helper_size="0"
       simplify_individual_paths="false"
       simplify_just_coalesce="false"
       step="1" />
    <inkscape:path-effect
       effect="powerstroke"
       id="path-effect3351"
       is_visible="true"
       lpeversion="1"
       offset_points="4.2714819,0.93287268"
       not_jump="true"
       sort_points="true"
       interpolator_type="CentripetalCatmullRom"
       interpolator_beta="0.75"
       start_linecap_type="round"
       linejoin_type="spiro"
       miter_limit="4"
       scale_width="1"
       end_linecap_type="round" />
    <inkscape:path-effect
       effect="simplify"
       id="path-effect3349"
       is_visible="true"
       lpeversion="1"
       steps="1"
       threshold="0.0032025118"
       smooth_angles="0"
       helper_size="0"
       simplify_individual_paths="false"
       simplify_just_coalesce="false"
       step="1" />
    <inkscape:path-effect
       effect="powerstroke"
       id="path-effect3344"
       is_visible="true"
       lpeversion="1"
       offset_points="4.2605357,0.93287268"
       not_jump="true"
       sort_points="true"
       interpolator_type="CentripetalCatmullRom"
       interpolator_beta="0.75"
       start_linecap_type="round"
       linejoin_type="spiro"
       miter_limit="4"
       scale_width="1"
       end_linecap_type="round" />
    <inkscape:path-effect
       effect="simplify"
       id="path-effect3342"
       is_visible="true"
       lpeversion="1"
       steps="1"
       threshold="0.0032025118"
       smooth_angles="0"
       helper_size="0"
       simplify_individual_paths="false"
       simplify_just_coalesce="false"
       step="1" />
    <inkscape:path-effect
       effect="powerstroke"
       id="path-effect3337"
       is_visible="true"
       lpeversion="1"
       offset_points="2.7979683,0.93287268"
       not_jump="true"
       sort_points="true"
       interpolator_type="CentripetalCatmullRom"
       interpolator_beta="0.75"
       start_linecap_type="round"
       linejoin_type="spiro"
       miter_limit="4"
       scale_width="1"
       end_linecap_type="round" />
    <inkscape:path-effect
       effect="simplify"
       id="path-effect3335"
       is_visible="true"
       lpeversion="1"
       steps="1"
       threshold="0.0032025118"
       smooth_angles="0"
       helper_size="0"
       simplify_individual_paths="false"
       simplify_just_coalesce="false"
       step="1" />
    <inkscape:path-effect
       effect="powerstroke"
       id="path-effect3163"
       is_visible="true"
       lpeversion="1"
       offset_points="4.5405427,0.93287268"
       not_jump="true"
       sort_points="true"
       interpolator_type="CentripetalCatmullRom"
       interpolator_beta="0.75"
       start_linecap_type="round"
       linejoin_type="spiro"
       miter_limit="4"
       scale_width="1"
       end_linecap_type="round" />
    <inkscape:path-effect
       effect="simplify"
       id="path-effect3161"
       is_visible="true"
       lpeversion="1"
       steps="1"
       threshold="0.0032025118"
       smooth_angles="0"
       helper_size="0"
       simplify_individual_paths="false"
       simplify_just_coalesce="false"
       step="1" />
    <inkscape:path-effect
       effect="powerstroke"
       id="path-effect841"
       is_visible="true"
       lpeversion="1"
       offset_points="3.9362398,0.93287268"
       not_jump="true"
       sort_points="true"
       interpolator_type="CentripetalCatmullRom"
       interpolator_beta="0.75"
       start_linecap_type="round"
       linejoin_type="spiro"
       miter_limit="4"
       scale_width="1"
       end_linecap_type="round" />
    <inkscape:path-effect
       effect="simplify"
       id="path-effect839"
       is_visible="true"
       lpeversion="1"
       steps="1"
       threshold="0.0032025118"
       smooth_angles="0"
       helper_size="0"
       simplify_individual_paths="false"
       simplify_just_coalesce="false"
       step="1" />
    <inkscape:path-effect
       effect="powerstroke"
       id="path-effect834"
       is_visible="true"
       lpeversion="1"
       offset_points="4.0933614,0.93287268"
       not_jump="true"
       sort_points="true"
       interpolator_type="CentripetalCatmullRom"
       interpolator_beta="0.75"
       start_linecap_type="round"
       linejoin_type="spiro"
       miter_limit="4"
       scale_width="1"
       end_linecap_type="round" />
    <inkscape:path-effect
       effect="simplify"
       id="path-effect832"
       is_visible="true"
       lpeversion="1"
       steps="1"
       threshold="0.0032025118"
       smooth_angles="0"
       helper_size="0"
       simplify_individual_paths="false"
       simplify_just_coalesce="false"
       step="1" />
    <inkscape:path-effect
       effect="powerstroke"
       id="path-effect8795"
       is_visible="true"
       lpeversion="1"
       offset_points="3.1777961,0.93287268"
       not_jump="true"
       sort_points="true"
       interpolator_type="CentripetalCatmullRom"
       interpolator_beta="0.75"
       start_linecap_type="round"
       linejoin_type="spiro"
       miter_limit="4"
       scale_width="1"
       end_linecap_type="round" />
    <inkscape:path-effect
       effect="simplify"
       id="path-effect8793"
       is_visible="true"
       lpeversion="1"
       steps="1"
       threshold="0.0032025118"
       smooth_angles="0"
       helper_size="0"
       simplify_individual_paths="false"
       simplify_just_coalesce="false"
       step="1" />
    <inkscape:path-effect
       effect="powerstroke"
       id="path-effect8574"
       is_visible="true"
       lpeversion="1"
       offset_points="4.4394661,0.93287268"
       not_jump="true"
       sort_points="true"
       interpolator_type="CentripetalCatmullRom"
       interpolator_beta="0.75"
       start_linecap_type="round"
       linejoin_type="spiro"
       miter_limit="4"
       scale_width="1"
       end_linecap_type="round" />
    <inkscape:path-effect
       effect="simplify"
       id="path-effect8572"
       is_visible="true"
       lpeversion="1"
       steps="1"
       threshold="0.0032025118"
       smooth_angles="0"
       helper_size="0"
       simplify_individual_paths="false"
       simplify_just_coalesce="false"
       step="1" />
    <inkscape:path-effect
       effect="powerstroke"
       id="path-effect4152"
       is_visible="true"
       lpeversion="1"
       offset_points="4.4384505,0.93287268"
       not_jump="true"
       sort_points="true"
       interpolator_type="CentripetalCatmullRom"
       interpolator_beta="0.75"
       start_linecap_type="round"
       linejoin_type="spiro"
       miter_limit="4"
       scale_width="1"
       end_linecap_type="round" />
    <inkscape:path-effect
       effect="simplify"
       id="path-effect4150"
       is_visible="true"
       lpeversion="1"
       steps="1"
       threshold="0.0032025118"
       smooth_angles="0"
       helper_size="0"
       simplify_individual_paths="false"
       simplify_just_coalesce="false"
       step="1" />
    <inkscape:path-effect
       effect="powerstroke"
       id="path-effect4145"
       is_visible="true"
       lpeversion="1"
       offset_points="4.3475523,0.93287268"
       not_jump="true"
       sort_points="true"
       interpolator_type="CentripetalCatmullRom"
       interpolator_beta="0.75"
       start_linecap_type="round"
       linejoin_type="spiro"
       miter_limit="4"
       scale_width="1"
       end_linecap_type="round" />
    <inkscape:path-effect
       effect="simplify"
       id="path-effect4143"
       is_visible="true"
       lpeversion="1"
       steps="1"
       threshold="0.0032025118"
       smooth_angles="0"
       helper_size="0"
       simplify_individual_paths="false"
       simplify_just_coalesce="false"
       step="1" />
    <inkscape:path-effect
       effect="powerstroke"
       id="path-effect4138"
       is_visible="true"
       lpeversion="1"
       offset_points="2.8556735,0.93287268"
       not_jump="true"
       sort_points="true"
       interpolator_type="CentripetalCatmullRom"
       interpolator_beta="0.75"
       start_linecap_type="round"
       linejoin_type="spiro"
       miter_limit="4"
       scale_width="1"
       end_linecap_type="round" />
    <inkscape:path-effect
       effect="simplify"
       id="path-effect4136"
       is_visible="true"
       lpeversion="1"
       steps="1"
       threshold="0.0032025118"
       smooth_angles="0"
       helper_size="0"
       simplify_individual_paths="false"
       simplify_just_coalesce="false"
       step="1" />
    <inkscape:path-effect
       effect="powerstroke"
       id="path-effect3402"
       is_visible="true"
       lpeversion="1"
       offset_points="3.9591161,0.93287268"
       not_jump="true"
       sort_points="true"
       interpolator_type="CentripetalCatmullRom"
       interpolator_beta="0.75"
       start_linecap_type="round"
       linejoin_type="spiro"
       miter_limit="4"
       scale_width="1"
       end_linecap_type="round" />
    <inkscape:path-effect
       effect="simplify"
       id="path-effect3400"
       is_visible="true"
       lpeversion="1"
       steps="1"
       threshold="0.0032025118"
       smooth_angles="0"
       helper_size="0"
       simplify_individual_paths="false"
       simplify_just_coalesce="false"
       step="1" />
    <inkscape:path-effect
       effect="powerstroke"
       id="path-effect3395"
       is_visible="true"
       lpeversion="1"
       offset_points="4.4569056,0.93287268"
       not_jump="true"
       sort_points="true"
       interpolator_type="CentripetalCatmullRom"
       interpolator_beta="0.75"
       start_linecap_type="round"
       linejoin_type="spiro"
       miter_limit="4"
       scale_width="1"
       end_linecap_type="round" />
    <inkscape:path-effect
       effect="simplify"
       id="path-effect3393"
       is_visible="true"
       lpeversion="1"
       steps="1"
       threshold="0.0032025118"
       smooth_angles="0"
       helper_size="0"
       simplify_individual_paths="false"
       simplify_just_coalesce="false"
       step="1" />
    <inkscape:path-effect
       effect="powerstroke"
       id="path-effect2483"
       is_visible="true"
       lpeversion="1"
       offset_points="3.8018571,0.93287268"
       not_jump="true"
       sort_points="true"
       interpolator_type="CentripetalCatmullRom"
       interpolator_beta="0.75"
       start_linecap_type="round"
       linejoin_type="spiro"
       miter_limit="4"
       scale_width="1"
       end_linecap_type="round" />
    <inkscape:path-effect
       effect="simplify"
       id="path-effect2481"
       is_visible="true"
       lpeversion="1"
       steps="1"
       threshold="0.0032025118"
       smooth_angles="0"
       helper_size="0"
       simplify_individual_paths="false"
       simplify_just_coalesce="false"
       step="1" />
    <inkscape:path-effect
       effect="powerstroke"
       id="path-effect2469"
       is_visible="true"
       lpeversion="1"
       offset_points="3.8966166,0.93287268"
       not_jump="true"
       sort_points="true"
       interpolator_type="CentripetalCatmullRom"
       interpolator_beta="0.75"
       start_linecap_type="round"
       linejoin_type="spiro"
       miter_limit="4"
       scale_width="1"
       end_linecap_type="round" />
    <inkscape:path-effect
       effect="simplify"
       id="path-effect2467"
       is_visible="true"
       lpeversion="1"
       steps="1"
       threshold="0.0032025118"
       smooth_angles="0"
       helper_size="0"
       simplify_individual_paths="false"
       simplify_just_coalesce="false"
       step="1" />
    <inkscape:path-effect
       effect="powerstroke"
       id="path-effect2462"
       is_visible="true"
       lpeversion="1"
       offset_points="3.0821764,0.93287268"
       not_jump="true"
       sort_points="true"
       interpolator_type="CentripetalCatmullRom"
       interpolator_beta="0.75"
       start_linecap_type="round"
       linejoin_type="spiro"
       miter_limit="4"
       scale_width="1"
       end_linecap_type="round" />
    <inkscape:path-effect
       effect="simplify"
       id="path-effect2460"
       is_visible="true"
       lpeversion="1"
       steps="1"
       threshold="0.0032025118"
       smooth_angles="0"
       helper_size="0"
       simplify_individual_paths="false"
       simplify_just_coalesce="false"
       step="1" />
    <inkscape:path-effect
       effect="powerstroke"
       id="path-effect1695"
       is_visible="true"
       lpeversion="1"
       offset_points="4.2556891,0.93287268"
       not_jump="true"
       sort_points="true"
       interpolator_type="CentripetalCatmullRom"
       interpolator_beta="0.75"
       start_linecap_type="round"
       linejoin_type="spiro"
       miter_limit="4"
       scale_width="1"
       end_linecap_type="round" />
    <inkscape:path-effect
       effect="simplify"
       id="path-effect1693"
       is_visible="true"
       lpeversion="1"
       steps="1"
       threshold="0.0032025118"
       smooth_angles="0"
       helper_size="0"
       simplify_individual_paths="false"
       simplify_just_coalesce="false"
       step="1" />
    <inkscape:path-effect
       effect="powerstroke"
       id="path-effect46025"
       is_visible="true"
       lpeversion="1"
       offset_points="3.359749,0.93287268"
       not_jump="true"
       sort_points="true"
       interpolator_type="CentripetalCatmullRom"
       interpolator_beta="0.75"
       start_linecap_type="round"
       linejoin_type="spiro"
       miter_limit="4"
       scale_width="1"
       end_linecap_type="round" />
    <inkscape:path-effect
       effect="simplify"
       id="path-effect46023"
       is_visible="true"
       lpeversion="1"
       steps="1"
       threshold="0.0032025118"
       smooth_angles="0"
       helper_size="0"
       simplify_individual_paths="false"
       simplify_just_coalesce="false"
       step="1" />
    <rect
       x="582.93524"
       y="201.36337"
       width="225.65234"
       height="126.92944"
       id="rect35820" />
    <inkscape:path-effect
       effect="powerstroke"
       id="path-effect23730"
       is_visible="true"
       lpeversion="1"
       offset_points="4.3274676,1.190625"
       not_jump="true"
       sort_points="true"
       interpolator_type="CentripetalCatmullRom"
       interpolator_beta="0.75"
       start_linecap_type="round"
       linejoin_type="spiro"
       miter_limit="4"
       scale_width="1"
       end_linecap_type="round" />
    <inkscape:path-effect
       effect="simplify"
       id="path-effect23728"
       is_visible="true"
       lpeversion="1"
       steps="1"
       threshold="0.0032025118"
       smooth_angles="0"
       helper_size="0"
       simplify_individual_paths="false"
       simplify_just_coalesce="false"
       step="1" />
    <inkscape:path-effect
       effect="powerstroke"
       id="path-effect23721"
       is_visible="true"
       lpeversion="1"
       offset_points="5.8030023,1.190625"
       not_jump="true"
       sort_points="true"
       interpolator_type="CentripetalCatmullRom"
       interpolator_beta="0.75"
       start_linecap_type="round"
       linejoin_type="spiro"
       miter_limit="4"
       scale_width="1"
       end_linecap_type="round" />
    <inkscape:path-effect
       effect="simplify"
       id="path-effect23719"
       is_visible="true"
       lpeversion="1"
       steps="1"
       threshold="0.0032025118"
       smooth_angles="0"
       helper_size="0"
       simplify_individual_paths="false"
       simplify_just_coalesce="false"
       step="1" />
  </defs>
  <rect
     style="display:inline;fill:#ffffff;fill-opacity:1;stroke:none;stroke-width:1.17205;stroke-dasharray:none;stroke-opacity:1"
     id="rect3379"
     width="278.47583"
     height="220.93315"
     x="30"
     y="30"
     inkscape:label="Hình nền" />
  <g
     inkscape:groupmode="layer"
     id="layer3"
     inkscape:label="Tự xây dựng ERP"
     style="display:none"
     transform="translate(-49.028012,43.416031)">
    <text
       xml:space="preserve"
       style="font-size:15.8882px;line-height:3;font-family:'000 SkippySharp iCiel';-inkscape-font-specification:'000 SkippySharp iCiel';text-align:end;text-anchor:end;fill:#808000;fill-opacity:0.737255;stroke:none;stroke-width:0.372379;stroke-dasharray:11.2593, 1.40742"
       x="285.27411"
       y="13.151702"
       id="text2040"><tspan
         sodipodi:role="line"
         id="tspan2038"
         style="font-size:15.8882px;fill:#808000;fill-opacity:0.737255;stroke-width:0.372379"
         x="285.27411"
         y="13.151702">Tự xây dựng ERP</tspan></text>
    <path
       style="fill:none;stroke:#808000;stroke-width:1.10274;stroke-opacity:1"
       d="m 228.89204,84.295355 c -3.93154,-0.130508 -24.74168,-0.236066 -46.24477,-0.234577 -41.69028,0.003 -48.69191,-0.161344 -51.68211,-1.212315 -3.49159,-1.227192 -6.22876,-3.569758 -9.75357,-8.347415 -1.17521,-1.592928 -3.07331,-3.955733 -4.218,-5.250676 -3.50202,-3.961691 -3.89287,-4.675919 -4.66742,-8.529098 -0.37733,-1.877121 -1.01198,-4.74844 -1.41032,-6.38071 -1.08215,-4.434238 -1.4605,-8.108619 -1.26783,-12.312417 0.17445,-3.806464 0.37956,-4.89029 1.44267,-7.623378 1.65863,-4.264086 2.84551,-5.202974 9.87829,-7.814316 l 4.49234,-1.668048 7.73177,0.06672 c 13.58686,0.117255 24.39259,0.855982 35.30357,2.413512 4.80892,0.686467 6.33584,0.803439 7.79072,0.596809 1.7573,-0.24958 42.02588,0.130061 44.14347,0.416172 0.56165,0.07589 2.39976,0.27813 4.08471,0.449432 1.68494,0.171306 6.47718,0.697642 10.64942,1.169641 12.04423,1.362537 21.6539,2.338875 24.65415,2.504849 1.52447,0.08433 4.21601,0.469917 5.98119,0.856856 5.50079,1.205818 6.23942,1.243309 21.29885,1.081056 14.48155,-0.156027 32.85179,0.266553 35.8357,0.824344 3.10319,0.580089 4.59401,1.991192 5.80525,5.494763 0.58091,1.680352 0.66112,2.45832 0.63442,6.154106 -0.0287,3.97945 -0.0845,4.375249 -0.93873,6.667387 -0.99366,2.66632 -3.62236,7.797708 -5.07959,9.915714 -1.3943,2.026568 -5.10436,5.795124 -7.12619,7.23858 -2.47715,1.768509 -6.2393,3.469368 -8.86565,4.008164 -1.21042,0.24831 -3.86933,0.847893 -5.90874,1.332411 -5.0256,1.193969 -12.70204,2.763526 -17.12824,3.502108 -2.00589,0.334713 -5.02565,0.930286 -6.7106,1.323497 -4.55462,1.062898 -8.59365,1.64759 -11.37884,1.647206 -1.364,-1.86e-4 -3.98988,0.253427 -5.8353,0.563586 -1.84541,0.310158 -4.53694,0.701715 -5.98118,0.870132 -3.59867,0.419649 -16.87639,0.563146 -25.52944,0.275903 z"
       id="path838" />
  </g>
  <g
     inkscape:groupmode="layer"
     id="layer5"
     inkscape:label="Dùng ERP dựng sẵn"
     style="display:none"
     transform="translate(-49.028013,43.416031)">
    <text
       xml:space="preserve"
       style="font-size:15.8882px;line-height:3;font-family:'000 SkippySharp iCiel';-inkscape-font-specification:'000 SkippySharp iCiel';text-align:end;text-anchor:end;fill:#f4a460;stroke:none;stroke-width:0.372379;stroke-dasharray:11.2593, 1.40742"
       x="295.10132"
       y="189.04329"
       id="text1984"><tspan
         sodipodi:role="line"
         id="tspan1982"
         style="font-size:15.8882px;stroke-width:0.372379"
         x="295.10132"
         y="189.04329">Dùng ERP dựng sẵn</tspan></text>
    <path
       style="fill:none;fill-opacity:1;stroke:#f4a460;stroke-width:1.41446;stroke-dasharray:none;stroke-opacity:1"
       d="m 207.08509,170.15307 c -3.062,-0.31848 -6.19886,-1.05191 -8.30722,-1.94232 -3.1035,-1.31069 -16.12136,-12.28869 -16.96425,-14.30602 -3.111,-7.44567 0.22396,-29.05328 5.57303,-36.10826 0.67791,-0.89411 1.62361,-2.61645 2.10157,-3.82743 1.72005,-4.358 16.71717,-21.144002 26.55563,-29.723215 7.61346,-6.639004 11.71393,-10.797762 16.44372,-16.677473 2.13693,-2.656478 6.59268,-7.631187 9.90167,-11.054912 5.82228,-6.024179 11.3633,-11.986327 16.92906,-18.215717 3.80071,-4.253883 9.83143,-9.038924 11.7859,-9.351459 1.02091,-0.163247 2.25432,-0.832842 3.75995,-2.041187 1.5296,-1.22758 3.14869,-2.100646 5.10202,-2.751164 l 2.86137,-0.952923 15.52488,0.0037 c 8.53866,0.0019 17.96601,0.173752 20.94966,0.381592 9.26161,0.645159 15.72217,2.05999 17.87929,3.915468 0.97638,0.839835 0.99895,0.961693 1.14168,6.158999 0.2203,8.021043 -0.88507,15.245111 -4.0322,26.352 -0.82672,2.917721 -2.34015,9.008705 -3.36322,13.53552 -2.35545,10.422466 -3.35771,13.611187 -5.81207,18.491549 -1.08656,2.160569 -2.52268,5.443506 -3.1914,7.29542 -1.77819,4.924412 -3.77329,8.589562 -8.50541,15.624912 -2.36324,3.51345 -5.47395,8.77876 -7.07302,11.97197 -3.95556,7.89906 -4.83524,9.16934 -10.03611,14.49208 -2.51323,2.57211 -6.71583,7.24308 -9.33917,10.37994 -6.72516,8.04168 -9.8946,10.5585 -18.7363,14.87832 -7.8385,3.82968 -6.63482,3.69917 -34.41941,3.73203 -13.16917,0.0156 -25.19751,-0.10206 -26.72965,-0.26142 z"
       id="path1918" />
  </g>
  <g
     inkscape:groupmode="layer"
     id="layer4"
     inkscape:label="Thuê lập trình viên"
     style="display:inline"
     transform="translate(-49.028013,43.416031)">
    <text
       xml:space="preserve"
       style="font-style:normal;font-variant:normal;font-weight:normal;font-stretch:normal;font-size:15.8882px;line-height:1;font-family:'000 SkippySharp iCiel';-inkscape-font-specification:'000 SkippySharp iCiel';text-align:end;text-anchor:end;display:inline;fill:#fa8072;fill-opacity:1;stroke:#ff6347;stroke-width:0.372379;stroke-dasharray:11.2593, 1.40742;stroke-dashoffset:0;stroke-opacity:1"
       x="142.6925"
       y="118.26684"
       id="text46403"><tspan
         sodipodi:role="line"
         id="tspan46401"
         style="font-style:normal;font-weight:bold;font-size:15.8882px;stroke:none;stroke-width:0.372379"
         x="142.6925"
         y="118.26684">Thuê lập</tspan><tspan
         sodipodi:role="line"
         style="font-style:normal;font-weight:bold;font-size:15.8882px;stroke:none;stroke-width:0.372379"
         x="142.6925"
         y="134.15504"
         id="tspan2922">trình viên</tspan></text>
    <path
       style="fill:#000000;fill-opacity:0;stroke:#fa8072;stroke-width:1.42108;stroke-dasharray:none;stroke-opacity:1"
       d="m 238.86541,168.85421 c -0.72019,-0.0745 -4.93617,-0.63679 -9.36884,-1.24958 -7.12152,-0.9845 -8.55825,-1.30397 -12.3461,-2.7453 -7.03471,-2.67681 -10.75917,-4.29277 -15.81194,-6.86046 -4.54506,-2.30967 -4.91603,-2.58576 -7.22576,-5.37758 -1.33911,-1.6186 -3.98128,-4.2793 -5.87151,-5.91268 -5.09649,-4.40395 -11.48044,-11.02492 -11.48044,-11.90668 0,-1.97836 -3.96402,-5.59074 -13.41756,-12.22733 -8.94459,-6.27929 -12.46809,-9.49152 -29.63535,-27.017315 -4.11289,-4.198793 -6.60748,-7.114455 -8.47822,-9.909305 -1.45787,-2.178015 -3.59102,-5.038256 -4.74034,-6.356089 -1.78982,-2.052236 -2.27857,-2.962965 -3.40612,-6.346805 -0.95482,-2.865469 -1.87642,-4.755251 -3.35492,-6.879375 -1.12115,-1.610743 -2.20133,-3.454365 -2.40039,-4.096939 -1.06246,-3.42971 -0.72896,-22.000562 0.51154,-28.484041 0.64014,-3.345742 1.10538,-4.297757 2.10026,-4.297757 1.11045,0 2.60537,-0.882897 4.06348,-2.399886 0.70911,-0.737744 1.41414,-1.341356 1.56673,-1.341356 0.15259,0 1.90558,-1.103871 3.89551,-2.453047 3.3228,-2.252856 3.6706,-2.405521 4.26165,-1.870623 0.98048,0.887317 2.10278,0.699995 3.13161,-0.522695 0.78973,-0.938549 1.12162,-1.074013 2.20182,-0.898719 1.64833,0.267487 2.34856,-0.50771 2.06073,-2.281362 -0.19879,-1.224987 -0.12805,-1.324908 1.49373,-2.11 1.61539,-0.781997 2.02036,-0.812197 7.92331,-0.590907 9.3281,0.349695 30.70459,3.39264 37.26314,5.304411 4.96632,1.447644 7.21206,2.820716 11.9098,7.281775 2.30318,2.187146 5.19773,4.747513 6.43234,5.689704 1.23461,0.942192 3.70163,3.038421 5.48228,4.658284 17.40726,15.835544 20.70425,18.652436 25.21741,21.545293 2.75739,1.767444 3.69119,2.775066 8.76622,9.459218 1.71856,2.26345 3.7273,4.714039 4.46387,5.445747 0.73658,0.731707 2.6019,3.592912 4.14517,6.358225 2.36763,4.242481 3.39437,5.641753 6.57312,8.958032 2.13288,2.225166 4.43106,5.066318 5.29747,6.549052 0.84165,1.440379 3.32647,4.72332 5.52181,7.29542 8.5758,10.04755 9.83515,12.18654 10.85836,18.44289 1.32049,8.074 1.07312,15.5876 -0.82778,25.14257 -1.16807,5.87139 -1.71574,7.21204 -4.7124,11.53556 -3.43917,4.96197 -4.13297,5.58188 -7.3715,6.58644 -1.54326,0.4787 -3.22682,1.16486 -3.74124,1.5248 -2.46764,1.72658 -7.81482,2.64313 -14.8985,2.5537 -2.60866,-0.0329 -5.33226,-0.12081 -6.05245,-0.19529 z"
       id="path2749" />
  </g>
  <g
     inkscape:groupmode="layer"
     id="layer2"
     inkscape:label="Nét nghĩa"
     style="display:inline"
     transform="translate(-49.028013,43.416031)">
    <g
       inkscape:groupmode="layer"
       id="layer1"
       inkscape:label="Có khả năng tuỳ chỉnh theo đúng luồng làm việc, suy nghĩ của mình">
      <text
         xml:space="preserve"
         style="font-style:normal;font-variant:normal;font-weight:normal;font-stretch:normal;font-size:10.9231px;line-height:1;font-family:'000 SkippySharp iCiel';-inkscape-font-specification:'000 SkippySharp iCiel';text-align:end;text-anchor:end;display:inline;fill:#000000;fill-opacity:1;stroke:none;stroke-width:0.372379;stroke-dasharray:11.2593, 1.40742;stroke-dashoffset:0;stroke-opacity:1"
         x="198.64671"
         y="43.197109"
         id="text32876"
         inkscape:label="Có khả năng tuỳ chỉnh theo đúng luồng làm việc, suy nghĩ của mình"><tspan
           sodipodi:role="line"
           style="font-style:normal;font-variant:normal;font-weight:normal;font-stretch:normal;font-size:10.9231px;font-family:'000 SkippySharp iCiel';-inkscape-font-specification:'000 SkippySharp iCiel';text-align:end;text-anchor:end;fill:#000000;fill-opacity:1;stroke:none;stroke-width:0.372379"
           x="198.64671"
           y="43.197109"
           id="tspan35090">Có khả năng tuỳ chỉnh</tspan><tspan
           sodipodi:role="line"
           style="font-style:normal;font-variant:normal;font-weight:normal;font-stretch:normal;font-size:10.9231px;font-family:'000 SkippySharp iCiel';-inkscape-font-specification:'000 SkippySharp iCiel';text-align:end;text-anchor:end;fill:#000000;fill-opacity:1;stroke:none;stroke-width:0.372379"
           x="198.64671"
           y="54.120209"
           id="tspan554">theo đúng luồng làm</tspan><tspan
           sodipodi:role="line"
           style="font-style:normal;font-variant:normal;font-weight:normal;font-stretch:normal;font-size:10.9231px;font-family:'000 SkippySharp iCiel';-inkscape-font-specification:'000 SkippySharp iCiel';text-align:end;text-anchor:end;fill:#000000;fill-opacity:1;stroke:none;stroke-width:0.372379"
           x="198.64671"
           y="65.043304"
           id="tspan556">việc, suy nghĩ của mình</tspan></text>
      <g
         stroke-linecap="round"
         transform="matrix(0.51361471,0,0,0.51361471,203.03917,50.036284)"
         id="g32882"
         style="display:inline">
        <path
           d="m 1.17,1.02 c 0,0 0,0 0,0 m 0,0 c 0,0 0,0 0,0 M 1.65,6.58 C 1.67,6.52 2.02,6.29 2.16,5.88 M 1.6,6.68 C 1.77,6.41 2.04,6.09 2.26,5.93 M 2.21,5.71 c 1.2,-0.93 2.04,-2 2.93,-2.52 m -3,2.78 C 2.88,5.04 3.51,4.66 4.72,2.73 m -5.13,2.32 c 0,0 0,0 0,0 m 0,0 c 0,0 0,0 0,0 M 4.44,4.23 C 3.61,2.92 2.07,2.03 1.82,1.04 M 4.43,4.01 C 3.33,2.88 2.46,1.96 1.36,1.26"
           stroke="#ffc9c9"
           stroke-width="0.5"
           fill="none"
           id="path32878" />
        <path
           d="M 2.37,0.8 C 2.82,0.62 3.7,0.47 3.79,0.55 3.88,0.62 2.84,0.67 2.9,1.24 2.96,1.8 4.32,3.29 4.14,3.95 3.96,4.61 2.16,4.71 1.83,5.2 1.49,5.69 2.46,6.88 2.14,6.9 1.81,6.91 0.2,6.02 -0.13,5.29 -0.46,4.57 -0.06,3.26 0.16,2.54 0.38,1.82 0.8,1.37 1.19,0.99 1.58,0.6 2.43,0.22 2.48,0.24 2.54,0.26 1.5,1.11 1.52,1.09 M 2.96,1.3 C 2.92,1.18 1.43,-0.08 1.61,0.12 1.79,0.33 3.49,1.53 4.04,2.52 4.58,3.51 5.31,5.59 4.91,6.05 4.5,6.51 2.26,5.09 1.61,5.28 0.96,5.47 1.19,7.08 1,7.2 0.81,7.31 0.56,6.52 0.46,5.96 0.37,5.4 0.43,4.77 0.43,3.82 0.43,2.87 0.04,0.82 0.49,0.26 0.94,-0.3 2.7,0.41 3.12,0.47 3.55,0.53 3.34,0.51 3.02,0.62"
           stroke="#1e1e1e"
           stroke-width="1"
           fill="none"
           id="path32880" />
      </g>
    </g>
    <g
       inkscape:groupmode="layer"
       id="layer6"
       inkscape:label="Chi phí thấp">
      <g
         stroke-linecap="round"
         transform="matrix(0.51361471,0,0,0.51361471,266.88901,47.941991)"
         id="g36576"
         style="display:inline">
        <path
           d="m 1.17,1.02 c 0,0 0,0 0,0 m 0,0 c 0,0 0,0 0,0 M 1.65,6.58 C 1.67,6.52 2.02,6.29 2.16,5.88 M 1.6,6.68 C 1.77,6.41 2.04,6.09 2.26,5.93 M 2.21,5.71 c 1.2,-0.93 2.04,-2 2.93,-2.52 m -3,2.78 C 2.88,5.04 3.51,4.66 4.72,2.73 m -5.13,2.32 c 0,0 0,0 0,0 m 0,0 c 0,0 0,0 0,0 M 4.44,4.23 C 3.61,2.92 2.07,2.03 1.82,1.04 M 4.43,4.01 C 3.33,2.88 2.46,1.96 1.36,1.26"
           stroke="#ffc9c9"
           stroke-width="0.5"
           fill="none"
           id="path36572" />
        <path
           d="M 2.37,0.8 C 2.82,0.62 3.7,0.47 3.79,0.55 3.88,0.62 2.84,0.67 2.9,1.24 2.96,1.8 4.32,3.29 4.14,3.95 3.96,4.61 2.16,4.71 1.83,5.2 1.49,5.69 2.46,6.88 2.14,6.9 1.81,6.91 0.2,6.02 -0.13,5.29 -0.46,4.57 -0.06,3.26 0.16,2.54 0.38,1.82 0.8,1.37 1.19,0.99 1.58,0.6 2.43,0.22 2.48,0.24 2.54,0.26 1.5,1.11 1.52,1.09 M 2.96,1.3 C 2.92,1.18 1.43,-0.08 1.61,0.12 1.79,0.33 3.49,1.53 4.04,2.52 4.58,3.51 5.31,5.59 4.91,6.05 4.5,6.51 2.26,5.09 1.61,5.28 0.96,5.47 1.19,7.08 1,7.2 0.81,7.31 0.56,6.52 0.46,5.96 0.37,5.4 0.43,4.77 0.43,3.82 0.43,2.87 0.04,0.82 0.49,0.26 0.94,-0.3 2.7,0.41 3.12,0.47 3.55,0.53 3.34,0.51 3.02,0.62"
           stroke="#1e1e1e"
           stroke-width="1"
           fill="none"
           id="path36574" />
      </g>
      <text
         xml:space="preserve"
         style="font-style:normal;font-variant:normal;font-weight:normal;font-stretch:normal;font-size:10.9231px;line-height:1;font-family:'000 SkippySharp iCiel';-inkscape-font-specification:'000 SkippySharp iCiel';text-align:start;text-anchor:start;display:inline;fill:#000000;fill-opacity:1;stroke:none;stroke-width:0.372379;stroke-dasharray:11.2593, 1.40742;stroke-dashoffset:0;stroke-opacity:1"
         x="274.68057"
         y="53.549728"
         id="text36570"
         inkscape:label="Chi phí thấp"><tspan
           sodipodi:role="line"
           style="font-style:normal;font-variant:normal;font-weight:normal;font-stretch:normal;font-size:10.9231px;font-family:'000 SkippySharp iCiel';-inkscape-font-specification:'000 SkippySharp iCiel';text-align:start;text-anchor:start;fill:#000000;fill-opacity:1;stroke:none;stroke-width:0.372379"
           x="274.68057"
           y="53.549728"
           id="tspan36580">Chi phí thấp</tspan></text>
    </g>
    <g
       inkscape:groupmode="layer"
       id="layer7"
       inkscape:label="Không phải dành quá nhiều thời gian để xây dựng hệ thống">
      <text
         xml:space="preserve"
         style="font-style:normal;font-variant:normal;font-weight:normal;font-stretch:normal;font-size:10.9231px;line-height:1;font-family:'000 SkippySharp iCiel';-inkscape-font-specification:'000 SkippySharp iCiel';text-align:end;text-anchor:end;display:inline;fill:#000000;fill-opacity:1;stroke:none;stroke-width:0.372379;stroke-dasharray:11.2593, 1.40742;stroke-dashoffset:0;stroke-opacity:1"
         x="261.24124"
         y="132.66029"
         id="text35828"
         inkscape:label="Không phải dành quá nhiều thời gian để xây dựng hệ thống"><tspan
           sodipodi:role="line"
           style="font-style:normal;font-variant:normal;font-weight:normal;font-stretch:normal;font-size:10.9231px;font-family:'000 SkippySharp iCiel';-inkscape-font-specification:'000 SkippySharp iCiel';text-align:end;text-anchor:end;fill:#000000;fill-opacity:1;stroke:none;stroke-width:0.372379"
           x="261.24124"
           y="132.66029"
           id="tspan35838">Không phải dành quá</tspan><tspan
           sodipodi:role="line"
           style="font-style:normal;font-variant:normal;font-weight:normal;font-stretch:normal;font-size:10.9231px;font-family:'000 SkippySharp iCiel';-inkscape-font-specification:'000 SkippySharp iCiel';text-align:end;text-anchor:end;fill:#000000;fill-opacity:1;stroke:none;stroke-width:0.372379"
           x="261.24124"
           y="143.58339"
           id="tspan560">nhiều thời gian để</tspan><tspan
           sodipodi:role="line"
           style="font-style:normal;font-variant:normal;font-weight:normal;font-stretch:normal;font-size:10.9231px;font-family:'000 SkippySharp iCiel';-inkscape-font-specification:'000 SkippySharp iCiel';text-align:end;text-anchor:end;fill:#000000;fill-opacity:1;stroke:none;stroke-width:0.372379"
           x="261.24124"
           y="154.5065"
           id="tspan562">xây dựng hệ thống</tspan></text>
      <g
         stroke-linecap="round"
         transform="matrix(0.51361471,0,0,0.51361471,227.65148,116.6073)"
         id="g35834"
         style="display:inline">
        <path
           d="m 1.17,1.02 c 0,0 0,0 0,0 m 0,0 c 0,0 0,0 0,0 M 1.65,6.58 C 1.67,6.52 2.02,6.29 2.16,5.88 M 1.6,6.68 C 1.77,6.41 2.04,6.09 2.26,5.93 M 2.21,5.71 c 1.2,-0.93 2.04,-2 2.93,-2.52 m -3,2.78 C 2.88,5.04 3.51,4.66 4.72,2.73 m -5.13,2.32 c 0,0 0,0 0,0 m 0,0 c 0,0 0,0 0,0 M 4.44,4.23 C 3.61,2.92 2.07,2.03 1.82,1.04 M 4.43,4.01 C 3.33,2.88 2.46,1.96 1.36,1.26"
           stroke="#ffc9c9"
           stroke-width="0.5"
           fill="none"
           id="path35830" />
        <path
           d="M 2.37,0.8 C 2.82,0.62 3.7,0.47 3.79,0.55 3.88,0.62 2.84,0.67 2.9,1.24 2.96,1.8 4.32,3.29 4.14,3.95 3.96,4.61 2.16,4.71 1.83,5.2 1.49,5.69 2.46,6.88 2.14,6.9 1.81,6.91 0.2,6.02 -0.13,5.29 -0.46,4.57 -0.06,3.26 0.16,2.54 0.38,1.82 0.8,1.37 1.19,0.99 1.58,0.6 2.43,0.22 2.48,0.24 2.54,0.26 1.5,1.11 1.52,1.09 M 2.96,1.3 C 2.92,1.18 1.43,-0.08 1.61,0.12 1.79,0.33 3.49,1.53 4.04,2.52 4.58,3.51 5.31,5.59 4.91,6.05 4.5,6.51 2.26,5.09 1.61,5.28 0.96,5.47 1.19,7.08 1,7.2 0.81,7.31 0.56,6.52 0.46,5.96 0.37,5.4 0.43,4.77 0.43,3.82 0.43,2.87 0.04,0.82 0.49,0.26 0.94,-0.3 2.7,0.41 3.12,0.47 3.55,0.53 3.34,0.51 3.02,0.62"
           stroke="#1e1e1e"
           stroke-width="1"
           fill="none"
           id="path35832" />
      </g>
    </g>
  </g>
</svg>
