<?xml version="1.0" encoding="UTF-8" standalone="no"?>
<!-- Created with Inkscape (http://www.inkscape.org/) -->

<svg
   width="297mm"
   height="210mm"
   viewBox="0 0 297 210"
   version="1.1"
   id="svg21719"
   inkscape:version="1.2.2 (732a01da63, 2022-12-09)"
   sodipodi:docname="Các nét nghĩa của philanthropy.svg"
   xmlns:inkscape="http://www.inkscape.org/namespaces/inkscape"
   xmlns:sodipodi="http://sodipodi.sourceforge.net/DTD/sodipodi-0.dtd"
   xmlns="http://www.w3.org/2000/svg"
   xmlns:svg="http://www.w3.org/2000/svg">
  <sodipodi:namedview
     id="namedview21721"
     pagecolor="#ffffff"
     bordercolor="#666666"
     borderopacity="1.0"
     inkscape:showpageshadow="2"
     inkscape:pageopacity="0.0"
     inkscape:pagecheckerboard="false"
     inkscape:deskcolor="#d1d1d1"
     inkscape:document-units="mm"
     showgrid="false"
     inkscape:zoom="1.2762996"
     inkscape:cx="539.45014"
     inkscape:cy="445.03657"
     inkscape:window-width="2160"
     inkscape:window-height="1268"
     inkscape:window-x="-12"
     inkscape:window-y="-12"
     inkscape:window-maximized="1"
     inkscape:current-layer="layer1" />
  <defs
     id="defs21716">
    <inkscape:path-effect
       effect="powerstroke"
       id="path-effect8196"
       is_visible="true"
       lpeversion="1"
       offset_points="3.9573706,0.93287268"
       not_jump="true"
       sort_points="true"
       interpolator_type="CentripetalCatmullRom"
       interpolator_beta="0.75"
       start_linecap_type="round"
       linejoin_type="spiro"
       miter_limit="4"
       scale_width="1"
       end_linecap_type="round" />
    <inkscape:path-effect
       effect="simplify"
       id="path-effect8194"
       is_visible="true"
       lpeversion="1"
       steps="1"
       threshold="0.0032025118"
       smooth_angles="0"
       helper_size="0"
       simplify_individual_paths="false"
       simplify_just_coalesce="false"
       step="1" />
    <inkscape:path-effect
       effect="powerstroke"
       id="path-effect3359"
       is_visible="true"
       lpeversion="1"
       offset_points="4.5210561,0.93287268"
       not_jump="true"
       sort_points="true"
       interpolator_type="CentripetalCatmullRom"
       interpolator_beta="0.75"
       start_linecap_type="round"
       linejoin_type="spiro"
       miter_limit="4"
       scale_width="1"
       end_linecap_type="round" />
    <inkscape:path-effect
       effect="simplify"
       id="path-effect3357"
       is_visible="true"
       lpeversion="1"
       steps="1"
       threshold="0.0032025118"
       smooth_angles="0"
       helper_size="0"
       simplify_individual_paths="false"
       simplify_just_coalesce="false"
       step="1" />
    <inkscape:path-effect
       effect="powerstroke"
       id="path-effect3351"
       is_visible="true"
       lpeversion="1"
       offset_points="4.2714819,0.93287268"
       not_jump="true"
       sort_points="true"
       interpolator_type="CentripetalCatmullRom"
       interpolator_beta="0.75"
       start_linecap_type="round"
       linejoin_type="spiro"
       miter_limit="4"
       scale_width="1"
       end_linecap_type="round" />
    <inkscape:path-effect
       effect="simplify"
       id="path-effect3349"
       is_visible="true"
       lpeversion="1"
       steps="1"
       threshold="0.0032025118"
       smooth_angles="0"
       helper_size="0"
       simplify_individual_paths="false"
       simplify_just_coalesce="false"
       step="1" />
    <inkscape:path-effect
       effect="powerstroke"
       id="path-effect3344"
       is_visible="true"
       lpeversion="1"
       offset_points="4.2605357,0.93287268"
       not_jump="true"
       sort_points="true"
       interpolator_type="CentripetalCatmullRom"
       interpolator_beta="0.75"
       start_linecap_type="round"
       linejoin_type="spiro"
       miter_limit="4"
       scale_width="1"
       end_linecap_type="round" />
    <inkscape:path-effect
       effect="simplify"
       id="path-effect3342"
       is_visible="true"
       lpeversion="1"
       steps="1"
       threshold="0.0032025118"
       smooth_angles="0"
       helper_size="0"
       simplify_individual_paths="false"
       simplify_just_coalesce="false"
       step="1" />
    <inkscape:path-effect
       effect="powerstroke"
       id="path-effect3337"
       is_visible="true"
       lpeversion="1"
       offset_points="2.7979683,0.93287268"
       not_jump="true"
       sort_points="true"
       interpolator_type="CentripetalCatmullRom"
       interpolator_beta="0.75"
       start_linecap_type="round"
       linejoin_type="spiro"
       miter_limit="4"
       scale_width="1"
       end_linecap_type="round" />
    <inkscape:path-effect
       effect="simplify"
       id="path-effect3335"
       is_visible="true"
       lpeversion="1"
       steps="1"
       threshold="0.0032025118"
       smooth_angles="0"
       helper_size="0"
       simplify_individual_paths="false"
       simplify_just_coalesce="false"
       step="1" />
    <inkscape:path-effect
       effect="powerstroke"
       id="path-effect3163"
       is_visible="true"
       lpeversion="1"
       offset_points="4.5405427,0.93287268"
       not_jump="true"
       sort_points="true"
       interpolator_type="CentripetalCatmullRom"
       interpolator_beta="0.75"
       start_linecap_type="round"
       linejoin_type="spiro"
       miter_limit="4"
       scale_width="1"
       end_linecap_type="round" />
    <inkscape:path-effect
       effect="simplify"
       id="path-effect3161"
       is_visible="true"
       lpeversion="1"
       steps="1"
       threshold="0.0032025118"
       smooth_angles="0"
       helper_size="0"
       simplify_individual_paths="false"
       simplify_just_coalesce="false"
       step="1" />
    <inkscape:path-effect
       effect="powerstroke"
       id="path-effect841"
       is_visible="true"
       lpeversion="1"
       offset_points="3.9362398,0.93287268"
       not_jump="true"
       sort_points="true"
       interpolator_type="CentripetalCatmullRom"
       interpolator_beta="0.75"
       start_linecap_type="round"
       linejoin_type="spiro"
       miter_limit="4"
       scale_width="1"
       end_linecap_type="round" />
    <inkscape:path-effect
       effect="simplify"
       id="path-effect839"
       is_visible="true"
       lpeversion="1"
       steps="1"
       threshold="0.0032025118"
       smooth_angles="0"
       helper_size="0"
       simplify_individual_paths="false"
       simplify_just_coalesce="false"
       step="1" />
    <inkscape:path-effect
       effect="powerstroke"
       id="path-effect834"
       is_visible="true"
       lpeversion="1"
       offset_points="4.0933614,0.93287268"
       not_jump="true"
       sort_points="true"
       interpolator_type="CentripetalCatmullRom"
       interpolator_beta="0.75"
       start_linecap_type="round"
       linejoin_type="spiro"
       miter_limit="4"
       scale_width="1"
       end_linecap_type="round" />
    <inkscape:path-effect
       effect="simplify"
       id="path-effect832"
       is_visible="true"
       lpeversion="1"
       steps="1"
       threshold="0.0032025118"
       smooth_angles="0"
       helper_size="0"
       simplify_individual_paths="false"
       simplify_just_coalesce="false"
       step="1" />
    <inkscape:path-effect
       effect="powerstroke"
       id="path-effect8795"
       is_visible="true"
       lpeversion="1"
       offset_points="3.1777961,0.93287268"
       not_jump="true"
       sort_points="true"
       interpolator_type="CentripetalCatmullRom"
       interpolator_beta="0.75"
       start_linecap_type="round"
       linejoin_type="spiro"
       miter_limit="4"
       scale_width="1"
       end_linecap_type="round" />
    <inkscape:path-effect
       effect="simplify"
       id="path-effect8793"
       is_visible="true"
       lpeversion="1"
       steps="1"
       threshold="0.0032025118"
       smooth_angles="0"
       helper_size="0"
       simplify_individual_paths="false"
       simplify_just_coalesce="false"
       step="1" />
    <inkscape:path-effect
       effect="powerstroke"
       id="path-effect8574"
       is_visible="true"
       lpeversion="1"
       offset_points="4.4394661,0.93287268"
       not_jump="true"
       sort_points="true"
       interpolator_type="CentripetalCatmullRom"
       interpolator_beta="0.75"
       start_linecap_type="round"
       linejoin_type="spiro"
       miter_limit="4"
       scale_width="1"
       end_linecap_type="round" />
    <inkscape:path-effect
       effect="simplify"
       id="path-effect8572"
       is_visible="true"
       lpeversion="1"
       steps="1"
       threshold="0.0032025118"
       smooth_angles="0"
       helper_size="0"
       simplify_individual_paths="false"
       simplify_just_coalesce="false"
       step="1" />
    <inkscape:path-effect
       effect="powerstroke"
       id="path-effect4152"
       is_visible="true"
       lpeversion="1"
       offset_points="4.4384505,0.93287268"
       not_jump="true"
       sort_points="true"
       interpolator_type="CentripetalCatmullRom"
       interpolator_beta="0.75"
       start_linecap_type="round"
       linejoin_type="spiro"
       miter_limit="4"
       scale_width="1"
       end_linecap_type="round" />
    <inkscape:path-effect
       effect="simplify"
       id="path-effect4150"
       is_visible="true"
       lpeversion="1"
       steps="1"
       threshold="0.0032025118"
       smooth_angles="0"
       helper_size="0"
       simplify_individual_paths="false"
       simplify_just_coalesce="false"
       step="1" />
    <inkscape:path-effect
       effect="powerstroke"
       id="path-effect4145"
       is_visible="true"
       lpeversion="1"
       offset_points="4.3475523,0.93287268"
       not_jump="true"
       sort_points="true"
       interpolator_type="CentripetalCatmullRom"
       interpolator_beta="0.75"
       start_linecap_type="round"
       linejoin_type="spiro"
       miter_limit="4"
       scale_width="1"
       end_linecap_type="round" />
    <inkscape:path-effect
       effect="simplify"
       id="path-effect4143"
       is_visible="true"
       lpeversion="1"
       steps="1"
       threshold="0.0032025118"
       smooth_angles="0"
       helper_size="0"
       simplify_individual_paths="false"
       simplify_just_coalesce="false"
       step="1" />
    <inkscape:path-effect
       effect="powerstroke"
       id="path-effect4138"
       is_visible="true"
       lpeversion="1"
       offset_points="2.8556735,0.93287268"
       not_jump="true"
       sort_points="true"
       interpolator_type="CentripetalCatmullRom"
       interpolator_beta="0.75"
       start_linecap_type="round"
       linejoin_type="spiro"
       miter_limit="4"
       scale_width="1"
       end_linecap_type="round" />
    <inkscape:path-effect
       effect="simplify"
       id="path-effect4136"
       is_visible="true"
       lpeversion="1"
       steps="1"
       threshold="0.0032025118"
       smooth_angles="0"
       helper_size="0"
       simplify_individual_paths="false"
       simplify_just_coalesce="false"
       step="1" />
    <inkscape:path-effect
       effect="powerstroke"
       id="path-effect3402"
       is_visible="true"
       lpeversion="1"
       offset_points="3.9591161,0.93287268"
       not_jump="true"
       sort_points="true"
       interpolator_type="CentripetalCatmullRom"
       interpolator_beta="0.75"
       start_linecap_type="round"
       linejoin_type="spiro"
       miter_limit="4"
       scale_width="1"
       end_linecap_type="round" />
    <inkscape:path-effect
       effect="simplify"
       id="path-effect3400"
       is_visible="true"
       lpeversion="1"
       steps="1"
       threshold="0.0032025118"
       smooth_angles="0"
       helper_size="0"
       simplify_individual_paths="false"
       simplify_just_coalesce="false"
       step="1" />
    <inkscape:path-effect
       effect="powerstroke"
       id="path-effect3395"
       is_visible="true"
       lpeversion="1"
       offset_points="4.4569056,0.93287268"
       not_jump="true"
       sort_points="true"
       interpolator_type="CentripetalCatmullRom"
       interpolator_beta="0.75"
       start_linecap_type="round"
       linejoin_type="spiro"
       miter_limit="4"
       scale_width="1"
       end_linecap_type="round" />
    <inkscape:path-effect
       effect="simplify"
       id="path-effect3393"
       is_visible="true"
       lpeversion="1"
       steps="1"
       threshold="0.0032025118"
       smooth_angles="0"
       helper_size="0"
       simplify_individual_paths="false"
       simplify_just_coalesce="false"
       step="1" />
    <inkscape:path-effect
       effect="powerstroke"
       id="path-effect2483"
       is_visible="true"
       lpeversion="1"
       offset_points="3.8018571,0.93287268"
       not_jump="true"
       sort_points="true"
       interpolator_type="CentripetalCatmullRom"
       interpolator_beta="0.75"
       start_linecap_type="round"
       linejoin_type="spiro"
       miter_limit="4"
       scale_width="1"
       end_linecap_type="round" />
    <inkscape:path-effect
       effect="simplify"
       id="path-effect2481"
       is_visible="true"
       lpeversion="1"
       steps="1"
       threshold="0.0032025118"
       smooth_angles="0"
       helper_size="0"
       simplify_individual_paths="false"
       simplify_just_coalesce="false"
       step="1" />
    <inkscape:path-effect
       effect="powerstroke"
       id="path-effect2469"
       is_visible="true"
       lpeversion="1"
       offset_points="3.8966166,0.93287268"
       not_jump="true"
       sort_points="true"
       interpolator_type="CentripetalCatmullRom"
       interpolator_beta="0.75"
       start_linecap_type="round"
       linejoin_type="spiro"
       miter_limit="4"
       scale_width="1"
       end_linecap_type="round" />
    <inkscape:path-effect
       effect="simplify"
       id="path-effect2467"
       is_visible="true"
       lpeversion="1"
       steps="1"
       threshold="0.0032025118"
       smooth_angles="0"
       helper_size="0"
       simplify_individual_paths="false"
       simplify_just_coalesce="false"
       step="1" />
    <inkscape:path-effect
       effect="powerstroke"
       id="path-effect2462"
       is_visible="true"
       lpeversion="1"
       offset_points="3.0821764,0.93287268"
       not_jump="true"
       sort_points="true"
       interpolator_type="CentripetalCatmullRom"
       interpolator_beta="0.75"
       start_linecap_type="round"
       linejoin_type="spiro"
       miter_limit="4"
       scale_width="1"
       end_linecap_type="round" />
    <inkscape:path-effect
       effect="simplify"
       id="path-effect2460"
       is_visible="true"
       lpeversion="1"
       steps="1"
       threshold="0.0032025118"
       smooth_angles="0"
       helper_size="0"
       simplify_individual_paths="false"
       simplify_just_coalesce="false"
       step="1" />
    <inkscape:path-effect
       effect="powerstroke"
       id="path-effect1695"
       is_visible="true"
       lpeversion="1"
       offset_points="4.2556891,0.93287268"
       not_jump="true"
       sort_points="true"
       interpolator_type="CentripetalCatmullRom"
       interpolator_beta="0.75"
       start_linecap_type="round"
       linejoin_type="spiro"
       miter_limit="4"
       scale_width="1"
       end_linecap_type="round" />
    <inkscape:path-effect
       effect="simplify"
       id="path-effect1693"
       is_visible="true"
       lpeversion="1"
       steps="1"
       threshold="0.0032025118"
       smooth_angles="0"
       helper_size="0"
       simplify_individual_paths="false"
       simplify_just_coalesce="false"
       step="1" />
    <inkscape:path-effect
       effect="powerstroke"
       id="path-effect46025"
       is_visible="true"
       lpeversion="1"
       offset_points="3.359749,0.93287268"
       not_jump="true"
       sort_points="true"
       interpolator_type="CentripetalCatmullRom"
       interpolator_beta="0.75"
       start_linecap_type="round"
       linejoin_type="spiro"
       miter_limit="4"
       scale_width="1"
       end_linecap_type="round" />
    <inkscape:path-effect
       effect="simplify"
       id="path-effect46023"
       is_visible="true"
       lpeversion="1"
       steps="1"
       threshold="0.0032025118"
       smooth_angles="0"
       helper_size="0"
       simplify_individual_paths="false"
       simplify_just_coalesce="false"
       step="1" />
    <rect
       x="582.93523"
       y="201.36338"
       width="225.65235"
       height="126.92944"
       id="rect35820" />
    <inkscape:path-effect
       effect="powerstroke"
       id="path-effect23730"
       is_visible="true"
       lpeversion="1"
       offset_points="4.3274676,1.190625"
       not_jump="true"
       sort_points="true"
       interpolator_type="CentripetalCatmullRom"
       interpolator_beta="0.75"
       start_linecap_type="round"
       linejoin_type="spiro"
       miter_limit="4"
       scale_width="1"
       end_linecap_type="round" />
    <inkscape:path-effect
       effect="simplify"
       id="path-effect23728"
       is_visible="true"
       lpeversion="1"
       steps="1"
       threshold="0.0032025118"
       smooth_angles="0"
       helper_size="0"
       simplify_individual_paths="false"
       simplify_just_coalesce="false"
       step="1" />
    <inkscape:path-effect
       effect="powerstroke"
       id="path-effect23721"
       is_visible="true"
       lpeversion="1"
       offset_points="5.8030023,1.190625"
       not_jump="true"
       sort_points="true"
       interpolator_type="CentripetalCatmullRom"
       interpolator_beta="0.75"
       start_linecap_type="round"
       linejoin_type="spiro"
       miter_limit="4"
       scale_width="1"
       end_linecap_type="round" />
    <inkscape:path-effect
       effect="simplify"
       id="path-effect23719"
       is_visible="true"
       lpeversion="1"
       steps="1"
       threshold="0.0032025118"
       smooth_angles="0"
       helper_size="0"
       simplify_individual_paths="false"
       simplify_just_coalesce="false"
       step="1" />
  </defs>
  <g
     inkscape:groupmode="layer"
     id="layer3"
     inkscape:label="Thiện nguyện"
     style="display:inline">
    <text
       xml:space="preserve"
       style="font-size:16.9333px;line-height:3;font-family:'000 SkippySharp iCiel';-inkscape-font-specification:'000 SkippySharp iCiel';text-align:end;text-anchor:end;fill:#d2b48c;stroke:none;stroke-width:0.264583;stroke-dasharray:7.99999, 1"
       x="82.922012"
       y="113.60316"
       id="text2040"><tspan
         sodipodi:role="line"
         id="tspan2038"
         style="font-size:16.9333px;stroke-width:0.264583"
         x="82.922012"
         y="113.60316">Thiện nguyện</tspan></text>
    <path
       style="fill:#d2b48c;fill-opacity:1;stroke:none;stroke-width:2.96132;stroke-dasharray:none;stroke-dashoffset:0;stroke-opacity:1"
       d="m 489.30518,651.0998 c -7.1104,-0.54173 -20.64099,-1.23457 -30.06798,-1.53967 -17.00233,-0.55025 -17.1951,-0.576 -24.00567,-3.20624 -4.98369,-1.92471 -8.98371,-2.85235 -14.59239,-3.38412 -4.89533,-0.46413 -9.73646,-1.48991 -13.21129,-2.79931 -4.43939,-1.67288 -21.67167,-10.78356 -29.96833,-15.84423 -0.96898,-0.59104 -3.02063,-3.57437 -4.55923,-6.62961 -1.53859,-3.05524 -4.0423,-6.8377 -5.5638,-8.40546 -4.47405,-4.6101 -11.13302,-16.05128 -12.49414,-21.46693 -0.67582,-2.68895 -2.1298,-6.47562 -3.23107,-8.41482 -6.29925,-11.09221 -6.27302,-11.02866 -5.92776,-14.36511 0.23291,-2.25069 -0.36201,-5.33151 -1.91632,-9.92386 l -2.25409,-6.65987 0.23891,-28.59831 c 0.25007,-29.9344 0.6703,-35.1017 3.95054,-48.57793 1.29098,-5.30374 2.19737,-11.85061 2.55094,-18.42539 0.44931,-8.35522 0.92282,-11.13429 2.61985,-15.37619 1.29002,-3.22456 2.39107,-8.09648 2.91882,-12.91522 0.46608,-4.25562 1.5114,-10.38186 2.32295,-13.61386 3.32015,-13.22257 7.32047,-31.93604 7.47484,-34.96726 0.12065,-2.36902 1.04375,-4.48131 3.44868,-7.8915 2.19843,-3.11737 3.43064,-5.80343 3.72778,-8.12608 0.55376,-4.32857 1.60247,-6.42798 5.66338,-11.33758 1.76721,-2.13654 3.90512,-5.73168 4.7509,-7.9892 3.64351,-9.72504 7.09497,-15.16919 14.79534,-23.33741 7.80383,-8.27796 11.75007,-14.3883 13.3972,-20.74418 1.17037,-4.51616 3.27055,-7.7053 9.6576,-14.66515 2.83598,-3.09031 8.39124,-10.48644 12.34502,-16.43583 9.5701,-14.40045 13.40706,-18.29384 22.27938,-22.60704 4.85357,-2.35952 9.00547,-5.17842 13.31976,-9.04336 7.07192,-6.33537 9.00815,-7.34097 15.6703,-8.13855 5.4661,-0.6544 9.43759,-2.15255 11.94117,-4.50455 3.6358,-3.41567 10.48883,-4.31384 37.42206,-4.90463 44.79561,-0.98261 62.49694,2.03091 75.37463,12.83198 2.67302,2.24199 9.88228,6.71521 16.02055,9.94049 6.13828,3.22528 12.3521,6.77303 13.80849,7.88387 3.12442,2.38311 8.38904,10.29426 13.74374,20.65271 l 3.84778,7.4434 -0.52481,16.84557 c -0.78819,25.30013 -4.66081,69.97246 -8.35445,96.37236 -3.18784,22.78477 -6.97805,37.74379 -12.15609,47.97714 -3.10215,6.13078 -4.21399,11.91993 -4.21399,21.94158 0,9.18021 -0.0249,9.3064 -2.93818,14.86424 l -2.93819,5.60543 -0.46943,27.47683 c -0.52493,30.72528 -1.25855,37.08863 -5.96355,51.7274 -1.51676,4.71915 -5.00801,13.02166 -7.75832,18.45001 -4.34352,8.57289 -6.76224,12.02679 -18.40787,26.28615 -14.61298,17.8927 -26.68412,30.71656 -31.74508,33.72457 -1.77653,1.05589 -6.1838,2.92278 -9.79393,4.14862 -3.61013,1.22584 -9.73711,3.87524 -13.61551,5.88753 -11.7267,6.08437 -19.29607,6.86024 -46.61914,4.77857 z"
       id="path8269"
       transform="scale(0.26458333)" />
  </g>
  <g
     inkscape:groupmode="layer"
     id="layer5"
     inkscape:label="Phúc thiện"
     style="display:inline">
    <path
       style="fill:#f4a460;fill-opacity:1;stroke:none;stroke-width:0.183797;stroke-dasharray:5.55731, 0.694666"
       d="m 128.83322,162.76383 c -1.07937,-0.12698 -3.89693,-0.32718 -6.26125,-0.44488 -4.70738,-0.23436 -4.47682,-0.17601 -6.25844,-1.58378 -0.53532,-0.42299 -1.19651,-0.81968 -1.46931,-0.88153 -0.27279,-0.0618 -0.87065,-0.38934 -1.32856,-0.72775 -0.45792,-0.33841 -1.2599,-0.73542 -1.78218,-0.88224 -0.75707,-0.21284 -1.21352,-0.5258 -2.25132,-1.54362 -0.71595,-0.70217 -1.85543,-1.59182 -2.53219,-1.97701 -1.39247,-0.79256 -1.58473,-0.97404 -1.7641,-1.66517 -0.14767,-0.56897 -1.31124,-1.64534 -2.24324,-2.07513 -0.53622,-0.24728 -0.69158,-0.46036 -0.9413,-1.29108 -0.32703,-1.08784 -1.28902,-2.19491 -1.90728,-2.19491 -0.573311,0 -1.27501,-0.63868 -1.941498,-1.76712 -0.336016,-0.56891 -1.034767,-1.42795 -1.55278,-1.90896 l -0.941842,-0.87457 -0.06112,-4.99955 -0.06112,-4.99955 0.855454,-2.46163 c 0.636565,-1.83176 0.855455,-2.73798 0.855455,-3.54164 0,-0.85462 0.07892,-1.14909 0.378148,-1.41096 0.447516,-0.39165 0.923085,-1.9005 0.885066,-2.80806 -0.01894,-0.45233 0.09943,-0.76514 0.399273,-1.05511 0.588563,-0.56916 0.903629,-1.37247 1.058931,-2.69989 0.115783,-0.98967 0.244813,-1.26542 1.045153,-2.23363 0.95386,-1.15393 1.01767,-1.30569 1.15548,-2.74804 0.0694,-0.72675 0.2016,-0.98846 0.74011,-1.46554 0.36057,-0.31943 0.78461,-0.82209 0.94231,-1.11701 0.47873,-0.89524 1.67192,-1.7834 3.10961,-2.31466 0.90699,-0.33516 1.59706,-0.7361 2.0588,-1.19621 0.38199,-0.38065 0.92267,-0.77596 1.2015,-0.87848 0.74724,-0.27473 1.60406,-0.23649 1.60406,0.0716 0,0.32792 0.88237,1.0072 1.30832,1.0072 0.98023,0 1.84942,-1.76085 1.59318,-3.22755 -0.16074,-0.92004 -0.058,-0.95545 3.09404,-1.06578 2.32458,-0.0814 2.61514,-0.0554 3.4577,0.30861 2.07619,0.89707 3.34104,1.20526 6.75981,1.64704 4.37731,0.56564 4.83951,0.74258 6.49566,2.48664 0.85646,0.90192 1.43759,1.32227 2.45958,1.77912 1.61834,0.72341 2.39067,1.32578 2.87363,2.24126 0.57716,1.09403 2.36409,2.13696 3.30954,1.93159 0.49719,-0.108 2.30012,0.82951 3.03869,1.58009 0.78929,0.80213 1.64501,1.24468 3.71516,1.92138 3.06131,1.00069 4.16639,1.9876 6.85515,6.12218 2.83719,4.36282 3.11731,4.84565 3.26536,5.62861 0.0763,0.40333 0.073,3.38893 -0.007,6.63465 -0.16675,6.74029 -0.24959,7.19673 -1.59623,8.79554 -0.45931,0.54533 -1.60053,2.06924 -2.53604,3.38646 -0.93552,1.31723 -2.0809,2.78904 -2.5453,3.27071 -2.14218,2.22181 -7.62476,7.20936 -8.28055,7.53289 -0.40168,0.19817 -1.42918,0.5874 -2.28334,0.86497 -0.85416,0.27757 -2.35989,0.97028 -3.34607,1.53936 -1.41383,0.81585 -2.09779,1.09106 -3.23391,1.30127 -1.70327,0.31515 -4.6583,0.3111 -7.38888,-0.0101 z"
       id="path1928" />
    <text
       xml:space="preserve"
       style="font-size:16.9333px;line-height:3;font-family:'000 SkippySharp iCiel';-inkscape-font-specification:'000 SkippySharp iCiel';text-align:end;text-anchor:end;fill:#f4a460;stroke:none;stroke-width:0.264583;stroke-dasharray:7.99999, 1"
       x="71.727539"
       y="148.43039"
       id="text1984"><tspan
         sodipodi:role="line"
         id="tspan1982"
         style="font-size:16.9333px;stroke-width:0.264583"
         x="71.727539"
         y="148.43039">Phúc thiện</tspan></text>
  </g>
  <g
     inkscape:groupmode="layer"
     id="layer4"
     inkscape:label="Nhân ái"
     style="display:inline">
    <path
       style="fill:#fa8072;fill-opacity:1;stroke:none;stroke-width:0.216617;stroke-dasharray:6.54967, 0.818711;stroke-dashoffset:0;stroke-opacity:1"
       d="m 114.90892,160.64818 c -2.01915,-0.57184 -3.69402,-2.14361 -5.28558,-4.96021 -0.51316,-0.90815 -2.10082,-3.6826 -3.52813,-6.16546 -2.96145,-5.15153 -4.37294,-7.95886 -4.86824,-9.6825 -0.1895,-0.65946 -0.60751,-1.5919 -0.9289,-2.07207 l -0.584345,-0.87306 0.04728,-3.98093 c 0.0628,-5.2785 0.410925,-11.22921 0.728935,-12.45897 0.48194,-1.8637 3.67651,-4.53092 8.25779,-6.8946 l 2.21537,-1.14301 3.53791,0.003 c 1.94585,10e-4 5.33325,0.13971 7.52757,0.30709 4.21251,0.32133 4.64025,0.26298 4.64025,-0.63299 0,-0.33338 0.35235,-0.39678 2.91033,-0.52356 1.60069,-0.0794 4.13475,-0.14424 5.63125,-0.14424 2.69068,0 2.73669,0.008 4.13983,0.76432 0.78041,0.42037 1.77023,0.82967 2.1996,0.90954 0.99445,0.185 1.25324,0.40451 1.42397,1.20782 0.0759,0.35703 0.47717,1.01906 0.89176,1.47118 1.01248,1.10413 1.98067,2.91312 1.98164,3.70256 5.5e-4,0.35355 0.20656,0.98965 0.45805,1.41355 0.25148,0.4239 1.10209,2.21512 1.89023,3.9805 0.78816,1.76536 2.00663,4.19316 2.7077,5.3951 0.70108,1.20194 1.43262,2.50322 1.62565,2.89171 0.41952,0.84431 0.79906,4.29838 0.65963,6.003 -0.0548,0.66999 -0.13966,3.39821 -0.18857,6.06274 -0.0957,5.21353 -0.31996,6.6638 -1.27113,8.22093 -0.65893,1.07872 -1.49329,1.80002 -2.69256,2.32776 -0.52383,0.2305 -1.47077,0.65325 -2.10433,0.93942 -0.81385,0.36763 -1.35753,0.48047 -1.85254,0.38449 -0.95913,-0.18594 -3.65335,0.75457 -6.49043,2.26572 -1.74096,0.92732 -2.58464,1.24273 -3.72897,1.39412 -2.39569,0.31694 -18.76039,0.22449 -19.95107,-0.11272 z"
       id="path46140" />
    <text
       xml:space="preserve"
       style="font-style:normal;font-variant:normal;font-weight:normal;font-stretch:normal;font-size:16.9333px;line-height:3;font-family:'000 SkippySharp iCiel';-inkscape-font-specification:'000 SkippySharp iCiel';text-align:end;text-anchor:end;display:inline;fill:#fa8072;fill-opacity:1;stroke:#ff6347;stroke-width:0.264583;stroke-dasharray:7.99999, 1;stroke-dashoffset:0;stroke-opacity:1"
       x="92.458046"
       y="178.28232"
       id="text46403"><tspan
         sodipodi:role="line"
         id="tspan46401"
         style="font-size:16.9333px;stroke-width:0.264583"
         x="92.458046"
         y="178.28232">Nhân ái</tspan></text>
  </g>
  <g
     inkscape:groupmode="layer"
     id="layer1"
     inkscape:label="Từ thiện"
     style="display:inline">
    <text
       xml:space="preserve"
       style="font-size:16.9333px;line-height:3;font-family:'000 SkippySharp iCiel';-inkscape-font-specification:'000 SkippySharp iCiel';text-align:end;text-anchor:end;fill:#808000;stroke:none;stroke-width:0.264583;stroke-dasharray:7.99999, 1"
       x="210.6219"
       y="185.53799"
       id="text2198"><tspan
         sodipodi:role="line"
         id="tspan2196"
         style="font-size:16.9333px;stroke-width:0.264583"
         x="210.6219"
         y="185.53799">Từ thiện</tspan></text>
    <path
       style="fill:none;fill-opacity:1;stroke:#808000;stroke-width:3.77953;stroke-dasharray:15.1181, 3.77953;stroke-dashoffset:0;stroke-opacity:1"
       d="m 612.31705,643.16618 c -0.86187,-0.15293 -29.06841,-0.41675 -62.68121,-0.58626 -39.30265,-0.1982 -62.79199,-0.61266 -65.81527,-1.16127 -2.5856,-0.46918 -13.16305,-1.217 -23.50545,-1.6618 -11.2311,-0.48303 -20.8255,-1.28812 -23.82284,-1.99905 -6.16218,-1.46156 -14.90103,-5.50848 -28.63494,-13.26071 -12.54686,-7.0822 -19.8528,-10.6109 -21.97616,-10.61426 -2.39055,-0.004 -9.59534,-5.24562 -18.22023,-13.25609 -8.50206,-7.89639 -13.21292,-11.33101 -17.4297,-12.70774 -5.96543,-1.94763 -20.01926,-15.14526 -22.78438,-21.39627 -1.46006,-3.3007 -1.5312,-4.68426 -1.09889,-21.37311 0.60299,-23.2784 1.04563,-25.84291 6.59597,-38.21535 5.94711,-13.25689 6.77791,-15.99 8.65716,-28.47988 0.86553,-5.75246 2.31422,-12.09894 3.21931,-14.10327 0.93884,-2.07906 2.27751,-8.1101 3.11685,-14.04218 1.00345,-7.09192 2.24277,-12.32339 3.89786,-16.45382 1.33466,-3.33073 3.09525,-9.30192 3.91244,-13.2693 1.79928,-8.73542 3.14413,-12.10631 6.23382,-15.62528 1.81279,-2.06466 2.35549,-3.43844 2.36342,-5.98275 0.026,-8.34557 9.46566,-41.26109 13.05706,-45.52923 3.09683,-3.68037 7.23516,-12.604 7.58581,-16.35757 0.42319,-4.53009 2.38668,-8.8493 8.12343,-17.86963 2.58226,-4.0603 5.58235,-9.14526 6.66687,-11.29993 2.21463,-4.39991 11.34574,-30.7592 13.57086,-39.17575 0.98321,-3.71904 2.54679,-6.98058 4.85714,-10.13172 4.8509,-6.61627 8.40747,-13.27366 10.62294,-19.88465 1.05565,-3.15007 2.68978,-6.54745 3.63138,-7.54975 0.94161,-1.00229 2.69073,-4.24256 3.88694,-7.2006 2.02438,-5.00592 2.49456,-5.55846 6.79174,-7.98133 6.45522,-3.63965 10.63614,-7.24221 14.57434,-12.55825 3.88237,-5.24068 14.51813,-12.77734 21.22377,-15.03949 2.25498,-0.76072 5.51029,-2.0314 7.23403,-2.82374 2.8074,-1.29047 5.05314,-1.41857 21.54666,-1.22902 37.45762,0.43049 38.47127,0.49658 40.30452,2.62786 4.05655,4.71601 3.20655,4.59019 31.36557,4.64277 35.81104,0.0669 60.75383,1.06903 66.47971,2.67104 2.50826,0.70177 8.85474,3.34466 14.10327,5.87308 5.24854,2.52843 15.3604,6.60438 22.4708,9.05767 14.21009,4.90289 16.78754,6.07821 27.08582,12.35117 10.8325,6.59835 19.43875,10.64786 41.07999,19.32936 42.69693,17.12811 57.67233,26.6354 66.32436,42.10667 1.60995,2.87885 5.28109,10.46209 8.1581,16.85163 2.87701,6.38955 6.53454,13.72937 8.12784,16.31072 3.7786,6.12182 23.90765,32.85665 28.82527,38.2849 6.33858,6.99676 7.76818,10.66218 8.55257,21.9282 0.37188,5.34126 1.58642,13.98272 2.69898,19.20324 1.11257,5.22052 2.31314,13.72458 2.66794,18.89791 0.3548,5.17333 1.72172,15.92707 3.03759,23.89721 1.31588,7.97014 2.76573,18.19327 3.22191,22.71807 0.98439,9.76403 2.52153,75.4376 1.81138,77.39006 -1.35285,3.71947 -5.88794,8.78066 -14.0479,15.67755 -4.95467,4.18775 -10.24202,8.66424 -11.74965,9.94777 -2.01406,1.71466 -3.81323,2.44207 -6.78281,2.7423 -3.21561,0.3251 -4.22569,0.77913 -4.94223,2.22149 -1.63096,3.2831 -5.27071,6.41869 -12.8753,11.09188 -4.12564,2.5353 -9.24556,6.05485 -11.37759,7.82121 -2.13202,1.76637 -7.22593,4.84052 -11.3198,6.83144 -4.09386,1.99092 -10.43531,5.55393 -14.0921,7.9178 -8.09076,5.23015 -12.09948,7.32299 -26.30167,13.73139 -6.05658,2.73289 -14.34226,7.12525 -18.41261,9.76082 -13.45826,8.71424 -20.92193,11.40886 -35.21543,12.71388 -4.5248,0.41312 -13.51564,1.28429 -19.97963,1.93594 -16.05434,1.61846 -45.04911,2.79341 -65.81527,2.66701 -9.48054,-0.0577 -17.9425,-0.23005 -18.80436,-0.38299 z"
       id="path3476"
       transform="scale(0.26458333)"
       inkscape:label="Nghĩa thực sự được dùng" />
    <path
       style="display:inline;fill:#808000;fill-opacity:1;stroke:none;stroke-width:0.152517;stroke-dasharray:4.61153, 0.576444"
       d="m 127.56042,155.55933 c 0.94076,-0.10032 3.39649,-0.25849 5.45718,-0.35148 4.10285,-0.18515 3.9019,-0.13905 5.45473,-1.25126 0.46656,-0.33418 1.04285,-0.64759 1.28061,-0.69646 0.23776,-0.0488 0.75884,-0.30759 1.15795,-0.57495 0.39911,-0.26737 1.0981,-0.58103 1.55331,-0.69702 0.65985,-0.16815 1.05767,-0.4154 1.9622,-1.21954 0.62401,-0.55475 1.61715,-1.25762 2.207,-1.56193 1.21365,-0.62616 1.38122,-0.76954 1.53755,-1.31557 0.12872,-0.44951 1.14285,-1.2999 1.95517,-1.63946 0.46735,-0.19536 0.60277,-0.3637 0.82042,-1.02001 0.28503,-0.85945 1.12348,-1.73409 1.66234,-1.73409 0.49968,0 1.11127,-0.50459 1.69216,-1.39611 0.29286,-0.44948 0.90188,-1.12816 1.35337,-1.50818 l 0.82089,-0.69095 0.0532,-3.9499 0.0532,-3.94989 -0.7456,-1.94481 c -0.55481,-1.44718 -0.74559,-2.16314 -0.74559,-2.79807 0,-0.6752 -0.0688,-0.90784 -0.32959,-1.11473 -0.39005,-0.30943 -0.80455,-1.50149 -0.77141,-2.21851 0.0164,-0.35737 -0.0866,-0.6045 -0.34799,-0.83359 -0.51298,-0.44967 -0.78758,-1.08432 -0.92294,-2.13305 -0.10091,-0.78189 -0.21337,-0.99974 -0.91093,-1.76467 -0.83136,-0.91166 -0.88698,-1.03156 -1.00709,-2.17109 -0.0605,-0.57417 -0.17571,-0.78093 -0.64507,-1.15785 -0.31427,-0.25237 -0.68385,-0.64949 -0.8213,-0.88249 -0.41725,-0.70729 -1.4572,-1.40898 -2.71027,-1.8287 -0.79051,-0.26479 -1.39195,-0.58156 -1.7944,-0.94507 -0.33293,-0.30073 -0.80419,-0.61305 -1.0472,-0.69404 -0.65128,-0.21705 -1.39807,-0.18684 -1.39807,0.0566 0,0.25907 -0.76905,0.79575 -1.1403,0.79575 -0.85435,0 -1.61192,-1.39117 -1.38858,-2.54994 0.14009,-0.72687 0.0506,-0.75484 -2.6967,-0.84201 -2.02605,-0.0643 -2.27931,-0.0438 -3.01367,0.24382 -1.80955,0.70873 -2.91197,0.95221 -5.8917,1.30123 -3.81517,0.44689 -4.21802,0.58668 -5.66147,1.96457 -0.74649,0.71257 -1.25298,1.04466 -2.14372,1.4056 -1.41052,0.57154 -2.08366,1.04744 -2.5046,1.7707 -0.50304,0.86435 -2.06049,1.68832 -2.88453,1.52606 -0.43334,-0.0853 -2.00473,0.65536 -2.64845,1.24835 -0.68793,0.63373 -1.43376,0.98336 -3.23806,1.51799 -2.66818,0.7906 -3.63134,1.5703 -5.9748,4.83683 -2.47284,3.44684 -2.71699,3.8283 -2.84602,4.44688 -0.0665,0.31865 -0.0636,2.67742 0.006,5.2417 0.14534,5.32517 0.21754,5.68578 1.39123,6.94891 0.40034,0.43084 1.39499,1.63481 2.21036,2.67548 0.81539,1.04067 1.81368,2.20348 2.21844,2.58403 1.86708,1.75533 6.64557,5.69575 7.21715,5.95135 0.35009,0.15657 1.24564,0.46408 1.99011,0.68337 0.74447,0.2193 2.05683,0.76657 2.91636,1.21617 1.23227,0.64456 1.82839,0.86199 2.81862,1.02808 1.48453,0.24898 4.06007,0.24578 6.43998,-0.008 z"
       id="path3770"
       inkscape:label="Nghĩa mặt chữ" />
  </g>
  <g
     inkscape:groupmode="layer"
     id="layer7"
     inkscape:label="X"
     style="display:none">
    <text
       xml:space="preserve"
       style="font-size:16.9333px;line-height:3;font-family:'000 SkippySharp iCiel';-inkscape-font-specification:'000 SkippySharp iCiel';text-align:end;text-anchor:end;fill:#ff6347;fill-opacity:1;stroke:none;stroke-width:1;stroke-dasharray:4, 1;stroke-dashoffset:0"
       x="265.1431"
       y="26.32774"
       id="text2016"><tspan
         sodipodi:role="line"
         id="tspan2014"
         style="fill:#ff6347;fill-opacity:1;stroke:none;stroke-width:1"
         x="265.1431"
         y="26.32774">X?</tspan></text>
    <path
       style="fill:#000000;fill-opacity:0;stroke:#ff6347;stroke-width:3.77953;stroke-dasharray:15.1181, 3.77953;stroke-dashoffset:0;stroke-opacity:1"
       d="m 463.44918,651.92694 c -3.66294,-0.60358 -10.00941,-2.15655 -14.10327,-3.45106 -4.09387,-1.29451 -12.98795,-3.96039 -19.76462,-5.92419 -17.71673,-5.1341 -24.7776,-8.17609 -31.42611,-13.53906 -11.88665,-9.5883 -19.89814,-19.29591 -23.19371,-28.10411 -3.32807,-8.89505 -7.46994,-15.5804 -17.20307,-27.76723 -13.58633,-17.01142 -25.3274,-41.55123 -31.38442,-65.59606 -2.15325,-8.54783 -2.38726,-10.90812 -3.16781,-31.95157 -0.46355,-12.49706 -1.16778,-27.3055 -1.56496,-32.90763 -1.34734,-19.00375 -1.80601,-69.4719 -0.82959,-91.27951 1.35886,-30.34872 3.16698,-38.42111 12.8114,-57.1966 2.98833,-5.8176 7.31184,-14.73885 9.60779,-19.82499 2.29595,-5.08613 5.22515,-10.95512 6.50933,-13.04219 1.28419,-2.08706 3.10258,-6.37243 4.04087,-9.52303 2.11954,-7.11704 6.72341,-17.07947 10.28212,-22.24979 1.48305,-2.15466 6.27204,-9.2063 10.6422,-15.6703 9.8972,-14.63916 19.41299,-26.56245 29.70057,-37.21481 8.09117,-8.37806 8.05509,-8.35241 29.60521,-21.05322 2.55466,-1.50562 7.31452,-4.74391 10.57746,-7.19619 6.76097,-5.08128 12.23397,-7.98258 23.60101,-12.51119 10.23759,-4.07865 13.10211,-5.56316 20.46616,-10.60647 3.32469,-2.27694 11.61812,-6.98703 18.42983,-10.46687 8.05378,-4.11437 15.46344,-8.63642 21.18789,-12.93079 11.09277,-8.321589 20.05052,-13.740639 31.17649,-18.860419 4.80807,-2.212507 9.76742,-4.99415 11.02077,-6.181427 3.01484,-2.85591 6.38783,-4.523698 14.4233,-7.131638 3.66293,-1.188818 9.2328,-3.56322 12.37748,-5.276448 4.71348,-2.567909 7.99604,-3.584548 18.69118,-5.788832 7.13546,-1.47063 15.49258,-3.679459 18.57136,-4.90851 9.02274,-3.601877 21.95969,-6.366229 29.94181,-6.397931 3.84812,-0.01528 10.16982,-0.578976 14.04822,-1.252649 5.49988,-0.955322 15.59335,-1.310006 45.86763,-1.611787 36.6362,-0.365199 39.49254,-0.292472 50.86335,1.295056 6.62605,0.925092 12.72665,2.045528 13.55689,2.489859 0.97987,0.52441 10.76231,0.715718 27.87992,0.545228 25.86479,-0.257611 26.47554,-0.227693 31.85499,1.560399 11.42021,3.796 31.42353,12.204229 33.43185,14.052804 1.15019,1.0587 3.16449,3.938512 4.47623,6.399583 2.34029,4.390837 9.60898,25.215549 10.6848,30.611832 0.30069,1.50827 1.7951,5.13917 3.3209,8.06868 3.76573,7.23011 10.5754,13.36584 20.38642,18.36881 4.19008,2.13667 9.55754,5.11631 11.92767,6.62145 5.89107,3.74106 10.75982,5.24097 19.97963,6.15511 19.25989,1.9096 22.26279,2.3964 28.73813,4.65874 8.9595,3.13025 24.08152,6.20535 34.44402,7.00429 11.2281,0.86567 13.4681,2.17188 26.8031,15.62977 12.1494,12.26128 14.4709,16.14579 17.0004,28.44608 3.6231,17.61891 3.6225,47.48005 0,64.60237 -1.3524,6.38993 -5.3398,18.12852 -6.893,20.29275 -0.3217,0.44817 -4.6395,3.9552 -9.5953,7.7934 -4.9557,3.8382 -12.0073,9.84086 -15.6703,13.33926 -3.6629,3.49839 -9.5477,8.40678 -13.0773,10.90751 -9.6377,6.82836 -16.79047,13.79246 -32.08709,31.24077 -25.06725,28.59334 -31.60319,34.04536 -48.37446,40.35202 -9.69078,3.64412 -18.02994,5.67886 -40.52824,9.88884 -27.00761,5.05377 -32.85659,5.84455 -49.66718,6.71495 -15.17616,0.78578 -19.93076,1.40511 -42.70157,5.56236 -8.63801,1.57703 -17.348,2.57738 -26.24776,3.01456 -10.80212,0.53065 -14.57858,1.03775 -19.97963,2.68289 -3.66294,1.1157 -8.27386,2.03595 -10.24649,2.04499 -9.01871,0.0414 -19.81045,6.64385 -47.159,28.85241 -18.92549,15.36857 -23.21703,20.37282 -27.63059,32.21937 -1.37672,3.6953 -5.15635,12.36003 -8.39917,19.25496 -8.46548,17.99945 -8.42133,17.87063 -8.42487,24.58053 -0.004,7.43014 -1.51929,16.90724 -5.45816,34.13524 -1.68094,7.35219 -3.28405,15.83569 -3.56245,18.85222 -1.8382,19.91687 -5.16895,31.66224 -12.38681,43.68008 -8.44109,14.05456 -16.69338,23.08377 -24.94486,27.29336 -3.79494,1.93604 -21.73239,6.58686 -30.42905,7.88964 -6.95422,1.04177 -29.1224,1.33291 -50.53672,0.66371 -6.89493,-0.21547 -22.23224,-0.13531 -34.08291,0.17813 -16.94373,0.44815 -22.96938,0.33546 -28.20654,-0.52751 z"
       id="path3367"
       transform="scale(0.26458333)" />
  </g>
  <g
     inkscape:groupmode="layer"
     id="layer8"
     inkscape:label="Thiện nguyện dựa trên tri thức"
     style="display:none;fill:#ffa500">
    <path
       style="display:inline;fill:#ffa500;fill-opacity:1;stroke:none;stroke-width:2.96132;stroke-dasharray:11.8453, 2.96132;stroke-dashoffset:0"
       d="m 467.72038,591.13165 c -11.39719,-0.76827 -24.16864,-2.65669 -37.17157,-5.49632 -5.81361,-1.26959 -11.20453,-2.30834 -11.97982,-2.30834 -2.42482,0 -7.36602,-2.97003 -9.74716,-5.85876 -3.14201,-3.8118 -7.63427,-12.0578 -9.27986,-17.03414 -0.75267,-2.27611 -3.04844,-7.31161 -5.10169,-11.19001 -2.05326,-3.8784 -5.0146,-10.40116 -6.58075,-14.49503 -1.56615,-4.09387 -4.47213,-10.44034 -6.45774,-14.10327 -6.36068,-11.73377 -6.32438,-11.62288 -7.30834,-22.33018 -1.35704,-14.76728 -1.97182,-115.53826 -0.76854,-125.97635 2.5683,-22.27941 6.55418,-34.78982 13.61832,-42.74367 5.05694,-5.69384 5.65678,-6.73458 9.42753,-16.35705 4.40341,-11.23694 11.93913,-23.38129 19.34327,-31.1731 3.27594,-3.44746 9.48449,-11.02797 13.79677,-16.84557 9.79363,-13.21238 17.92427,-22.30103 22.98437,-25.69254 2.53877,-1.70161 3.90237,-3.17094 3.90237,-4.20497 0,-2.21506 9.94309,-15.21327 18.46726,-24.14153 3.92092,-4.10679 8.07981,-9.2298 9.24198,-11.38447 2.22542,-4.12592 6.84182,-9.29446 15.60042,-17.46628 4.02462,-3.75499 6.04971,-6.4628 8.49649,-11.36097 3.8742,-7.75568 4.77137,-8.82889 9.30803,-11.13443 1.9392,-0.98552 8.11207,-5.61912 13.71748,-10.2969 5.60541,-4.67778 13.00963,-10.78054 16.45381,-13.56169 3.44419,-2.78115 9.08282,-7.58471 12.53028,-10.67457 6.61835,-5.93182 14.96123,-12.08351 16.38783,-12.08368 2.03198,-2.6e-4 13.5638,-8.33018 21.48471,-15.519316 l 8.60944,-7.814068 7.12844,-1.641279 c 7.72541,-1.778731 12.13997,-3.693958 14.48095,-6.282466 0.82092,-0.907723 2.25299,-1.650404 3.18237,-1.650404 0.92939,0 4.37236,-0.702631 7.65106,-1.561403 4.03403,-1.056613 7.94463,-1.499896 12.09617,-1.371151 l 6.1349,0.190251 0.23992,-2.471358 c 0.23134,-2.382959 0.44154,-2.517091 5.87637,-3.749951 16.66431,-3.780202 18.8133,-3.969661 43.43701,-3.82948 26.79573,0.152547 34.43077,0.911582 36.24161,3.602947 0.6464,0.960713 3.67993,4.579547 6.74118,8.041852 5.47954,6.197402 11.59869,15.453542 17.85232,27.004296 3.07967,5.68828 3.1909,6.1522 3.47538,14.49502 0.34769,10.19634 -0.87319,23.69086 -2.58139,28.5324 -0.66994,1.89883 -2.50356,4.70086 -4.0747,6.22672 -1.57114,1.52588 -4.03937,5.33422 -5.48495,8.46301 -2.19044,4.74092 -3.57306,6.48893 -8.29869,10.49185 -6.81346,5.77144 -12.37912,9.09713 -16.34594,9.76733 -2.50916,0.42392 -3.61881,1.38172 -7.67453,6.62444 -5.83904,7.54797 -8.58683,9.91167 -12.83025,11.03686 -3.48543,0.9242 -3.64688,1.07859 -12.64957,12.09569 -7.98735,9.77455 -12.645,14.06243 -17.67601,16.27268 -5.69026,2.49989 -8.74939,5.18774 -14.00085,12.30166 -2.39558,3.24518 -6.43319,8.3684 -8.97248,11.38493 -7.73357,9.18705 -18.3134,23.55336 -22.06426,29.96096 -5.18057,8.84995 -7.92431,15.99388 -10.18557,26.52031 -2.80472,13.05624 -3.88129,15.93433 -8.6638,23.16184 -7.32126,11.06417 -12.70188,29.89776 -13.23279,46.31829 -0.20038,6.19774 -1.0185,12.04972 -2.76421,19.77241 -3.63125,16.06386 -3.92873,17.85202 -4.75763,28.59799 -1.01414,13.14726 -2.58398,22.054 -6.76495,38.38183 -4.36821,17.05903 -4.99971,24.10813 -4.03703,45.06284 1.54593,33.65032 -1.50867,43.11096 -15.66613,48.52082 -3.05628,1.16788 -11.69379,5.94071 -19.19447,10.60632 -25.56099,15.89954 -29.24856,17.44714 -44.81145,18.8064 -18.79427,1.64149 -28.19276,2.34032 -30.16534,2.24297 -1.07733,-0.0532 -5.85434,-0.35928 -10.61558,-0.68022 z"
       id="path3364"
       transform="scale(0.26458333)" />
    <text
       xml:space="preserve"
       style="font-size:16.9333px;line-height:1;font-family:'000 SkippySharp iCiel';-inkscape-font-specification:'000 SkippySharp iCiel';text-align:start;text-anchor:start;fill:#ffa500;fill-opacity:1;stroke:none;stroke-width:1;stroke-dasharray:4, 1;stroke-dashoffset:0;stroke-opacity:1"
       x="32.341328"
       y="26.949656"
       id="text7433"><tspan
         sodipodi:role="line"
         id="tspan7431"
         style="text-align:start;text-anchor:start;fill:#ffa500;fill-opacity:1;stroke:none;stroke-width:1"
         x="32.341328"
         y="26.949656">Thiện nguyện dựa</tspan><tspan
         sodipodi:role="line"
         style="text-align:start;text-anchor:start;fill:#ffa500;fill-opacity:1;stroke:none;stroke-width:1"
         x="32.341328"
         y="43.882957"
         id="tspan7435">trên tri thức</tspan></text>
    <path
       style="fill:#000000;fill-opacity:0;stroke:#ffa500;stroke-width:1.06118;stroke-dasharray:none;stroke-dashoffset:0;stroke-opacity:1"
       d="m 105.32245,35.466878 28.5851,16.54897"
       id="path7878" />
  </g>
  <g
     inkscape:groupmode="layer"
     id="layer2"
     inkscape:label="Nét nghĩa"
     style="display:inline">
    <text
       xml:space="preserve"
       style="font-style:normal;font-variant:normal;font-weight:normal;font-stretch:normal;font-size:7.76111px;line-height:1;font-family:'000 SkippySharp iCiel';-inkscape-font-specification:'000 SkippySharp iCiel';text-align:end;text-anchor:end;fill:#000000;fill-opacity:1;stroke:none;stroke-width:0.264583;stroke-dasharray:7.99999, 1;stroke-dashoffset:0;stroke-opacity:1"
       x="152.86137"
       y="73.169762"
       id="text26759"
       inkscape:label="làm một cách tự nguyện"><tspan
         sodipodi:role="line"
         id="tspan26757"
         style="font-style:normal;font-variant:normal;font-weight:normal;font-stretch:normal;font-size:7.76111px;font-family:'000 SkippySharp iCiel';-inkscape-font-specification:'000 SkippySharp iCiel';text-align:end;text-anchor:end;fill:#000000;fill-opacity:1;stroke:none;stroke-width:0.264583"
         x="152.86137"
         y="73.169762">làm một cách</tspan><tspan
         sodipodi:role="line"
         style="font-style:normal;font-variant:normal;font-weight:normal;font-stretch:normal;font-size:7.76111px;font-family:'000 SkippySharp iCiel';-inkscape-font-specification:'000 SkippySharp iCiel';text-align:end;text-anchor:end;fill:#000000;fill-opacity:1;stroke:none;stroke-width:0.264583"
         x="152.86137"
         y="80.93087"
         id="tspan28317">tự nguyện</tspan></text>
    <g
       stroke-linecap="round"
       transform="matrix(0.36493373,0,0,0.36493373,154.92398,73.8472)"
       id="g9209">
      <path
         d="m 1.17,1.02 c 0,0 0,0 0,0 m 0,0 c 0,0 0,0 0,0 M 1.65,6.58 C 1.67,6.52 2.02,6.29 2.16,5.88 M 1.6,6.68 C 1.77,6.41 2.04,6.09 2.26,5.93 M 2.21,5.71 c 1.2,-0.93 2.04,-2 2.93,-2.52 m -3,2.78 C 2.88,5.04 3.51,4.66 4.72,2.73 m -5.13,2.32 c 0,0 0,0 0,0 m 0,0 c 0,0 0,0 0,0 M 4.44,4.23 C 3.61,2.92 2.07,2.03 1.82,1.04 M 4.43,4.01 C 3.33,2.88 2.46,1.96 1.36,1.26"
         stroke="#ffc9c9"
         stroke-width="0.5"
         fill="none"
         id="path9205" />
      <path
         d="M 2.37,0.8 C 2.82,0.62 3.7,0.47 3.79,0.55 3.88,0.62 2.84,0.67 2.9,1.24 2.96,1.8 4.32,3.29 4.14,3.95 3.96,4.61 2.16,4.71 1.83,5.2 1.49,5.69 2.46,6.88 2.14,6.9 1.81,6.91 0.2,6.02 -0.13,5.29 -0.46,4.57 -0.06,3.26 0.16,2.54 0.38,1.82 0.8,1.37 1.19,0.99 1.58,0.6 2.43,0.22 2.48,0.24 2.54,0.26 1.5,1.11 1.52,1.09 M 2.96,1.3 C 2.92,1.18 1.43,-0.08 1.61,0.12 1.79,0.33 3.49,1.53 4.04,2.52 4.58,3.51 5.31,5.59 4.91,6.05 4.5,6.51 2.26,5.09 1.61,5.28 0.96,5.47 1.19,7.08 1,7.2 0.81,7.31 0.56,6.52 0.46,5.96 0.37,5.4 0.43,4.77 0.43,3.82 0.43,2.87 0.04,0.82 0.49,0.26 0.94,-0.3 2.7,0.41 3.12,0.47 3.55,0.53 3.34,0.51 3.02,0.62"
         stroke="#1e1e1e"
         stroke-width="1"
         fill="none"
         id="path9207" />
    </g>
    <text
       xml:space="preserve"
       style="font-style:normal;font-variant:normal;font-weight:normal;font-stretch:normal;font-size:7.76111px;line-height:1;font-family:'000 SkippySharp iCiel';-inkscape-font-specification:'000 SkippySharp iCiel';text-align:end;text-anchor:end;fill:#000000;fill-opacity:1;stroke:none;stroke-width:0.264583;stroke-dasharray:7.99999, 1;stroke-dashoffset:0;stroke-opacity:1"
       x="183.54253"
       y="34.196415"
       id="text32864"
       inkscape:label="làm một cách tự nguyện"><tspan
         sodipodi:role="line"
         style="font-style:normal;font-variant:normal;font-weight:normal;font-stretch:normal;font-size:7.76111px;font-family:'000 SkippySharp iCiel';-inkscape-font-specification:'000 SkippySharp iCiel';text-align:end;text-anchor:end;fill:#000000;fill-opacity:1;stroke:none;stroke-width:0.264583"
         x="183.54253"
         y="34.196415"
         id="tspan32862">dựa trên</tspan><tspan
         sodipodi:role="line"
         style="font-style:normal;font-variant:normal;font-weight:normal;font-stretch:normal;font-size:7.76111px;font-family:'000 SkippySharp iCiel';-inkscape-font-specification:'000 SkippySharp iCiel';text-align:end;text-anchor:end;fill:#000000;fill-opacity:1;stroke:none;stroke-width:0.264583"
         x="183.54253"
         y="41.957523"
         id="tspan34360">tri thức</tspan></text>
    <g
       stroke-linecap="round"
       transform="matrix(0.36493373,0,0,0.36493373,185.60513,34.873853)"
       id="g32870">
      <path
         d="m 1.17,1.02 c 0,0 0,0 0,0 m 0,0 c 0,0 0,0 0,0 M 1.65,6.58 C 1.67,6.52 2.02,6.29 2.16,5.88 M 1.6,6.68 C 1.77,6.41 2.04,6.09 2.26,5.93 M 2.21,5.71 c 1.2,-0.93 2.04,-2 2.93,-2.52 m -3,2.78 C 2.88,5.04 3.51,4.66 4.72,2.73 m -5.13,2.32 c 0,0 0,0 0,0 m 0,0 c 0,0 0,0 0,0 M 4.44,4.23 C 3.61,2.92 2.07,2.03 1.82,1.04 M 4.43,4.01 C 3.33,2.88 2.46,1.96 1.36,1.26"
         stroke="#ffc9c9"
         stroke-width="0.5"
         fill="none"
         id="path32866" />
      <path
         d="M 2.37,0.8 C 2.82,0.62 3.7,0.47 3.79,0.55 3.88,0.62 2.84,0.67 2.9,1.24 2.96,1.8 4.32,3.29 4.14,3.95 3.96,4.61 2.16,4.71 1.83,5.2 1.49,5.69 2.46,6.88 2.14,6.9 1.81,6.91 0.2,6.02 -0.13,5.29 -0.46,4.57 -0.06,3.26 0.16,2.54 0.38,1.82 0.8,1.37 1.19,0.99 1.58,0.6 2.43,0.22 2.48,0.24 2.54,0.26 1.5,1.11 1.52,1.09 M 2.96,1.3 C 2.92,1.18 1.43,-0.08 1.61,0.12 1.79,0.33 3.49,1.53 4.04,2.52 4.58,3.51 5.31,5.59 4.91,6.05 4.5,6.51 2.26,5.09 1.61,5.28 0.96,5.47 1.19,7.08 1,7.2 0.81,7.31 0.56,6.52 0.46,5.96 0.37,5.4 0.43,4.77 0.43,3.82 0.43,2.87 0.04,0.82 0.49,0.26 0.94,-0.3 2.7,0.41 3.12,0.47 3.55,0.53 3.34,0.51 3.02,0.62"
         stroke="#1e1e1e"
         stroke-width="1"
         fill="none"
         id="path32868" />
    </g>
    <text
       xml:space="preserve"
       style="font-style:normal;font-variant:normal;font-weight:normal;font-stretch:normal;font-size:7.76111px;line-height:1;font-family:'000 SkippySharp iCiel';-inkscape-font-specification:'000 SkippySharp iCiel';text-align:end;text-anchor:end;fill:#000000;fill-opacity:1;stroke:none;stroke-width:0.264583;stroke-dasharray:7.99999, 1;stroke-dashoffset:0;stroke-opacity:1"
       x="213.18715"
       y="85.608063"
       id="text32876"
       inkscape:label="làm một cách tự nguyện"><tspan
         sodipodi:role="line"
         style="font-style:normal;font-variant:normal;font-weight:normal;font-stretch:normal;font-size:7.76111px;font-family:'000 SkippySharp iCiel';-inkscape-font-specification:'000 SkippySharp iCiel';text-align:end;text-anchor:end;fill:#000000;fill-opacity:1;stroke:none;stroke-width:0.264583"
         x="213.18715"
         y="85.608063"
         id="tspan32874">giải quyết các</tspan><tspan
         sodipodi:role="line"
         style="font-style:normal;font-variant:normal;font-weight:normal;font-stretch:normal;font-size:7.76111px;font-family:'000 SkippySharp iCiel';-inkscape-font-specification:'000 SkippySharp iCiel';text-align:end;text-anchor:end;fill:#000000;fill-opacity:1;stroke:none;stroke-width:0.264583"
         x="213.18715"
         y="93.369171"
         id="tspan35090">vấn đề xã hội</tspan></text>
    <g
       stroke-linecap="round"
       transform="matrix(0.36493373,0,0,0.36493373,215.24974,85.329585)"
       id="g32882">
      <path
         d="m 1.17,1.02 c 0,0 0,0 0,0 m 0,0 c 0,0 0,0 0,0 M 1.65,6.58 C 1.67,6.52 2.02,6.29 2.16,5.88 M 1.6,6.68 C 1.77,6.41 2.04,6.09 2.26,5.93 M 2.21,5.71 c 1.2,-0.93 2.04,-2 2.93,-2.52 m -3,2.78 C 2.88,5.04 3.51,4.66 4.72,2.73 m -5.13,2.32 c 0,0 0,0 0,0 m 0,0 c 0,0 0,0 0,0 M 4.44,4.23 C 3.61,2.92 2.07,2.03 1.82,1.04 M 4.43,4.01 C 3.33,2.88 2.46,1.96 1.36,1.26"
         stroke="#ffc9c9"
         stroke-width="0.5"
         fill="none"
         id="path32878" />
      <path
         d="M 2.37,0.8 C 2.82,0.62 3.7,0.47 3.79,0.55 3.88,0.62 2.84,0.67 2.9,1.24 2.96,1.8 4.32,3.29 4.14,3.95 3.96,4.61 2.16,4.71 1.83,5.2 1.49,5.69 2.46,6.88 2.14,6.9 1.81,6.91 0.2,6.02 -0.13,5.29 -0.46,4.57 -0.06,3.26 0.16,2.54 0.38,1.82 0.8,1.37 1.19,0.99 1.58,0.6 2.43,0.22 2.48,0.24 2.54,0.26 1.5,1.11 1.52,1.09 M 2.96,1.3 C 2.92,1.18 1.43,-0.08 1.61,0.12 1.79,0.33 3.49,1.53 4.04,2.52 4.58,3.51 5.31,5.59 4.91,6.05 4.5,6.51 2.26,5.09 1.61,5.28 0.96,5.47 1.19,7.08 1,7.2 0.81,7.31 0.56,6.52 0.46,5.96 0.37,5.4 0.43,4.77 0.43,3.82 0.43,2.87 0.04,0.82 0.49,0.26 0.94,-0.3 2.7,0.41 3.12,0.47 3.55,0.53 3.34,0.51 3.02,0.62"
         stroke="#1e1e1e"
         stroke-width="1"
         fill="none"
         id="path32880" />
    </g>
    <text
       xml:space="preserve"
       style="font-style:normal;font-variant:normal;font-weight:normal;font-stretch:normal;font-size:7.76111px;line-height:1;font-family:'000 SkippySharp iCiel';-inkscape-font-specification:'000 SkippySharp iCiel';text-align:end;text-anchor:end;fill:#000000;fill-opacity:1;stroke:none;stroke-width:0.264583;stroke-dasharray:7.99999, 1;stroke-dashoffset:0;stroke-opacity:1"
       x="140.63039"
       y="126.86176"
       id="text32888"
       inkscape:label="làm một cách tự nguyện"><tspan
         sodipodi:role="line"
         style="font-style:normal;font-variant:normal;font-weight:normal;font-stretch:normal;font-size:7.76111px;font-family:'000 SkippySharp iCiel';-inkscape-font-specification:'000 SkippySharp iCiel';text-align:end;text-anchor:end;fill:#000000;fill-opacity:1;stroke:none;stroke-width:0.264583"
         x="140.63039"
         y="126.86176"
         id="tspan32886">xuất phát từ</tspan><tspan
         sodipodi:role="line"
         style="font-style:normal;font-variant:normal;font-weight:normal;font-stretch:normal;font-size:7.76111px;font-family:'000 SkippySharp iCiel';-inkscape-font-specification:'000 SkippySharp iCiel';text-align:end;text-anchor:end;fill:#000000;fill-opacity:1;stroke:none;stroke-width:0.264583"
         x="140.63039"
         y="134.62288"
         id="tspan33626">lòng thương</tspan><tspan
         sodipodi:role="line"
         style="font-style:normal;font-variant:normal;font-weight:normal;font-stretch:normal;font-size:7.76111px;font-family:'000 SkippySharp iCiel';-inkscape-font-specification:'000 SkippySharp iCiel';text-align:end;text-anchor:end;fill:#000000;fill-opacity:1;stroke:none;stroke-width:0.264583"
         x="142.67932"
         y="142.38399"
         id="tspan33630">người (thiện) </tspan></text>
    <g
       stroke-linecap="round"
       transform="matrix(0.36493373,0,0,0.36493373,142.69298,130.73769)"
       id="g32894">
      <path
         d="m 1.17,1.02 c 0,0 0,0 0,0 m 0,0 c 0,0 0,0 0,0 M 1.65,6.58 C 1.67,6.52 2.02,6.29 2.16,5.88 M 1.6,6.68 C 1.77,6.41 2.04,6.09 2.26,5.93 M 2.21,5.71 c 1.2,-0.93 2.04,-2 2.93,-2.52 m -3,2.78 C 2.88,5.04 3.51,4.66 4.72,2.73 m -5.13,2.32 c 0,0 0,0 0,0 m 0,0 c 0,0 0,0 0,0 M 4.44,4.23 C 3.61,2.92 2.07,2.03 1.82,1.04 M 4.43,4.01 C 3.33,2.88 2.46,1.96 1.36,1.26"
         stroke="#ffc9c9"
         stroke-width="0.5"
         fill="none"
         id="path32890" />
      <path
         d="M 2.37,0.8 C 2.82,0.62 3.7,0.47 3.79,0.55 3.88,0.62 2.84,0.67 2.9,1.24 2.96,1.8 4.32,3.29 4.14,3.95 3.96,4.61 2.16,4.71 1.83,5.2 1.49,5.69 2.46,6.88 2.14,6.9 1.81,6.91 0.2,6.02 -0.13,5.29 -0.46,4.57 -0.06,3.26 0.16,2.54 0.38,1.82 0.8,1.37 1.19,0.99 1.58,0.6 2.43,0.22 2.48,0.24 2.54,0.26 1.5,1.11 1.52,1.09 M 2.96,1.3 C 2.92,1.18 1.43,-0.08 1.61,0.12 1.79,0.33 3.49,1.53 4.04,2.52 4.58,3.51 5.31,5.59 4.91,6.05 4.5,6.51 2.26,5.09 1.61,5.28 0.96,5.47 1.19,7.08 1,7.2 0.81,7.31 0.56,6.52 0.46,5.96 0.37,5.4 0.43,4.77 0.43,3.82 0.43,2.87 0.04,0.82 0.49,0.26 0.94,-0.3 2.7,0.41 3.12,0.47 3.55,0.53 3.34,0.51 3.02,0.62"
         stroke="#1e1e1e"
         stroke-width="1"
         fill="none"
         id="path32892" />
    </g>
    <text
       xml:space="preserve"
       transform="scale(0.26458333)"
       id="text35818"
       style="font-style:normal;font-variant:normal;font-weight:normal;font-stretch:normal;font-size:29.3333px;line-height:3;font-family:'000 SkippySharp iCiel';-inkscape-font-specification:'000 SkippySharp iCiel';text-align:end;white-space:pre;shape-inside:url(#rect35820);display:inline;fill:#000000;fill-opacity:1;stroke:none;stroke-dasharray:30.2362, 3.77953;stroke-dashoffset:0;stroke-opacity:1" />
    <text
       xml:space="preserve"
       style="font-style:normal;font-variant:normal;font-weight:normal;font-stretch:normal;font-size:7.76111px;line-height:1;font-family:'000 SkippySharp iCiel';-inkscape-font-specification:'000 SkippySharp iCiel';text-align:end;text-anchor:end;fill:#000000;fill-opacity:1;stroke:none;stroke-width:0.264583;stroke-dasharray:7.99999, 1;stroke-dashoffset:0;stroke-opacity:1"
       x="229.56424"
       y="134.32474"
       id="text35828"
       inkscape:label="làm một cách tự nguyện"><tspan
         sodipodi:role="line"
         style="font-style:normal;font-variant:normal;font-weight:normal;font-stretch:normal;font-size:7.76111px;font-family:'000 SkippySharp iCiel';-inkscape-font-specification:'000 SkippySharp iCiel';text-align:end;text-anchor:end;fill:#000000;fill-opacity:1;stroke:none;stroke-width:0.264583"
         x="229.56424"
         y="134.32474"
         id="tspan35826">có tính khẩn cấp</tspan><tspan
         sodipodi:role="line"
         style="font-style:normal;font-variant:normal;font-weight:normal;font-stretch:normal;font-size:7.76111px;font-family:'000 SkippySharp iCiel';-inkscape-font-specification:'000 SkippySharp iCiel';text-align:end;text-anchor:end;fill:#000000;fill-opacity:1;stroke:none;stroke-width:0.264583"
         x="229.56424"
         y="142.08585"
         id="tspan35838">và ngắn hạn</tspan></text>
    <g
       stroke-linecap="round"
       transform="matrix(0.36493373,0,0,0.36493373,187.05626,134.32013)"
       id="g35834">
      <path
         d="m 1.17,1.02 c 0,0 0,0 0,0 m 0,0 c 0,0 0,0 0,0 M 1.65,6.58 C 1.67,6.52 2.02,6.29 2.16,5.88 M 1.6,6.68 C 1.77,6.41 2.04,6.09 2.26,5.93 M 2.21,5.71 c 1.2,-0.93 2.04,-2 2.93,-2.52 m -3,2.78 C 2.88,5.04 3.51,4.66 4.72,2.73 m -5.13,2.32 c 0,0 0,0 0,0 m 0,0 c 0,0 0,0 0,0 M 4.44,4.23 C 3.61,2.92 2.07,2.03 1.82,1.04 M 4.43,4.01 C 3.33,2.88 2.46,1.96 1.36,1.26"
         stroke="#ffc9c9"
         stroke-width="0.5"
         fill="none"
         id="path35830" />
      <path
         d="M 2.37,0.8 C 2.82,0.62 3.7,0.47 3.79,0.55 3.88,0.62 2.84,0.67 2.9,1.24 2.96,1.8 4.32,3.29 4.14,3.95 3.96,4.61 2.16,4.71 1.83,5.2 1.49,5.69 2.46,6.88 2.14,6.9 1.81,6.91 0.2,6.02 -0.13,5.29 -0.46,4.57 -0.06,3.26 0.16,2.54 0.38,1.82 0.8,1.37 1.19,0.99 1.58,0.6 2.43,0.22 2.48,0.24 2.54,0.26 1.5,1.11 1.52,1.09 M 2.96,1.3 C 2.92,1.18 1.43,-0.08 1.61,0.12 1.79,0.33 3.49,1.53 4.04,2.52 4.58,3.51 5.31,5.59 4.91,6.05 4.5,6.51 2.26,5.09 1.61,5.28 0.96,5.47 1.19,7.08 1,7.2 0.81,7.31 0.56,6.52 0.46,5.96 0.37,5.4 0.43,4.77 0.43,3.82 0.43,2.87 0.04,0.82 0.49,0.26 0.94,-0.3 2.7,0.41 3.12,0.47 3.55,0.53 3.34,0.51 3.02,0.62"
         stroke="#1e1e1e"
         stroke-width="1"
         fill="none"
         id="path35832" />
    </g>
    <text
       xml:space="preserve"
       style="font-style:normal;font-variant:normal;font-weight:normal;font-stretch:normal;font-size:7.76111px;line-height:1;font-family:'000 SkippySharp iCiel';-inkscape-font-specification:'000 SkippySharp iCiel';text-align:end;text-anchor:end;fill:#000000;fill-opacity:1;stroke:none;stroke-width:0.264583;stroke-dasharray:7.99999, 1;stroke-dashoffset:0;stroke-opacity:1"
       x="273.92752"
       y="59.280319"
       id="text36570"
       inkscape:label="làm một cách tự nguyện"><tspan
         sodipodi:role="line"
         style="font-style:normal;font-variant:normal;font-weight:normal;font-stretch:normal;font-size:7.76111px;font-family:'000 SkippySharp iCiel';-inkscape-font-specification:'000 SkippySharp iCiel';text-align:end;text-anchor:end;fill:#000000;fill-opacity:1;stroke:none;stroke-width:0.264583"
         x="273.92752"
         y="59.280319"
         id="tspan36568">có tính bền vững</tspan><tspan
         sodipodi:role="line"
         style="font-style:normal;font-variant:normal;font-weight:normal;font-stretch:normal;font-size:7.76111px;font-family:'000 SkippySharp iCiel';-inkscape-font-specification:'000 SkippySharp iCiel';text-align:end;text-anchor:end;fill:#000000;fill-opacity:1;stroke:none;stroke-width:0.264583"
         x="273.92752"
         y="67.041428"
         id="tspan36580">và dài hạn</tspan></text>
    <g
       stroke-linecap="round"
       transform="matrix(0.36493373,0,0,0.36493373,231.83415,59.141542)"
       id="g36576">
      <path
         d="m 1.17,1.02 c 0,0 0,0 0,0 m 0,0 c 0,0 0,0 0,0 M 1.65,6.58 C 1.67,6.52 2.02,6.29 2.16,5.88 M 1.6,6.68 C 1.77,6.41 2.04,6.09 2.26,5.93 M 2.21,5.71 c 1.2,-0.93 2.04,-2 2.93,-2.52 m -3,2.78 C 2.88,5.04 3.51,4.66 4.72,2.73 m -5.13,2.32 c 0,0 0,0 0,0 m 0,0 c 0,0 0,0 0,0 M 4.44,4.23 C 3.61,2.92 2.07,2.03 1.82,1.04 M 4.43,4.01 C 3.33,2.88 2.46,1.96 1.36,1.26"
         stroke="#ffc9c9"
         stroke-width="0.5"
         fill="none"
         id="path36572" />
      <path
         d="M 2.37,0.8 C 2.82,0.62 3.7,0.47 3.79,0.55 3.88,0.62 2.84,0.67 2.9,1.24 2.96,1.8 4.32,3.29 4.14,3.95 3.96,4.61 2.16,4.71 1.83,5.2 1.49,5.69 2.46,6.88 2.14,6.9 1.81,6.91 0.2,6.02 -0.13,5.29 -0.46,4.57 -0.06,3.26 0.16,2.54 0.38,1.82 0.8,1.37 1.19,0.99 1.58,0.6 2.43,0.22 2.48,0.24 2.54,0.26 1.5,1.11 1.52,1.09 M 2.96,1.3 C 2.92,1.18 1.43,-0.08 1.61,0.12 1.79,0.33 3.49,1.53 4.04,2.52 4.58,3.51 5.31,5.59 4.91,6.05 4.5,6.51 2.26,5.09 1.61,5.28 0.96,5.47 1.19,7.08 1,7.2 0.81,7.31 0.56,6.52 0.46,5.96 0.37,5.4 0.43,4.77 0.43,3.82 0.43,2.87 0.04,0.82 0.49,0.26 0.94,-0.3 2.7,0.41 3.12,0.47 3.55,0.53 3.34,0.51 3.02,0.62"
         stroke="#1e1e1e"
         stroke-width="1"
         fill="none"
         id="path36574" />
    </g>
  </g>
</svg>
